{"glyphs":{"0":{"ha":785,"x_min":85,"x_max":700,"o":"m 392 -21 q 272 3 328 -21 q 175 69 217 28 q 109 167 133 111 q 85 286 85 222 l 85 778 q 109 897 85 842 q 175 994 133 953 q 272 1060 217 1036 q 392 1085 328 1085 q 512 1060 456 1085 q 610 994 568 1036 q 676 897 651 953 q 700 778 700 842 l 700 286 q 676 167 700 222 q 610 69 651 111 q 512 3 568 28 q 392 -21 456 -21 m 576 778 q 562 849 576 815 q 522 907 547 882 q 463 947 497 932 q 392 961 429 961 q 321 947 354 961 q 263 907 288 932 q 223 849 238 882 q 208 778 208 815 l 208 286 q 223 215 208 249 q 263 157 238 182 q 321 117 288 132 q 392 103 354 103 q 463 117 429 103 q 522 157 497 132 q 562 215 547 182 q 576 286 576 249 l 576 778 z "},"1":{"ha":606,"x_min":47,"x_max":554,"o":"m 492 -21 l 128 -21 q 85 -3 103 -21 q 67 40 67 15 q 84 85 67 67 q 128 103 101 103 l 246 103 l 246 900 l 149 831 q 103 820 128 815 q 63 846 78 825 q 52 892 47 867 q 78 932 57 917 l 272 1068 q 304 1080 288 1079 q 336 1074 321 1081 q 369 1018 369 1056 l 369 103 l 492 103 q 536 85 518 103 q 554 40 554 67 q 536 -3 554 15 q 492 -21 518 -21 z "},"2":{"ha":785,"x_min":85,"x_max":742,"o":"m 679 -21 l 146 -21 q 103 -3 121 -21 q 85 40 85 15 q 106 165 85 110 q 163 267 128 219 q 240 356 197 315 q 322 438 282 397 l 517 632 q 559 695 544 660 q 574 769 574 731 q 560 842 574 808 q 522 900 546 875 q 464 939 497 925 q 392 953 431 953 q 321 938 354 953 q 263 899 288 924 q 223 840 238 874 q 208 768 208 806 q 190 725 208 743 q 147 707 172 707 q 103 725 121 707 q 85 768 85 743 q 109 888 85 832 q 175 985 133 943 q 273 1051 217 1026 q 392 1075 329 1075 q 513 1051 457 1075 q 609 987 568 1028 q 673 890 650 946 q 696 768 696 833 q 672 648 696 706 q 604 546 649 590 l 410 351 q 344 290 378 319 q 281 226 311 260 q 238 168 256 199 q 213 103 219 138 l 679 103 q 723 85 704 103 q 742 40 742 67 q 723 -3 742 15 q 679 -21 704 -21 z "},"3":{"ha":785,"x_min":85,"x_max":700,"o":"m 392 -21 q 272 3 328 -21 q 175 69 217 28 q 109 167 133 111 q 85 286 85 222 q 103 331 85 313 q 147 349 121 349 q 190 331 172 349 q 208 286 208 313 q 223 215 208 249 q 263 157 238 182 q 321 117 288 132 q 392 103 354 103 q 463 117 429 103 q 522 157 497 132 q 562 215 547 182 q 576 286 576 249 q 562 356 576 324 q 522 411 547 388 q 464 448 497 435 q 392 461 431 461 q 349 479 367 461 q 331 522 331 497 q 349 567 331 549 q 392 585 367 585 q 463 599 429 585 q 522 639 497 614 q 562 697 547 664 q 576 768 576 731 q 562 840 576 806 q 522 899 547 874 q 463 938 497 924 q 392 953 429 953 q 321 938 354 953 q 263 899 288 924 q 223 840 238 874 q 208 768 208 806 q 190 725 208 743 q 147 707 172 707 q 103 725 121 707 q 85 768 85 743 q 109 888 85 832 q 175 985 133 943 q 272 1051 217 1026 q 392 1075 328 1075 q 512 1051 456 1075 q 610 985 568 1026 q 676 888 651 943 q 700 768 700 832 q 667 629 700 693 q 576 522 633 565 q 666 422 632 482 q 700 286 700 363 q 676 167 700 222 q 610 69 651 111 q 512 3 568 28 q 392 -21 456 -21 z "},"4":{"ha":781,"x_min":22,"x_max":726,"o":"m 664 400 l 589 400 l 589 40 q 571 -3 589 15 q 528 -21 553 -21 q 483 -3 501 -21 q 465 40 465 15 l 465 400 l 85 400 q 41 419 60 400 q 22 464 22 439 q 24 478 22 471 q 32 492 26 485 l 439 1053 q 462 1074 447 1064 q 496 1085 476 1085 q 538 1066 519 1085 q 557 1024 557 1047 q 547 994 557 1006 l 200 524 l 465 524 l 465 769 q 483 813 465 794 q 528 831 501 831 q 571 813 553 831 q 589 769 589 794 l 589 524 l 664 524 q 708 506 690 524 q 726 463 726 488 q 708 418 726 436 q 664 400 690 400 z "},"5":{"ha":761,"x_min":85,"x_max":703,"o":"m 393 -21 q 273 3 329 -21 q 175 69 217 28 q 109 167 133 111 q 85 288 85 224 q 103 332 85 314 q 147 350 121 350 q 190 332 172 350 q 208 288 208 314 q 223 216 208 250 q 263 157 238 182 q 322 117 288 132 q 393 103 356 103 q 466 117 432 103 q 525 157 500 132 q 565 216 550 182 q 579 288 579 250 q 565 360 579 326 q 525 419 550 394 q 466 459 500 444 q 393 474 432 474 l 189 474 q 144 492 163 474 q 126 535 126 510 l 126 1014 q 144 1057 126 1039 q 189 1075 163 1075 l 640 1075 q 685 1057 667 1075 q 703 1014 703 1039 q 685 970 703 988 q 640 953 667 953 l 250 953 l 250 597 l 393 597 q 513 573 457 597 q 612 506 569 549 q 678 408 654 464 q 703 288 703 351 q 678 167 703 224 q 612 69 654 111 q 513 3 569 28 q 393 -21 457 -21 z "},"6":{"ha":754,"x_min":85,"x_max":700,"o":"m 392 -21 q 272 3 328 -21 q 175 69 217 28 q 109 167 133 111 q 85 286 85 222 l 85 778 q 109 897 85 842 q 175 994 133 953 q 272 1060 217 1036 q 392 1085 328 1085 q 512 1060 456 1085 q 610 994 568 1036 q 676 897 651 953 q 700 778 700 842 q 682 734 700 751 q 638 717 664 717 q 594 734 613 717 q 576 778 576 751 q 562 849 576 815 q 522 907 547 882 q 463 947 497 932 q 392 961 429 961 q 321 947 354 961 q 263 907 288 932 q 223 849 238 882 q 208 778 208 815 l 208 532 q 294 577 247 561 q 392 593 340 593 q 512 569 456 593 q 610 503 568 544 q 676 406 651 461 q 700 286 700 350 q 676 167 700 222 q 610 69 651 111 q 512 3 568 28 q 392 -21 456 -21 m 392 471 q 321 456 354 471 q 263 417 288 442 q 223 358 238 392 q 208 286 208 324 q 223 215 208 249 q 263 157 238 182 q 321 117 288 132 q 392 103 354 103 q 463 117 429 103 q 522 157 497 132 q 562 215 547 182 q 576 286 576 249 q 562 358 576 324 q 522 417 547 392 q 463 456 497 442 q 392 471 429 471 z "},"7":{"ha":697,"x_min":31,"x_max":681,"o":"m 282 18 q 259 -10 275 0 q 225 -21 243 -21 q 174 6 193 -21 q 167 64 154 32 l 521 953 l 93 953 q 49 970 67 953 q 31 1014 31 988 q 49 1057 31 1039 q 93 1075 67 1075 l 611 1075 q 663 1049 644 1075 q 669 992 681 1022 l 282 18 z "},"8":{"ha":785,"x_min":85,"x_max":700,"o":"m 393 -21 q 273 3 329 -21 q 175 69 217 28 q 109 167 133 111 q 85 286 85 222 q 118 426 85 361 q 208 532 151 490 q 118 632 151 572 q 85 768 85 692 q 109 888 85 832 q 175 985 133 943 q 272 1051 217 1026 q 392 1075 328 1075 q 512 1051 456 1075 q 610 985 568 1026 q 676 888 651 943 q 700 768 700 832 q 666 632 700 692 q 576 532 632 572 q 667 426 633 490 q 700 286 700 363 q 676 167 700 222 q 610 69 651 111 q 513 3 568 28 q 393 -21 457 -21 m 392 953 q 321 938 354 953 q 263 899 288 924 q 223 840 238 874 q 208 768 208 806 q 223 697 208 729 q 263 640 238 664 q 321 604 288 617 q 393 593 354 592 q 464 604 431 592 q 522 640 497 617 q 562 697 547 664 q 576 768 576 729 q 562 840 576 806 q 522 899 547 874 q 464 938 497 924 q 392 953 431 953 m 396 471 l 392 471 q 319 458 353 472 q 261 417 286 443 q 222 358 236 392 q 208 286 208 324 q 223 215 208 249 q 263 157 238 182 q 322 117 288 132 q 393 103 356 103 q 464 117 431 103 q 522 157 497 132 q 562 215 547 182 q 576 286 576 249 q 562 359 576 325 q 523 419 547 393 q 466 458 499 444 q 396 471 433 472 z "},"9":{"ha":754,"x_min":54,"x_max":669,"o":"m 361 -21 q 242 3 297 -21 q 144 69 186 28 q 78 167 103 111 q 54 286 54 222 q 72 331 54 313 q 115 349 90 349 q 160 331 142 349 q 178 286 178 313 q 192 215 178 249 q 232 157 207 182 q 290 117 257 132 q 361 103 324 103 q 433 117 399 103 q 492 157 467 132 q 531 215 517 182 q 546 286 546 249 l 546 522 q 460 477 507 493 q 361 461 414 461 q 242 485 297 461 q 144 551 186 510 q 78 649 103 593 q 54 768 54 704 q 78 888 54 832 q 144 985 103 943 q 242 1051 186 1026 q 361 1075 297 1075 q 481 1051 425 1075 q 579 985 538 1026 q 645 888 621 943 q 669 768 669 832 l 669 286 q 645 167 669 222 q 579 69 621 111 q 481 3 538 28 q 361 -21 425 -21 m 361 953 q 290 938 324 953 q 232 899 257 924 q 192 840 207 874 q 178 768 178 806 q 192 697 178 731 q 232 639 207 664 q 290 599 257 614 q 361 585 324 585 q 433 599 399 585 q 492 639 467 614 q 531 697 517 664 q 546 768 546 731 q 531 840 546 806 q 492 899 517 874 q 433 938 467 924 q 361 953 399 953 z "},"\u0000":{"ha":0,"x_min":0,"x_max":0,"o":""},"\r":{"ha":0,"x_min":0,"x_max":0,"o":""}," ":{"ha":488,"x_min":0,"x_max":0,"o":""},"Ð":{"ha":1089,"x_min":24,"x_max":1004,"o":"m 518 -21 l 176 -21 q 144 -11 160 -21 q 122 14 129 -1 q 119 64 110 36 l 119 469 l 85 469 q 42 488 60 469 q 24 532 24 506 q 42 575 24 557 q 85 593 60 593 l 119 593 l 119 1014 q 138 1057 119 1039 q 182 1075 156 1075 l 517 1075 q 717 1028 626 1075 q 871 904 807 981 q 969 731 935 828 q 1004 533 1004 633 q 962 308 1004 410 q 851 133 919 206 q 694 19 782 60 q 518 -21 607 -21 m 517 953 l 243 953 l 243 593 l 572 593 q 615 575 597 593 q 633 532 633 557 q 615 488 633 506 q 572 469 597 469 l 243 469 l 243 101 l 518 101 q 663 140 597 101 q 778 239 729 178 q 853 378 826 300 q 881 533 881 456 q 854 688 881 613 q 780 823 828 764 q 665 917 732 882 q 517 953 597 953 z "},"ð":{"ha":885,"x_min":54,"x_max":876,"o":"m 815 749 l 769 749 l 769 40 q 751 -3 769 15 q 708 -21 733 -21 q 664 -3 682 -21 q 646 40 646 15 l 646 67 q 538 2 597 25 q 413 -21 478 -21 q 274 8 339 -21 q 160 85 208 36 q 83 198 111 133 q 54 336 54 263 q 83 475 54 410 q 160 589 111 540 q 274 666 208 638 q 413 694 339 694 q 538 672 478 694 q 646 606 597 649 l 646 749 l 329 749 q 285 766 303 749 q 267 810 267 783 q 285 853 267 836 q 329 871 303 871 l 646 871 l 646 1024 q 664 1067 646 1049 q 708 1085 682 1085 q 751 1067 733 1085 q 769 1024 769 1049 l 769 871 l 815 871 q 859 853 842 871 q 876 810 876 836 q 859 766 876 783 q 815 749 842 749 m 413 571 q 322 552 364 571 q 247 501 279 533 q 197 427 215 469 q 178 336 178 385 q 197 245 178 288 q 247 172 215 203 q 322 122 279 140 q 413 103 364 103 q 503 122 460 103 q 577 172 546 140 q 627 245 608 203 q 646 336 646 288 q 627 427 646 385 q 577 501 608 469 q 503 552 546 533 q 413 571 460 571 z "},"Ł":{"ha":603,"x_min":-15,"x_max":610,"o":"m 547 -21 l 176 -21 q 133 -3 151 -21 q 115 40 115 15 l 115 403 l 82 383 q 35 377 60 371 q -3 407 11 383 q -9 453 -15 429 q 21 490 -3 478 l 115 546 l 115 1014 q 133 1058 115 1040 q 176 1075 151 1075 q 220 1058 203 1075 q 238 1014 238 1040 l 238 617 l 354 685 q 401 692 376 699 q 438 663 425 685 q 444 616 451 640 q 415 578 438 592 l 238 474 l 238 101 l 547 101 q 592 83 574 101 q 610 40 610 65 q 592 -3 610 15 q 547 -21 574 -21 z "},"ł":{"ha":354,"x_min":-15,"x_max":385,"o":"m 349 539 l 238 474 l 238 40 q 219 -3 238 15 q 176 -21 201 -21 q 133 -3 151 -21 q 115 40 115 15 l 115 403 l 82 383 q 35 377 60 371 q -3 407 11 383 q -9 453 -15 429 q 21 490 -3 478 l 115 546 l 115 1014 q 133 1057 115 1039 q 176 1075 151 1075 q 219 1057 201 1075 q 238 1014 238 1039 l 238 617 l 288 644 q 334 651 310 658 q 372 622 358 644 q 378 576 385 600 q 349 539 372 551 z "},"Š":{"ha":785,"x_min":99,"x_max":714,"o":"m 406 -21 q 286 3 342 -21 q 189 69 231 28 q 123 167 147 111 q 99 286 99 222 q 117 331 99 313 q 161 349 135 349 q 204 331 186 349 q 222 286 222 313 q 237 215 222 249 q 276 157 251 182 q 335 117 301 132 q 406 103 368 103 q 477 117 443 103 q 536 157 511 132 q 576 215 561 182 q 590 286 590 249 q 572 362 590 332 q 522 414 554 392 q 488 434 507 425 q 447 453 468 443 q 404 469 426 461 q 358 486 382 478 q 266 524 313 503 q 183 576 219 544 q 122 653 146 607 q 99 768 99 700 q 123 888 99 832 q 189 985 147 943 q 286 1051 231 1026 q 406 1075 342 1075 q 526 1051 469 1075 q 624 985 582 1026 q 690 888 665 943 q 714 768 714 832 q 696 725 714 743 q 651 707 678 707 q 608 725 626 707 q 590 768 590 743 q 576 840 590 806 q 536 899 561 874 q 477 938 511 924 q 406 953 443 953 q 335 938 368 953 q 276 899 301 924 q 237 840 251 874 q 222 768 222 806 q 240 699 222 726 q 289 650 257 671 q 364 613 322 629 q 408 596 386 604 q 454 579 431 588 q 547 541 500 563 q 630 487 593 519 q 690 406 667 454 q 714 286 714 357 q 690 167 714 222 q 624 69 665 111 q 526 3 582 28 q 406 -21 469 -21 m 406 1124 q 367 1140 381 1124 l 236 1274 q 219 1314 219 1290 q 235 1354 219 1338 q 275 1371 251 1371 q 315 1354 299 1371 l 406 1261 l 496 1354 q 536 1371 513 1371 q 576 1354 560 1371 q 592 1314 592 1338 q 576 1274 592 1292 l 446 1140 q 406 1124 429 1124 z "},"š":{"ha":607,"x_min":69,"x_max":531,"o":"m 307 -21 q 223 -7 265 -21 q 147 33 181 7 q 91 99 113 60 q 69 186 69 138 q 88 229 69 211 q 131 247 106 247 q 175 229 157 247 q 193 186 193 211 q 228 124 193 146 q 307 103 263 103 q 381 123 356 103 q 407 189 407 143 q 397 233 407 217 q 367 263 386 250 q 344 274 356 269 q 318 285 332 279 q 290 294 304 290 q 260 304 275 299 q 198 327 229 314 q 141 361 167 340 q 99 414 115 382 q 83 494 83 446 q 100 576 83 539 q 146 639 117 613 q 213 680 175 665 q 293 694 251 694 q 373 680 335 694 q 440 639 411 665 q 485 576 468 613 q 503 494 503 539 q 485 451 503 469 q 440 433 467 433 q 397 451 415 433 q 379 494 379 469 q 354 550 379 529 q 293 571 329 571 q 232 550 257 571 q 207 494 207 529 q 246 443 207 463 q 296 422 268 431 q 325 411 310 415 q 356 400 340 407 q 417 373 386 389 q 474 333 449 357 q 515 274 499 308 q 531 189 531 239 q 513 100 531 139 q 465 34 496 61 q 394 -7 435 7 q 307 -21 353 -21 m 318 742 q 279 758 293 742 l 149 892 q 132 932 132 908 q 148 972 132 956 q 188 989 164 989 q 228 972 211 989 l 318 879 l 408 972 q 449 989 425 989 q 488 972 472 989 q 504 932 504 956 q 489 892 504 910 l 358 758 q 318 742 342 742 z "},"Ý":{"ha":786,"x_min":22,"x_max":792,"o":"m 783 983 l 468 419 l 468 40 q 450 -3 468 15 q 407 -21 432 -21 q 364 -3 382 -21 q 346 40 346 15 l 346 419 l 31 983 q 22 1014 22 997 q 40 1057 22 1039 q 83 1075 58 1075 q 115 1067 100 1075 q 138 1044 129 1058 l 407 563 l 676 1044 q 699 1067 685 1058 q 731 1075 714 1075 q 774 1057 756 1075 q 792 1014 792 1039 q 783 983 792 997 m 357 1104 q 400 1122 383 1104 l 525 1247 q 543 1290 543 1265 q 525 1333 543 1315 q 482 1351 507 1351 q 439 1333 457 1351 l 314 1208 q 296 1165 296 1192 q 314 1122 296 1140 q 357 1104 332 1104 z "},"ý":{"ha":635,"x_min":38,"x_max":625,"o":"m 619 610 l 388 35 l 267 -260 q 244 -288 260 -278 q 210 -299 229 -299 q 167 -281 185 -299 q 149 -237 149 -262 q 153 -214 149 -225 l 264 58 l 42 610 q 38 633 38 619 q 56 676 38 658 q 99 694 74 694 q 134 684 118 694 q 157 656 150 674 l 331 211 l 506 656 q 528 684 513 674 q 563 694 543 694 q 607 676 589 694 q 625 633 625 658 q 619 610 625 619 m 324 789 q 367 807 350 789 l 492 932 q 510 975 510 950 q 492 1018 510 1000 q 449 1036 474 1036 q 406 1018 424 1036 l 281 893 q 263 850 263 876 q 281 807 263 825 q 324 789 299 789 z "},"Þ":{"ha":754,"x_min":115,"x_max":731,"o":"m 422 317 l 239 317 l 239 40 q 221 -3 239 15 q 178 -21 203 -21 q 133 -3 151 -21 q 115 40 115 15 l 115 1014 q 133 1057 115 1039 q 178 1075 151 1075 q 221 1057 203 1075 q 239 1014 239 1039 l 239 931 l 422 931 q 542 906 486 931 q 640 840 599 882 q 706 743 682 799 q 731 624 731 688 q 706 504 731 560 q 640 407 682 449 q 542 341 599 365 q 422 317 486 317 m 422 807 l 239 807 l 239 439 l 422 439 q 494 453 460 439 q 553 493 528 468 q 592 552 578 518 q 607 624 607 586 q 592 694 607 661 q 553 753 578 728 q 494 792 528 778 q 422 807 460 807 z "},"þ":{"ha":885,"x_min":115,"x_max":831,"o":"m 474 -21 q 347 2 407 -21 q 239 67 288 25 l 239 -271 q 221 -315 239 -297 q 178 -333 203 -333 q 133 -315 151 -333 q 115 -271 115 -297 l 115 1014 q 133 1057 115 1039 q 178 1075 151 1075 q 221 1057 203 1075 q 239 1014 239 1039 l 239 607 q 347 672 288 649 q 474 694 407 694 q 613 666 547 694 q 726 589 678 638 q 803 476 775 540 q 831 338 831 411 q 803 199 831 264 q 726 85 775 133 q 613 8 678 36 q 474 -21 547 -21 m 474 571 q 383 553 425 571 q 308 503 340 535 q 258 428 276 471 q 239 338 239 386 q 258 247 239 289 q 308 172 276 204 q 383 122 340 140 q 474 103 425 103 q 565 122 522 103 q 639 172 607 140 q 689 247 671 204 q 707 338 707 289 q 689 428 707 386 q 639 503 671 471 q 565 553 607 535 q 474 571 522 571 z "},"Ž":{"ha":821,"x_min":38,"x_max":750,"o":"m 689 -21 l 99 -21 q 56 -3 74 -21 q 38 40 38 15 q 46 72 38 57 l 579 953 l 99 953 q 56 971 74 953 q 38 1014 38 989 q 56 1057 38 1039 q 99 1075 74 1075 l 689 1075 q 732 1057 714 1075 q 750 1014 750 1039 q 742 982 750 996 l 208 103 l 689 103 q 732 85 714 103 q 750 40 750 67 q 732 -3 750 15 q 689 -21 714 -21 m 411 1124 q 372 1140 386 1124 l 242 1274 q 225 1314 225 1290 q 241 1354 225 1338 q 281 1371 257 1371 q 321 1354 304 1371 l 411 1261 l 501 1354 q 542 1371 518 1371 q 581 1354 565 1371 q 597 1314 597 1338 q 582 1274 597 1292 l 451 1140 q 411 1124 435 1124 z "},"ž":{"ha":683,"x_min":38,"x_max":674,"o":"m 611 -21 l 99 -21 q 56 -3 74 -21 q 38 40 38 15 q 53 81 38 63 l 476 571 l 99 571 q 56 589 74 571 q 38 632 38 607 q 56 676 38 658 q 99 694 74 694 l 611 694 q 656 676 638 694 q 674 633 674 658 q 658 592 674 610 l 235 103 l 611 103 q 656 85 638 103 q 674 40 674 67 q 656 -3 674 15 q 611 -21 638 -21 m 342 742 q 303 758 317 742 l 172 892 q 156 932 156 908 q 172 972 156 956 q 211 989 188 989 q 251 972 235 989 l 342 879 l 432 972 q 472 989 449 989 q 512 972 496 989 q 528 932 528 956 q 513 892 528 910 l 382 758 q 342 742 365 742 z "},"¦":{"ha":354,"x_min":115,"x_max":238,"o":"m 176 438 q 133 456 151 438 q 115 499 115 474 l 115 1024 q 133 1067 115 1050 q 176 1085 151 1085 q 220 1067 203 1085 q 238 1024 238 1050 l 238 499 q 220 456 238 474 q 176 438 203 438 m 176 -335 q 133 -317 151 -335 q 115 -274 115 -299 l 115 251 q 133 294 115 276 q 176 313 151 313 q 220 294 203 313 q 238 251 238 276 l 238 -274 q 220 -317 238 -299 q 176 -335 203 -335 z "},"−":{"ha":740,"x_min":24,"x_max":717,"o":"m 656 275 l 85 275 q 42 293 60 275 q 24 338 24 311 q 42 381 24 363 q 85 399 60 399 l 656 399 q 699 381 681 399 q 717 338 717 363 q 699 293 717 311 q 656 275 681 275 z "},"×":{"ha":767,"x_min":24,"x_max":744,"o":"m 682 -21 q 639 -3 656 -21 l 383 251 l 129 -3 q 85 -21 111 -21 q 42 -3 60 -21 q 24 40 24 15 q 42 85 24 65 l 296 339 l 42 593 q 24 638 24 613 q 42 681 24 663 q 85 700 60 700 q 129 681 110 700 l 383 426 l 639 681 q 682 700 657 700 q 725 681 707 700 q 744 638 744 663 q 725 593 744 613 l 471 339 l 725 85 q 744 40 744 65 q 725 -3 744 15 q 682 -21 708 -21 z "},"!":{"ha":396,"x_min":115,"x_max":279,"o":"m 197 240 q 154 258 172 240 q 136 301 136 276 l 136 1026 q 154 1069 136 1051 q 197 1088 172 1088 q 242 1069 224 1088 q 260 1026 260 1051 l 260 301 q 242 258 260 276 q 197 240 224 240 m 256 3 q 197 -21 232 -21 q 140 3 164 -21 q 115 61 115 26 q 140 119 115 96 q 198 143 164 143 q 256 119 232 143 q 279 61 279 96 q 256 3 279 26 z "},"\"":{"ha":296,"x_min":7,"x_max":289,"o":"m 228 776 q 185 794 203 776 q 167 838 167 813 l 167 1014 q 185 1057 167 1039 q 228 1075 203 1075 q 271 1057 253 1075 q 289 1014 289 1039 l 289 838 q 271 794 289 813 q 228 776 253 776 m 68 776 q 25 794 43 776 q 7 838 7 813 l 7 1014 q 25 1057 7 1039 q 68 1075 43 1075 q 111 1057 93 1075 q 129 1014 129 1039 l 129 838 q 111 794 129 813 q 68 776 93 776 z "},"#":{"ha":1161,"x_min":-7,"x_max":1168,"o":"m 1106 618 l 888 618 l 818 446 l 986 446 q 1031 428 1013 446 q 1049 385 1049 410 q 1031 340 1049 358 q 986 322 1013 322 l 768 322 l 646 18 q 623 -11 639 -1 q 589 -21 607 -21 q 560 -13 574 -21 q 538 6 546 -6 q 527 33 529 18 q 532 64 525 49 l 636 322 l 394 322 l 271 18 q 249 -10 264 0 q 214 -21 233 -21 q 163 6 182 -21 q 157 64 144 32 l 261 322 l 54 322 q 11 340 29 322 q -7 385 -7 358 q 11 428 -7 410 q 54 446 29 446 l 311 446 l 381 618 l 174 618 q 131 636 149 618 q 113 681 113 654 q 131 724 113 706 q 174 742 149 742 l 431 742 l 553 1046 q 587 1080 564 1069 q 633 1081 610 1090 q 667 1047 657 1071 q 668 1000 678 1024 l 564 742 l 806 742 l 928 1046 q 961 1080 938 1069 q 1008 1081 985 1090 q 1042 1047 1032 1071 q 1042 1000 1051 1024 l 938 742 l 1106 742 q 1150 724 1132 742 q 1168 681 1168 706 q 1150 636 1168 654 q 1106 618 1132 618 m 514 618 l 444 446 l 686 446 l 756 618 l 514 618 z "},"$":{"ha":785,"x_min":85,"x_max":700,"o":"m 453 -15 l 453 -112 q 435 -156 453 -137 q 392 -174 417 -174 q 349 -156 367 -174 q 331 -112 331 -137 l 331 -15 q 233 24 278 -4 q 155 91 188 51 q 103 181 122 131 q 85 286 85 231 q 103 331 85 313 q 147 349 121 349 q 190 331 172 349 q 208 286 208 313 q 243 179 208 226 q 331 113 278 132 l 331 489 q 240 531 285 507 q 161 590 196 556 q 106 671 126 625 q 85 778 85 717 q 103 883 85 833 q 155 973 122 933 q 233 1040 188 1013 q 331 1079 278 1068 l 331 1175 q 349 1218 331 1200 q 392 1236 367 1236 q 435 1218 417 1236 q 453 1175 453 1200 l 453 1079 q 551 1040 506 1068 q 629 973 596 1013 q 681 883 663 933 q 700 778 700 833 q 682 734 700 751 q 638 717 664 717 q 594 734 613 717 q 576 778 576 751 q 542 885 576 838 q 453 951 507 932 l 453 576 q 546 535 501 558 q 625 477 590 511 q 680 397 660 443 q 700 286 700 350 q 681 181 700 231 q 629 91 663 131 q 551 24 596 51 q 453 -15 506 -4 m 331 951 q 243 885 278 932 q 208 778 208 838 q 243 683 208 719 q 331 622 278 646 l 331 951 m 453 444 l 453 113 q 542 179 507 132 q 576 286 576 226 q 542 386 576 351 q 453 444 507 421 z "},"%":{"ha":760,"x_min":-7,"x_max":767,"o":"m 185 713 q 110 728 144 713 q 49 769 75 743 q 8 829 24 794 q -7 904 -7 864 q 8 978 -7 943 q 49 1040 24 1014 q 110 1081 75 1065 q 185 1096 144 1096 q 259 1081 224 1096 q 320 1040 294 1065 q 361 978 346 1014 q 376 904 376 943 q 361 829 376 864 q 320 769 346 794 q 259 728 294 743 q 185 713 224 713 m 618 1000 l 225 18 q 202 -10 218 0 q 167 -21 186 -21 q 124 -3 142 -21 q 106 40 106 15 q 110 64 106 53 l 504 1046 q 526 1074 511 1064 q 561 1085 542 1085 q 606 1067 588 1085 q 624 1024 624 1049 q 618 1000 624 1010 m 575 -21 q 500 -6 535 -21 q 440 35 465 10 q 399 96 414 61 q 383 171 383 131 q 399 245 383 210 q 440 306 414 281 q 500 347 465 332 q 575 363 535 363 q 649 347 614 363 q 710 306 685 332 q 751 245 736 281 q 767 171 767 210 q 751 96 767 131 q 710 35 736 61 q 649 -6 685 10 q 575 -21 614 -21 m 185 981 q 131 958 153 981 q 108 904 108 936 q 131 850 108 872 q 185 828 153 828 q 239 850 217 828 q 261 904 261 872 q 239 958 261 936 q 185 981 217 981 m 575 247 q 521 225 543 247 q 499 171 499 203 q 521 117 499 139 q 575 94 543 94 q 629 117 607 94 q 651 171 651 139 q 629 225 651 203 q 575 247 607 247 z "},"&":{"ha":1025,"x_min":85,"x_max":1017,"o":"m 999 388 l 846 235 l 996 86 q 1014 42 1014 65 q 996 -1 1014 17 q 951 -19 978 -19 q 908 -1 925 -19 l 760 147 q 698 88 729 118 q 632 33 667 57 q 548 -6 593 8 q 442 -21 503 -21 q 303 7 368 -21 q 189 83 238 35 q 113 197 140 132 q 85 336 85 263 q 99 442 85 397 q 139 526 114 488 q 193 592 163 561 q 254 654 224 624 q 203 733 221 690 q 185 828 185 775 q 205 928 185 881 q 260 1010 225 975 q 342 1065 294 1044 q 442 1085 389 1085 q 542 1065 496 1085 q 624 1010 589 1044 q 678 928 658 975 q 699 828 699 881 q 679 729 699 779 q 624 646 660 679 q 581 628 606 628 q 537 646 554 628 q 519 690 519 664 q 523 710 519 701 q 531 725 526 718 q 540 738 535 732 q 551 751 546 744 q 569 783 561 765 q 576 828 576 801 q 538 922 576 883 q 442 961 499 961 q 347 922 386 961 q 308 828 308 883 q 319 773 308 794 q 353 729 331 751 q 385 697 367 713 l 760 322 l 911 474 q 956 492 928 492 q 999 474 981 492 q 1017 431 1017 456 q 999 388 1017 406 m 340 567 l 297 524 q 233 440 257 482 q 208 336 208 399 q 226 245 208 288 q 276 171 244 203 q 351 121 308 139 q 442 103 393 103 q 546 127 504 103 q 629 192 588 151 l 672 235 l 340 567 z "},"'":{"ha":136,"x_min":7,"x_max":129,"o":"m 68 776 q 25 794 43 776 q 7 838 7 813 l 7 1014 q 25 1057 7 1039 q 68 1075 43 1075 q 111 1057 93 1075 q 129 1014 129 1039 l 129 838 q 111 794 129 813 q 68 776 93 776 z "},"(":{"ha":410,"x_min":54,"x_max":360,"o":"m 324 -326 q 293 -335 308 -335 q 240 -304 258 -335 q 101 28 147 -144 q 54 374 54 200 q 101 721 54 549 q 240 1053 147 893 q 277 1081 253 1075 q 324 1075 301 1088 q 353 1037 347 1061 q 346 990 360 1013 q 219 690 261 846 q 176 374 176 533 q 219 59 176 215 q 346 -242 261 -97 q 353 -289 360 -264 q 324 -326 347 -314 z "},")":{"ha":410,"x_min":50,"x_max":354,"o":"m 115 -335 q 85 -326 99 -335 q 56 -289 63 -314 q 63 -242 50 -264 q 189 59 147 -97 q 231 374 231 215 q 189 690 231 533 q 63 990 147 846 q 56 1037 50 1013 q 85 1075 63 1061 q 131 1081 107 1088 q 169 1053 156 1075 q 308 721 263 893 q 354 374 354 549 q 308 28 354 200 q 169 -304 263 -144 q 115 -335 151 -335 z "},"*":{"ha":432,"x_min":19,"x_max":413,"o":"m 376 883 l 314 858 l 349 789 q 353 752 358 771 q 332 722 349 733 q 296 715 313 710 q 265 732 279 719 q 238 760 250 744 q 217 788 225 776 l 168 732 q 151 718 161 722 q 129 714 140 714 q 85 738 101 714 q 83 789 69 763 l 118 858 q 88 870 106 864 q 53 885 69 876 q 28 909 38 894 q 25 944 19 924 q 47 974 31 964 q 82 982 63 985 l 156 972 q 159 1006 157 986 q 166 1043 161 1025 q 183 1074 171 1061 q 217 1086 194 1086 q 250 1074 239 1086 q 267 1043 261 1061 q 274 1006 272 1025 q 276 972 275 986 l 351 982 q 386 974 371 985 q 407 944 401 964 q 404 908 413 925 q 376 883 396 890 z "},"+":{"ha":768,"x_min":25,"x_max":742,"o":"m 724 296 q 681 278 706 278 l 446 278 l 446 42 q 428 -1 446 17 q 383 -19 410 -19 q 340 -1 358 -19 q 322 42 322 17 l 322 278 l 88 278 q 43 296 61 278 q 25 339 25 314 q 43 383 25 365 q 88 400 61 400 l 322 400 l 322 636 q 340 679 322 661 q 383 697 358 697 q 428 679 410 697 q 446 636 446 661 l 446 400 l 681 400 q 724 383 707 400 q 742 339 742 365 q 724 296 742 314 z "},",":{"ha":263,"x_min":42,"x_max":221,"o":"m 140 -175 q 101 -187 121 -187 q 59 -170 76 -187 q 42 -128 42 -153 q 48 -100 42 -111 q 64 -81 54 -89 q 90 -49 83 -62 q 97 -15 97 -36 l 97 -10 q 67 19 78 1 q 56 61 56 38 q 80 119 56 96 q 138 142 104 142 q 201 114 181 142 q 221 51 221 86 l 221 -15 q 199 -104 221 -62 q 140 -175 178 -146 z "},"-":{"ha":657,"x_min":24,"x_max":633,"o":"m 572 275 l 85 275 q 42 293 60 275 q 24 338 24 311 q 42 381 24 363 q 85 399 60 399 l 572 399 q 615 381 597 399 q 633 338 633 363 q 615 293 633 311 q 572 275 597 275 z "},".":{"ha":247,"x_min":42,"x_max":206,"o":"m 124 -21 q 66 3 90 -21 q 42 61 42 28 q 65 119 42 96 q 124 142 89 142 q 182 119 158 142 q 206 61 206 96 q 181 3 206 28 q 124 -21 157 -21 z "},"/":{"ha":631,"x_min":-15,"x_max":643,"o":"m 113 -299 q 90 -328 106 -318 q 54 -337 74 -337 q 3 -311 22 -337 q -3 -253 -15 -285 l 518 1046 q 551 1080 528 1069 q 599 1081 575 1090 q 633 1047 622 1071 q 632 1000 643 1024 l 113 -299 z "},":":{"ha":247,"x_min":42,"x_max":206,"o":"m 124 571 q 66 595 90 571 q 42 653 42 619 q 65 710 42 688 q 124 733 89 733 q 182 710 158 733 q 206 653 206 688 q 181 595 206 619 q 124 571 157 571 m 124 -21 q 66 3 90 -21 q 42 61 42 28 q 65 119 42 96 q 124 142 89 142 q 182 119 158 142 q 206 61 206 96 q 181 3 206 28 q 124 -21 157 -21 z "},";":{"ha":263,"x_min":42,"x_max":221,"o":"m 139 571 q 81 595 106 571 q 57 653 57 619 q 81 710 57 688 q 139 733 104 733 q 197 710 174 733 q 221 653 221 688 q 197 595 221 619 q 139 571 172 571 m 140 -175 q 101 -187 121 -187 q 59 -170 76 -187 q 42 -128 42 -153 q 48 -100 42 -111 q 64 -81 54 -89 q 90 -49 83 -62 q 97 -15 97 -36 l 97 -10 q 67 19 78 1 q 56 61 56 38 q 80 119 56 96 q 138 142 104 142 q 201 114 181 142 q 221 51 221 86 l 221 -15 q 199 -104 221 -62 q 140 -175 178 -146 z "},"<":{"ha":701,"x_min":61,"x_max":658,"o":"m 592 -21 q 560 -11 574 -21 l 90 285 q 61 338 61 303 q 90 389 61 371 l 560 685 q 606 693 581 699 q 644 665 631 688 q 653 619 658 644 q 625 581 647 594 l 239 338 l 625 93 q 653 55 647 79 q 644 8 658 31 q 592 -21 624 -21 z "},"=":{"ha":918,"x_min":54,"x_max":864,"o":"m 803 429 l 115 429 q 72 447 90 429 q 54 490 54 465 q 72 535 54 517 q 115 553 90 553 l 803 553 q 847 535 829 553 q 864 490 864 517 q 847 447 864 465 q 803 429 829 429 m 803 132 l 115 132 q 72 150 90 132 q 54 193 54 168 q 72 238 54 219 q 115 256 90 256 l 803 256 q 847 238 829 256 q 864 193 864 219 q 847 150 864 168 q 803 132 829 132 z "},">":{"ha":701,"x_min":50,"x_max":647,"o":"m 618 285 l 149 -11 q 117 -21 135 -21 q 64 8 82 -21 q 56 55 50 31 q 83 93 61 79 l 469 338 l 83 581 q 56 619 61 594 q 64 665 50 644 q 102 693 78 688 q 149 685 126 699 l 618 389 q 647 338 647 371 q 618 285 647 303 z "},"?":{"ha":825,"x_min":54,"x_max":769,"o":"m 583 425 q 538 400 560 410 q 490 362 507 382 q 474 301 474 342 q 456 258 474 276 q 413 240 438 240 q 368 258 386 240 q 350 301 350 276 q 365 385 350 350 q 403 447 379 421 q 458 492 426 472 q 524 532 490 513 q 615 618 582 564 q 647 739 647 672 q 628 829 647 786 q 578 904 610 872 q 503 955 546 936 q 413 974 460 974 q 321 955 364 974 q 246 904 278 936 q 196 830 214 872 q 178 739 178 788 q 160 694 178 713 q 115 676 142 676 q 72 694 90 676 q 54 739 54 713 q 82 878 54 813 q 158 992 110 943 q 272 1068 207 1040 q 413 1096 338 1096 q 551 1067 486 1096 q 664 990 615 1039 q 741 877 713 942 q 769 739 769 813 q 720 556 769 639 q 583 425 671 474 m 413 -21 q 354 3 378 -21 q 331 61 331 26 q 354 119 331 96 q 413 143 378 143 q 471 119 447 143 q 494 61 494 96 q 470 3 494 26 q 413 -21 446 -21 z "},"@":{"ha":824,"x_min":75,"x_max":749,"o":"m 749 40 q 737 12 749 24 q 708 0 725 0 l 413 0 q 281 26 343 0 q 174 99 219 53 q 101 206 128 144 q 75 336 75 267 q 102 469 75 407 q 179 581 129 532 q 294 653 231 629 q 428 674 357 676 q 554 642 496 671 q 656 567 613 614 q 724 459 699 521 q 749 328 749 397 q 736 265 749 294 q 701 214 724 236 q 650 179 679 192 q 588 167 621 167 l 540 167 q 503 193 513 167 q 413 167 461 167 q 346 180 376 167 q 292 216 315 193 q 255 270 268 239 q 242 336 242 301 q 255 402 242 371 q 292 457 268 433 q 346 494 315 481 q 413 507 376 507 q 503 481 461 507 q 540 507 513 507 q 570 495 558 507 q 582 465 582 483 l 582 249 l 588 249 q 643 272 619 249 q 667 328 667 296 q 648 428 667 381 q 597 510 629 475 q 519 567 564 546 q 424 592 475 589 q 236 521 314 596 q 157 336 157 446 q 177 237 157 283 q 232 156 197 190 q 313 102 267 122 q 413 82 360 82 l 708 82 q 737 70 725 82 q 749 40 749 58 m 500 336 q 474 399 500 372 q 413 425 449 425 q 350 399 376 425 q 324 336 324 372 q 350 274 324 300 q 413 249 376 249 q 474 274 449 249 q 500 336 500 300 z "},"A":{"ha":1007,"x_min":18,"x_max":989,"o":"m 946 -15 q 922 -21 935 -21 q 888 -11 904 -21 q 865 17 872 -1 l 756 275 l 251 275 l 142 17 q 108 -17 132 -7 q 61 -15 85 -26 q 28 18 38 -6 q 29 65 18 42 l 154 361 l 447 1047 q 469 1075 454 1065 q 504 1085 485 1085 q 538 1075 522 1085 q 560 1047 553 1065 q 769 556 665 800 q 979 65 874 313 q 979 18 989 42 q 946 -15 969 -6 m 504 865 l 304 399 l 703 399 l 504 865 z "},"B":{"ha":885,"x_min":115,"x_max":831,"o":"m 474 -21 l 178 -21 q 133 -3 151 -21 q 115 40 115 15 l 115 1014 q 133 1057 115 1039 q 178 1075 151 1075 l 381 1075 q 481 1055 433 1075 q 563 1000 528 1035 q 617 918 597 965 q 638 818 638 871 q 588 665 638 735 q 686 616 642 647 q 763 542 731 585 q 813 447 794 499 q 831 336 831 394 q 803 197 831 263 q 726 83 775 132 q 613 7 678 35 q 474 -21 547 -21 m 381 953 l 239 953 l 239 685 l 394 685 q 438 697 417 685 q 476 727 460 708 q 503 769 493 746 q 514 818 514 793 q 503 870 514 846 q 475 913 493 894 q 433 942 457 932 q 381 953 408 953 m 474 561 l 239 561 l 239 103 l 474 103 q 565 121 522 103 q 639 171 607 139 q 689 245 671 203 q 707 336 707 288 q 688 426 707 385 q 638 498 669 468 q 564 544 607 528 q 474 561 521 561 z "},"C":{"ha":1133,"x_min":85,"x_max":1049,"o":"m 639 -21 q 423 23 524 -21 q 247 142 322 67 q 128 317 172 217 q 85 533 85 418 q 128 747 85 647 q 247 919 172 846 q 423 1033 322 992 q 639 1075 524 1075 q 850 1034 750 1075 q 1029 914 950 993 q 1049 869 1049 894 q 1029 826 1049 844 q 986 808 1011 808 q 943 826 961 808 q 803 921 881 889 q 639 953 725 953 q 470 920 549 953 q 333 831 392 888 q 242 699 275 775 q 208 533 208 622 q 242 366 208 444 q 335 229 276 288 q 472 137 393 171 q 639 103 550 103 q 803 135 725 103 q 943 228 881 167 q 986 247 961 247 q 1029 228 1011 247 q 1049 185 1049 210 q 1029 142 1049 160 q 850 21 950 63 q 639 -21 750 -21 z "},"D":{"ha":1089,"x_min":110,"x_max":1004,"o":"m 518 -21 l 176 -21 q 144 -11 160 -21 q 122 14 129 -1 q 119 64 110 36 l 119 1014 q 138 1057 119 1039 q 182 1075 156 1075 l 517 1075 q 717 1028 626 1075 q 871 904 807 981 q 969 731 935 828 q 1004 533 1004 633 q 962 308 1004 410 q 851 133 919 206 q 694 19 782 60 q 518 -21 607 -21 m 517 953 l 243 953 l 243 101 l 518 101 q 663 140 597 101 q 778 239 729 178 q 853 378 826 300 q 881 533 881 456 q 854 688 881 613 q 780 823 828 764 q 665 917 732 882 q 517 953 597 953 z "},"E":{"ha":753,"x_min":115,"x_max":718,"o":"m 656 -21 l 178 -21 q 133 -3 151 -21 q 115 40 115 15 l 115 43 l 115 46 l 115 1014 q 133 1057 115 1039 q 178 1075 151 1075 l 656 1075 q 700 1057 682 1075 q 718 1014 718 1039 q 700 970 718 988 q 656 953 682 953 l 239 953 l 239 599 l 590 599 q 633 581 615 599 q 651 538 651 564 q 633 494 651 513 q 590 476 615 476 l 239 476 l 239 103 l 656 103 q 700 85 682 103 q 718 40 718 67 q 700 -3 718 15 q 656 -21 682 -21 z "},"F":{"ha":711,"x_min":115,"x_max":718,"o":"m 656 953 l 239 953 l 239 593 l 590 593 q 633 575 615 593 q 651 532 651 557 q 633 488 651 506 q 590 471 615 471 l 239 471 l 239 40 q 221 -3 239 15 q 178 -21 203 -21 q 133 -3 151 -21 q 115 40 115 15 l 115 1014 q 133 1057 115 1039 q 178 1075 151 1075 l 656 1075 q 700 1057 682 1075 q 718 1014 718 1039 q 700 970 718 988 q 656 953 682 953 z "},"G":{"ha":1165,"x_min":85,"x_max":1050,"o":"m 1032 142 q 852 21 953 63 q 639 -21 751 -21 q 423 23 524 -21 q 247 142 322 67 q 128 317 172 217 q 85 533 85 418 q 128 747 85 649 q 248 919 172 846 q 424 1033 324 992 q 639 1075 525 1075 q 852 1033 751 1075 q 1032 913 953 992 q 1050 869 1050 894 q 1032 826 1050 844 q 988 807 1013 807 q 944 826 963 807 q 804 920 882 888 q 639 953 726 953 q 472 921 550 953 q 335 833 393 889 q 242 699 276 776 q 208 533 208 622 q 242 366 208 444 q 335 229 276 288 q 472 137 393 171 q 639 103 550 103 q 793 131 719 103 q 926 211 867 158 l 926 472 l 646 472 q 601 490 619 472 q 583 533 583 508 q 601 578 583 560 q 646 596 619 596 l 988 596 q 1032 578 1014 596 q 1050 533 1050 560 l 1050 185 q 1032 142 1050 160 z "},"H":{"ha":1024,"x_min":115,"x_max":908,"o":"m 846 -21 q 803 -3 821 -21 q 785 40 785 15 l 785 511 l 239 511 l 239 40 q 221 -3 239 15 q 178 -21 203 -21 q 133 -3 151 -21 q 115 40 115 15 l 115 1014 q 133 1057 115 1039 q 178 1075 151 1075 q 221 1057 203 1075 q 239 1014 239 1039 l 239 635 l 785 635 l 785 1014 q 803 1057 785 1039 q 846 1075 821 1075 q 890 1057 872 1075 q 908 1014 908 1039 l 908 40 q 890 -3 908 15 q 846 -21 872 -21 z "},"I":{"ha":354,"x_min":115,"x_max":239,"o":"m 178 -21 q 133 -3 151 -21 q 115 40 115 15 l 115 1014 q 133 1057 115 1039 q 178 1075 151 1075 q 221 1057 203 1075 q 239 1014 239 1039 l 239 40 q 221 -3 239 15 q 178 -21 203 -21 z "},"J":{"ha":519,"x_min":39,"x_max":403,"o":"m 221 -21 q 150 -6 183 -21 q 92 33 117 8 q 53 90 68 57 q 39 161 39 124 q 57 205 39 188 q 100 222 75 222 q 144 205 126 222 q 163 161 163 188 q 180 120 163 138 q 221 103 197 103 q 263 120 246 103 q 281 161 281 138 l 281 1014 q 298 1057 281 1039 q 342 1075 315 1075 q 385 1057 367 1075 q 403 1014 403 1039 l 403 161 q 389 90 403 124 q 350 33 375 57 q 292 -6 325 8 q 221 -21 258 -21 z "},"K":{"ha":863,"x_min":115,"x_max":808,"o":"m 746 -21 q 704 -4 721 -21 l 238 443 l 238 40 q 220 -3 238 15 q 176 -21 203 -21 q 133 -3 151 -21 q 115 40 115 15 l 115 1014 q 133 1058 115 1040 q 176 1075 151 1075 q 220 1058 203 1075 q 238 1014 238 1040 l 238 611 l 704 1058 q 747 1076 722 1076 q 790 1057 772 1075 q 808 1013 808 1038 q 789 969 807 988 l 328 528 l 789 85 q 808 42 807 67 q 790 -1 808 17 q 746 -21 774 -21 z "},"L":{"ha":603,"x_min":115,"x_max":610,"o":"m 547 -21 l 176 -21 q 133 -3 151 -21 q 115 40 115 15 l 115 1014 q 133 1058 115 1040 q 176 1075 151 1075 q 220 1058 203 1075 q 238 1014 238 1040 l 238 101 l 547 101 q 592 83 574 101 q 610 40 610 65 q 592 -3 610 15 q 547 -21 574 -21 z "},"M":{"ha":1314,"x_min":115,"x_max":1199,"o":"m 1138 -21 q 1094 -3 1113 -21 q 1076 40 1076 15 l 1076 764 l 713 14 q 689 -11 704 -1 q 657 -21 674 -21 q 625 -11 640 -21 q 601 14 610 -1 l 238 764 l 238 40 q 220 -3 238 15 q 176 -21 203 -21 q 133 -3 151 -21 q 115 40 115 15 l 115 1014 q 133 1057 115 1039 q 176 1075 151 1075 q 232 1042 214 1075 l 657 179 l 1082 1042 q 1138 1075 1100 1075 q 1181 1057 1163 1075 q 1199 1014 1199 1039 l 1199 40 q 1181 -3 1199 15 q 1138 -21 1163 -21 z "},"N":{"ha":968,"x_min":115,"x_max":853,"o":"m 792 -21 q 739 8 757 -21 l 238 803 l 238 40 q 220 -3 238 15 q 176 -21 203 -21 q 133 -3 151 -21 q 115 40 115 15 l 115 1014 q 133 1057 115 1039 q 176 1075 151 1075 q 229 1047 211 1075 l 731 253 l 731 1014 q 748 1057 731 1039 q 792 1075 765 1075 q 835 1057 817 1075 q 853 1014 853 1039 l 853 40 q 835 -3 853 15 q 792 -21 817 -21 z "},"O":{"ha":1267,"x_min":85,"x_max":1181,"o":"m 633 -21 q 419 22 519 -21 q 245 140 319 65 q 128 314 171 214 q 85 528 85 414 q 128 740 85 640 q 245 915 171 840 q 419 1032 319 989 q 633 1075 519 1075 q 846 1032 746 1075 q 1020 915 946 989 q 1138 740 1094 840 q 1181 528 1181 640 q 1138 314 1181 414 q 1020 140 1094 214 q 846 22 946 65 q 633 -21 746 -21 m 633 953 q 468 919 546 953 q 332 828 390 886 q 240 693 274 771 q 207 528 207 615 q 240 363 207 440 q 332 226 274 285 q 468 135 390 168 q 633 101 546 101 q 799 135 721 101 q 934 226 876 168 q 1025 363 992 285 q 1058 528 1058 440 q 1025 693 1058 615 q 934 828 992 771 q 799 919 876 886 q 633 953 721 953 z "},"P":{"ha":754,"x_min":115,"x_max":731,"o":"m 422 461 l 239 461 l 239 40 q 221 -3 239 15 q 178 -21 203 -21 q 133 -3 151 -21 q 115 40 115 15 l 115 1014 q 133 1057 115 1039 q 178 1075 151 1075 l 422 1075 q 542 1051 486 1075 q 640 985 599 1026 q 706 888 682 943 q 731 768 731 832 q 706 649 731 704 q 640 551 682 593 q 542 485 599 510 q 422 461 486 461 m 422 953 l 239 953 l 239 585 l 422 585 q 494 599 460 585 q 553 639 528 614 q 592 697 578 664 q 607 768 607 731 q 592 840 607 806 q 553 899 578 874 q 494 938 528 924 q 422 953 460 953 z "},"Q":{"ha":1275,"x_min":85,"x_max":1190,"o":"m 1129 -21 q 1086 -3 1104 -21 l 979 103 q 820 12 908 44 q 633 -21 732 -21 q 419 22 519 -21 q 245 140 319 65 q 128 314 171 214 q 85 528 85 414 q 128 740 85 640 q 245 915 171 840 q 419 1032 319 989 q 633 1075 519 1075 q 846 1032 746 1075 q 1020 915 946 989 q 1138 740 1094 840 q 1181 528 1181 640 q 1150 347 1181 432 q 1065 192 1119 263 l 1172 85 q 1190 40 1190 67 q 1172 -3 1190 15 q 1129 -21 1154 -21 m 633 953 q 468 919 546 953 q 332 828 390 886 q 240 693 274 771 q 207 528 207 615 q 240 363 207 440 q 332 226 274 285 q 468 135 390 168 q 633 101 546 101 q 773 125 707 101 q 893 190 839 149 l 706 378 q 688 421 688 396 q 706 464 688 446 q 749 482 724 482 q 793 464 775 482 l 978 279 q 1038 394 1017 332 q 1058 528 1058 457 q 1025 693 1058 615 q 934 828 992 771 q 799 919 876 886 q 633 953 721 953 z "},"R":{"ha":754,"x_min":115,"x_max":731,"o":"m 422 461 l 406 461 l 424 493 l 675 72 q 683 40 683 57 q 665 -3 683 15 q 622 -21 647 -21 q 591 -12 606 -21 q 568 10 576 -4 l 299 461 l 239 461 l 239 40 q 221 -3 239 15 q 178 -21 203 -21 q 133 -3 151 -21 q 115 40 115 15 l 115 1014 q 133 1057 115 1039 q 178 1075 151 1075 l 422 1075 q 542 1051 486 1075 q 640 985 599 1026 q 706 888 682 943 q 731 768 731 832 q 706 649 731 704 q 640 551 682 593 q 542 485 599 510 q 422 461 486 461 m 422 953 l 239 953 l 239 585 l 422 585 q 494 599 460 585 q 553 639 528 614 q 592 697 578 664 q 607 768 607 731 q 592 840 607 806 q 553 899 578 874 q 494 938 528 924 q 422 953 460 953 z "},"S":{"ha":785,"x_min":85,"x_max":700,"o":"m 392 -21 q 272 3 328 -21 q 175 69 217 28 q 109 167 133 111 q 85 286 85 222 q 103 331 85 313 q 147 349 121 349 q 190 331 172 349 q 208 286 208 313 q 223 215 208 249 q 263 157 238 182 q 321 117 288 132 q 392 103 354 103 q 463 117 429 103 q 522 157 497 132 q 562 215 547 182 q 576 286 576 249 q 558 362 576 332 q 508 414 540 392 q 474 434 493 425 q 433 453 454 443 q 390 469 413 461 q 344 486 368 478 q 252 524 299 503 q 169 576 206 544 q 108 653 132 607 q 85 768 85 700 q 109 888 85 832 q 175 985 133 943 q 272 1051 217 1026 q 392 1075 328 1075 q 512 1051 456 1075 q 610 985 568 1026 q 676 888 651 943 q 700 768 700 832 q 682 725 700 743 q 638 707 664 707 q 594 725 613 707 q 576 768 576 743 q 562 840 576 806 q 522 899 547 874 q 463 938 497 924 q 392 953 429 953 q 321 938 354 953 q 263 899 288 924 q 223 840 238 874 q 208 768 208 806 q 226 699 208 726 q 275 650 243 671 q 350 613 308 629 q 394 596 372 604 q 440 579 417 588 q 533 541 486 563 q 616 487 579 519 q 676 406 653 454 q 700 286 700 357 q 676 167 700 222 q 610 69 651 111 q 512 3 568 28 q 392 -21 456 -21 z "},"T":{"ha":713,"x_min":8,"x_max":704,"o":"m 643 953 l 418 953 l 418 40 q 400 -3 418 15 q 357 -21 382 -21 q 313 -3 331 -21 q 294 40 294 15 l 294 953 l 69 953 q 26 970 44 953 q 8 1014 8 988 q 26 1057 8 1039 q 69 1075 44 1075 l 643 1075 q 686 1057 668 1075 q 704 1014 704 1039 q 686 970 704 988 q 643 953 668 953 z "},"U":{"ha":1076,"x_min":115,"x_max":961,"o":"m 538 -21 q 374 13 450 -21 q 240 103 297 46 q 149 237 182 160 q 115 401 115 314 l 115 1014 q 133 1057 115 1039 q 178 1075 151 1075 q 221 1057 203 1075 q 239 1014 239 1039 l 239 401 q 263 285 239 339 q 326 190 286 231 q 422 126 367 150 q 538 103 476 103 q 654 126 600 103 q 749 190 708 150 q 814 285 790 231 q 838 401 838 340 l 838 1014 q 856 1057 838 1039 q 899 1075 874 1075 q 943 1057 925 1075 q 961 1014 961 1039 l 961 401 q 928 237 961 314 q 837 103 894 160 q 702 13 779 46 q 538 -21 625 -21 z "},"V":{"ha":933,"x_min":8,"x_max":925,"o":"m 919 1000 l 524 18 q 501 -10 517 0 q 467 -21 486 -21 q 432 -10 447 -21 q 410 18 417 0 l 13 1000 q 8 1024 8 1010 q 26 1067 8 1049 q 69 1085 44 1085 q 105 1074 89 1085 q 128 1046 121 1064 l 467 206 l 806 1046 q 828 1074 813 1064 q 863 1085 843 1085 q 907 1067 889 1085 q 925 1024 925 1049 q 919 1000 925 1010 z "},"W":{"ha":1499,"x_min":-35,"x_max":1533,"o":"m 1363 540 q 1297 365 1329 451 q 1238 206 1265 278 q 1193 85 1211 135 q 1169 19 1175 35 q 1147 -10 1163 1 q 1111 -21 1131 -21 q 1076 -10 1092 -21 q 1053 19 1060 1 l 750 844 l 446 19 q 424 -10 439 1 q 389 -21 408 -21 q 353 -10 369 -21 q 331 19 338 1 q 306 85 325 35 q 261 206 288 135 q 203 365 235 278 q 138 540 171 451 q 74 712 106 628 q 19 863 43 796 q -20 974 -6 931 q -35 1024 -35 1018 q -17 1067 -35 1049 q 26 1085 1 1085 q 62 1074 46 1085 q 85 1044 78 1063 l 389 219 l 692 1044 q 715 1074 699 1063 q 750 1085 731 1085 q 785 1074 769 1085 q 807 1044 800 1063 l 1111 219 l 1414 1044 q 1437 1074 1421 1063 q 1472 1085 1453 1085 q 1515 1067 1497 1085 q 1533 1024 1533 1049 q 1519 974 1533 1018 q 1480 863 1504 931 q 1425 712 1456 796 q 1363 540 1394 628 z "},"X":{"ha":965,"x_min":8,"x_max":957,"o":"m 896 -21 q 849 1 868 -21 l 483 436 l 117 1 q 69 -21 99 -21 q 26 -3 44 -21 q 8 40 8 15 q 22 81 8 63 l 403 532 l 22 983 q 8 1024 8 1001 q 26 1067 8 1049 q 69 1085 44 1085 q 117 1063 99 1085 l 483 628 l 849 1063 q 896 1085 868 1085 q 940 1067 922 1085 q 957 1024 957 1049 q 943 983 957 999 l 564 532 l 943 81 q 957 40 957 65 q 940 -3 957 15 q 896 -21 922 -21 z "},"Y":{"ha":786,"x_min":8,"x_max":778,"o":"m 769 983 l 454 419 l 454 40 q 436 -3 454 15 q 393 -21 418 -21 q 350 -3 368 -21 q 332 40 332 15 l 332 419 l 17 983 q 8 1014 8 997 q 26 1057 8 1039 q 69 1075 44 1075 q 101 1067 86 1075 q 124 1044 115 1058 l 393 563 l 663 1044 q 685 1067 671 1058 q 717 1075 700 1075 q 760 1057 742 1075 q 778 1014 778 1039 q 769 983 778 997 z "},"Z":{"ha":760,"x_min":24,"x_max":736,"o":"m 675 -21 l 85 -21 q 42 -3 60 -21 q 24 40 24 15 q 32 72 24 57 l 565 953 l 85 953 q 42 971 60 953 q 24 1014 24 989 q 42 1057 24 1039 q 85 1075 60 1075 l 675 1075 q 718 1057 700 1075 q 736 1014 736 1039 q 728 982 736 996 l 194 103 l 675 103 q 718 85 700 103 q 736 40 736 67 q 718 -3 736 15 q 675 -21 700 -21 z "},"[":{"ha":508,"x_min":54,"x_max":453,"o":"m 392 -335 l 115 -335 q 72 -317 90 -335 q 54 -274 54 -299 l 54 1014 q 72 1057 54 1039 q 115 1075 90 1075 l 392 1075 q 435 1057 418 1075 q 453 1014 453 1039 q 435 970 453 988 q 392 953 418 953 l 178 953 l 178 -211 l 392 -211 q 435 -229 418 -211 q 453 -274 453 -247 q 435 -317 453 -299 q 392 -335 418 -335 z "},"\\":{"ha":631,"x_min":-12,"x_max":643,"o":"m 599 -333 q 575 -337 588 -337 q 541 -328 557 -337 q 518 -299 525 -318 l -3 1000 q -2 1047 -12 1024 q 32 1081 8 1071 q 78 1080 56 1090 q 113 1046 101 1069 l 632 -253 q 633 -300 643 -276 q 599 -333 622 -324 z "},"]":{"ha":508,"x_min":54,"x_max":453,"o":"m 392 -335 l 115 -335 q 72 -317 90 -335 q 54 -274 54 -299 q 72 -229 54 -247 q 115 -211 90 -211 l 331 -211 l 331 953 l 115 953 q 72 970 90 953 q 54 1014 54 988 q 72 1057 54 1039 q 115 1075 90 1075 l 392 1075 q 435 1057 418 1075 q 453 1014 453 1039 l 453 -274 q 435 -317 453 -299 q 392 -335 418 -335 z "},"^":{"ha":732,"x_min":4,"x_max":724,"o":"m 694 503 q 648 494 672 489 q 610 522 624 500 l 365 908 l 122 522 q 83 494 108 500 q 38 503 58 489 q 10 541 15 517 q 18 588 4 565 l 314 1057 q 365 1085 331 1085 q 418 1057 401 1085 l 714 588 q 724 554 724 574 q 717 525 724 539 q 694 503 710 511 z "},"_":{"ha":657,"x_min":24,"x_max":633,"o":"m 572 -21 l 85 -21 q 42 -3 60 -21 q 24 40 24 15 q 42 85 24 67 q 85 103 60 103 l 572 103 q 615 85 597 103 q 633 40 633 67 q 615 -3 633 15 q 572 -21 597 -21 z "},"`":{"ha":294,"x_min":24,"x_max":271,"o":"m 210 863 q 167 881 183 863 l 42 1006 q 24 1049 24 1024 q 42 1092 24 1074 q 85 1110 60 1110 q 128 1092 110 1110 l 253 967 q 271 924 271 950 q 253 881 271 899 q 210 863 235 863 z "},"a":{"ha":885,"x_min":54,"x_max":769,"o":"m 708 -21 q 664 -3 682 -21 q 646 40 646 15 l 646 67 q 538 2 597 25 q 413 -21 478 -21 q 274 8 339 -21 q 160 85 208 36 q 83 198 111 133 q 54 336 54 263 q 83 475 54 410 q 160 589 111 540 q 274 666 208 638 q 413 694 339 694 q 538 672 478 694 q 646 607 597 649 l 646 633 q 664 676 646 658 q 708 694 682 694 q 751 676 733 694 q 769 633 769 658 l 769 40 q 751 -3 769 15 q 708 -21 733 -21 m 413 571 q 322 552 364 571 q 247 501 279 533 q 197 427 215 469 q 178 336 178 385 q 197 245 178 288 q 247 171 215 203 q 322 121 279 139 q 413 103 364 103 q 503 121 461 103 q 578 171 546 139 q 628 245 610 203 q 646 336 646 288 q 628 427 646 385 q 578 501 610 469 q 503 552 546 533 q 413 571 461 571 z "},"b":{"ha":885,"x_min":108,"x_max":831,"o":"m 474 -21 q 347 2 407 -21 q 239 67 288 25 l 239 40 q 221 -3 239 15 q 178 -21 203 -21 q 133 -3 151 -21 q 115 40 115 15 l 110 1014 q 127 1057 108 1039 q 171 1075 146 1075 q 215 1057 197 1075 q 232 1014 232 1039 l 238 606 q 347 672 286 649 q 474 694 407 694 q 613 666 547 694 q 726 589 678 638 q 803 475 775 540 q 831 336 831 410 q 803 198 831 263 q 726 85 775 133 q 613 8 678 36 q 474 -21 547 -21 m 474 571 q 383 552 425 571 q 308 501 340 533 q 258 427 276 469 q 239 336 239 385 q 258 245 239 288 q 308 171 276 203 q 383 121 340 139 q 474 103 425 103 q 565 121 522 103 q 639 171 607 139 q 689 245 671 203 q 707 336 707 288 q 689 427 707 385 q 639 501 671 469 q 565 552 607 533 q 474 571 522 571 z "},"c":{"ha":725,"x_min":54,"x_max":683,"o":"m 621 485 q 597 490 607 485 q 579 501 588 494 q 501 553 539 536 q 413 571 464 571 q 322 552 364 571 q 247 501 279 533 q 197 427 215 469 q 178 336 178 385 q 197 245 178 288 q 247 171 215 203 q 322 121 279 139 q 413 103 364 103 q 501 120 464 103 q 579 172 539 138 q 597 184 588 179 q 621 189 607 189 q 665 171 647 189 q 683 128 683 153 q 678 103 683 114 q 665 85 672 93 q 612 40 642 60 q 549 6 582 19 q 481 -14 515 -7 q 413 -21 446 -21 q 274 8 339 -21 q 160 85 208 36 q 83 198 111 133 q 54 336 54 263 q 83 475 54 410 q 160 589 111 540 q 274 666 208 638 q 413 694 339 694 q 481 688 446 694 q 549 667 515 681 q 612 634 582 654 q 665 589 642 614 q 678 570 672 581 q 683 546 683 560 q 665 503 683 521 q 621 485 647 485 z "},"d":{"ha":885,"x_min":54,"x_max":769,"o":"m 708 -21 q 664 -3 682 -21 q 646 40 646 15 l 646 67 q 538 2 597 25 q 413 -21 478 -21 q 274 8 339 -21 q 160 85 208 36 q 83 198 111 133 q 54 336 54 263 q 83 475 54 410 q 160 589 111 540 q 274 666 208 638 q 413 694 339 694 q 538 672 478 694 q 646 606 597 649 l 646 1014 q 664 1057 646 1039 q 708 1075 682 1075 q 751 1057 733 1075 q 769 1014 769 1039 l 769 40 q 751 -3 769 15 q 708 -21 733 -21 m 413 571 q 322 552 364 571 q 247 501 279 533 q 197 427 215 469 q 178 336 178 385 q 197 245 178 288 q 247 172 215 203 q 322 122 279 140 q 413 103 364 103 q 503 122 460 103 q 577 172 546 140 q 627 245 608 203 q 646 336 646 288 q 627 427 646 385 q 577 501 608 469 q 503 552 546 533 q 413 571 460 571 z "},"e":{"ha":822,"x_min":54,"x_max":769,"o":"m 707 304 l 181 304 q 206 224 186 261 q 258 160 226 188 q 328 118 289 133 q 413 103 368 103 q 460 107 439 103 q 501 120 482 111 q 538 142 519 129 q 579 172 557 156 q 597 184 588 179 q 621 189 606 189 q 665 171 647 189 q 683 128 683 153 q 678 103 683 113 q 665 85 672 93 q 613 40 643 60 q 549 6 583 19 q 480 -14 515 -7 q 413 -21 444 -21 q 274 8 339 -21 q 160 85 208 36 q 83 198 111 133 q 54 336 54 263 q 83 475 54 410 q 160 589 111 540 q 274 666 208 638 q 413 694 339 694 q 546 671 483 694 q 657 603 608 647 q 735 499 706 560 q 768 367 764 439 q 751 322 769 339 q 707 304 732 304 m 413 571 q 282 531 340 571 q 196 428 224 492 l 628 428 q 542 532 601 493 q 413 571 483 571 z "},"f":{"ha":533,"x_min":24,"x_max":532,"o":"m 471 571 l 292 571 l 292 40 q 274 -3 292 15 q 231 -21 256 -21 q 186 -3 204 -21 q 168 40 168 15 l 168 571 l 85 571 q 42 589 60 571 q 24 633 24 607 q 42 676 24 658 q 85 694 60 694 l 168 694 l 168 893 q 183 964 168 931 q 222 1022 197 997 q 279 1060 246 1046 q 350 1075 313 1075 q 421 1060 388 1075 q 478 1022 454 1046 q 517 964 503 997 q 532 893 532 931 q 514 850 532 868 q 471 832 496 832 q 428 850 446 832 q 410 893 410 868 q 392 935 410 917 q 350 953 374 953 q 309 935 326 953 q 292 893 292 917 l 292 694 l 471 694 q 514 676 496 694 q 532 633 532 658 q 514 589 532 607 q 471 571 496 571 z "},"g":{"ha":885,"x_min":54,"x_max":769,"o":"m 413 -319 q 322 -308 367 -319 q 235 -273 276 -296 q 160 -217 194 -250 q 104 -144 126 -185 q 99 -130 101 -137 q 96 -114 96 -122 q 114 -70 96 -89 q 158 -51 132 -51 q 189 -60 178 -51 q 210 -79 200 -68 q 217 -90 213 -85 q 224 -100 221 -94 l 236 -117 q 315 -175 268 -154 q 413 -196 363 -196 q 503 -177 460 -196 q 577 -126 546 -158 q 627 -52 608 -94 q 646 39 646 -10 l 646 68 q 538 2 597 25 q 413 -21 478 -21 q 274 8 339 -21 q 160 85 208 36 q 83 199 111 133 q 54 338 54 264 q 83 476 54 411 q 160 589 111 540 q 274 666 208 638 q 413 694 339 694 q 538 672 478 694 q 646 607 597 649 l 646 633 q 664 676 646 658 q 708 694 682 694 q 751 676 733 694 q 769 633 769 658 l 769 39 q 741 -100 769 -35 q 664 -214 713 -165 q 551 -291 615 -262 q 413 -319 486 -319 m 413 571 q 322 552 364 571 q 247 502 279 533 q 197 428 215 471 q 178 338 178 385 q 197 247 178 289 q 247 172 215 204 q 322 122 279 140 q 413 103 364 103 q 503 122 460 103 q 577 172 546 140 q 627 247 608 204 q 646 338 646 289 q 627 428 646 385 q 577 502 608 471 q 503 552 546 533 q 413 571 460 571 z "},"h":{"ha":782,"x_min":115,"x_max":697,"o":"m 636 -21 q 592 -3 610 -21 q 574 40 574 15 l 574 404 q 560 469 574 439 q 524 522 547 499 q 472 558 501 544 q 407 571 442 571 q 343 558 374 571 q 290 522 313 544 q 255 469 268 499 q 242 404 242 439 q 239 393 242 399 l 239 40 q 221 -3 239 15 q 178 -21 203 -21 q 133 -3 151 -21 q 115 40 115 15 l 115 1014 q 133 1057 115 1039 q 178 1075 151 1075 q 221 1057 203 1075 q 239 1014 239 1039 l 239 640 q 319 681 275 667 q 407 694 363 694 q 519 672 467 694 q 612 609 572 649 q 674 517 651 569 q 697 404 697 464 l 697 40 q 679 -3 697 15 q 636 -21 661 -21 z "},"i":{"ha":394,"x_min":115,"x_max":279,"o":"m 197 789 q 140 813 164 789 q 115 871 115 838 q 140 928 115 906 q 197 951 164 951 q 256 928 232 951 q 279 871 279 906 q 255 813 279 838 q 197 789 231 789 m 197 -21 q 154 -3 172 -21 q 136 40 136 15 l 136 633 q 154 676 136 658 q 197 694 172 694 q 241 676 222 694 q 260 633 260 658 l 260 40 q 241 -3 260 15 q 197 -21 222 -21 z "},"j":{"ha":371,"x_min":-129,"x_max":257,"o":"m 175 789 q 117 813 142 789 q 93 871 93 838 q 117 928 93 906 q 175 951 140 951 q 233 928 208 951 q 257 871 257 906 q 233 813 257 838 q 175 789 208 789 m 53 -318 q -18 -303 15 -318 q -76 -265 -51 -289 q -115 -207 -100 -240 q -129 -136 -129 -174 q -111 -93 -129 -111 q -68 -75 -93 -75 q -25 -93 -43 -75 q -7 -136 -7 -111 q 11 -177 -7 -160 q 53 -194 29 -194 q 94 -177 76 -194 q 111 -136 111 -160 l 111 633 q 129 676 111 658 q 172 694 147 694 q 217 676 199 694 q 235 633 235 658 l 235 -136 q 220 -207 235 -174 q 181 -265 206 -240 q 124 -303 157 -289 q 53 -318 90 -318 z "},"k":{"ha":635,"x_min":115,"x_max":611,"o":"m 592 592 l 328 339 l 592 85 q 611 40 611 68 q 593 -3 611 15 q 550 -21 575 -21 q 507 -4 524 -21 l 238 254 l 238 40 q 219 -3 238 15 q 176 -21 201 -21 q 133 -3 151 -21 q 115 40 115 15 l 115 1014 q 133 1057 115 1039 q 176 1075 151 1075 q 219 1057 201 1075 q 238 1014 238 1039 l 238 422 l 507 681 q 550 697 524 697 q 593 679 575 697 q 611 636 611 661 q 592 592 611 611 z "},"l":{"ha":354,"x_min":115,"x_max":238,"o":"m 176 -21 q 133 -3 151 -21 q 115 40 115 15 l 115 1014 q 133 1057 115 1039 q 176 1075 151 1075 q 219 1057 201 1075 q 238 1014 238 1039 l 238 40 q 219 -3 238 15 q 176 -21 201 -21 z "},"m":{"ha":1114,"x_min":115,"x_max":1028,"o":"m 236 653 q 376 694 301 694 q 486 670 435 694 q 574 603 538 646 q 661 670 610 646 q 769 694 713 694 q 870 674 824 694 q 952 619 917 654 q 1008 536 988 583 q 1028 436 1028 489 l 1028 40 q 1010 -3 1028 15 q 967 -21 992 -21 q 924 -3 942 -21 q 906 40 906 15 l 906 436 q 895 488 906 464 q 866 531 885 513 q 822 560 847 550 q 769 571 797 571 q 717 560 742 571 q 674 531 693 550 q 645 488 656 513 q 635 436 635 464 l 635 40 q 617 -3 635 15 q 574 -21 599 -21 q 529 -3 547 -21 q 511 40 511 15 l 511 436 q 501 488 511 464 q 472 531 490 513 q 428 560 453 550 q 376 571 404 571 q 324 560 349 571 q 281 531 299 550 q 252 488 263 513 q 242 436 242 464 q 239 424 242 432 l 239 40 q 221 -3 239 15 q 178 -21 203 -21 q 133 -3 151 -21 q 115 40 115 15 l 115 642 q 133 686 115 668 q 178 704 151 704 q 236 653 228 704 z "},"n":{"ha":719,"x_min":115,"x_max":635,"o":"m 236 653 q 376 694 301 694 q 476 674 429 694 q 559 619 524 654 q 615 536 594 583 q 635 436 635 489 l 635 40 q 617 -3 635 15 q 574 -21 599 -21 q 529 -3 547 -21 q 511 40 511 15 l 511 436 q 501 488 511 464 q 472 531 490 513 q 428 560 453 550 q 376 571 404 571 q 324 560 349 571 q 281 531 299 550 q 252 488 263 513 q 242 436 242 464 q 239 424 242 432 l 239 40 q 221 -3 239 15 q 178 -21 203 -21 q 133 -3 151 -21 q 115 40 115 15 l 115 642 q 133 686 115 668 q 178 704 151 704 q 236 653 228 704 z "},"o":{"ha":824,"x_min":54,"x_max":769,"o":"m 413 -21 q 274 8 339 -21 q 160 85 208 36 q 83 198 111 133 q 54 336 54 263 q 83 475 54 410 q 160 589 111 540 q 274 666 208 638 q 413 694 339 694 q 551 666 486 694 q 664 589 615 638 q 741 475 713 540 q 769 336 769 410 q 741 198 769 263 q 664 85 713 133 q 551 8 615 36 q 413 -21 486 -21 m 413 571 q 322 552 364 571 q 247 501 279 533 q 197 427 215 469 q 178 336 178 385 q 197 245 178 288 q 247 171 215 203 q 322 121 279 139 q 413 103 364 103 q 503 121 461 103 q 578 171 546 139 q 628 245 610 203 q 646 336 646 288 q 627 427 646 385 q 577 501 608 469 q 503 552 546 533 q 413 571 460 571 z "},"p":{"ha":885,"x_min":115,"x_max":831,"o":"m 474 -21 q 347 2 407 -21 q 239 67 288 25 l 239 -271 q 221 -315 239 -297 q 178 -333 203 -333 q 133 -315 151 -333 q 115 -271 115 -297 l 115 633 q 133 676 115 658 q 178 694 151 694 q 221 676 203 694 q 239 633 239 658 l 239 607 q 347 672 288 649 q 474 694 407 694 q 613 666 547 694 q 726 589 678 638 q 803 476 775 540 q 831 338 831 411 q 803 199 831 264 q 726 85 775 133 q 613 8 678 36 q 474 -21 547 -21 m 474 571 q 383 553 425 571 q 308 503 340 535 q 258 428 276 471 q 239 338 239 386 q 258 247 239 289 q 308 172 276 204 q 383 122 340 140 q 474 103 425 103 q 565 122 522 103 q 639 172 607 140 q 689 247 671 204 q 707 338 707 289 q 689 428 707 386 q 639 503 671 471 q 565 553 607 535 q 474 571 522 571 z "},"q":{"ha":885,"x_min":54,"x_max":769,"o":"m 708 -333 q 664 -315 682 -333 q 646 -271 646 -297 l 646 67 q 538 2 597 25 q 413 -21 478 -21 q 274 8 339 -21 q 160 85 208 36 q 83 199 111 133 q 54 338 54 264 q 83 476 54 411 q 160 589 111 540 q 274 666 208 638 q 413 694 339 694 q 538 672 478 694 q 646 607 597 649 l 646 633 q 664 676 646 658 q 708 694 682 694 q 751 676 733 694 q 769 633 769 658 l 769 -271 q 751 -315 769 -297 q 708 -333 733 -333 m 413 571 q 322 553 364 571 q 247 503 279 535 q 197 428 215 471 q 178 338 178 386 q 197 247 178 289 q 247 172 215 204 q 322 122 279 140 q 413 103 364 103 q 503 122 460 103 q 577 172 546 140 q 627 247 608 204 q 646 338 646 289 q 627 428 646 386 q 577 503 608 471 q 503 553 546 535 q 413 571 460 571 z "},"r":{"ha":543,"x_min":115,"x_max":524,"o":"m 235 654 q 284 684 257 674 q 339 694 311 694 q 451 661 407 694 q 518 565 494 628 q 522 536 524 551 q 513 508 521 521 q 492 488 506 496 q 461 481 479 481 q 434 488 446 481 q 414 504 422 494 q 402 522 407 513 q 392 540 397 531 q 370 565 382 556 q 331 572 358 575 q 296 561 313 571 q 267 538 279 551 q 247 506 254 524 q 239 471 239 489 l 239 40 q 221 -3 239 15 q 178 -21 203 -21 q 133 -3 151 -21 q 115 40 115 15 l 115 633 q 133 676 115 658 q 178 694 151 694 q 213 683 197 694 q 235 654 228 672 z "},"s":{"ha":572,"x_min":56,"x_max":517,"o":"m 293 -21 q 209 -7 251 -21 q 133 33 167 7 q 77 99 99 60 q 56 186 56 138 q 74 229 56 211 q 117 247 92 247 q 161 229 143 247 q 179 186 179 211 q 214 124 179 146 q 293 103 249 103 q 367 123 342 103 q 393 189 393 143 q 383 233 393 217 q 353 263 372 250 q 330 274 342 269 q 304 285 318 279 q 276 294 290 290 q 246 304 261 299 q 184 327 215 314 q 127 361 153 340 q 85 414 101 382 q 69 494 69 446 q 86 576 69 539 q 132 639 103 613 q 199 680 161 665 q 279 694 238 694 q 359 680 321 694 q 426 639 397 665 q 472 576 454 613 q 489 494 489 539 q 471 451 489 469 q 426 433 453 433 q 383 451 401 433 q 365 494 365 469 q 340 550 365 529 q 279 571 315 571 q 218 550 243 571 q 193 494 193 529 q 232 443 193 463 q 282 422 254 431 q 311 411 296 415 q 342 400 326 407 q 403 373 372 389 q 460 333 435 357 q 501 274 485 308 q 517 189 517 239 q 499 100 517 139 q 451 34 482 61 q 380 -7 421 7 q 293 -21 339 -21 z "},"t":{"ha":529,"x_min":28,"x_max":501,"o":"m 439 571 l 326 571 l 326 40 q 308 -3 326 15 q 264 -21 290 -21 q 221 -3 239 -21 q 203 40 203 15 l 203 571 l 89 571 q 46 589 64 571 q 28 632 28 607 q 46 676 28 658 q 89 694 64 694 l 203 694 l 203 899 q 221 942 203 925 q 264 960 239 960 q 308 942 290 960 q 326 899 326 925 l 326 694 l 439 694 q 483 676 465 694 q 501 632 501 658 q 483 589 501 607 q 439 571 465 571 z "},"u":{"ha":722,"x_min":85,"x_max":636,"o":"m 361 -18 q 253 3 304 -18 q 165 63 203 25 q 106 151 128 100 q 85 258 85 201 l 85 626 q 103 671 85 653 q 147 689 121 689 q 190 671 172 689 q 208 626 208 653 l 208 258 q 220 199 208 226 q 253 150 232 171 q 301 117 274 129 q 361 106 329 106 q 419 117 392 106 q 468 150 447 129 q 501 199 489 171 q 514 258 514 226 l 514 626 q 532 671 514 653 q 575 689 550 689 q 618 671 600 689 q 636 626 636 653 l 636 258 q 615 151 636 201 q 556 63 593 100 q 468 3 518 25 q 361 -18 418 -18 z "},"v":{"ha":635,"x_min":24,"x_max":611,"o":"m 606 610 l 375 18 q 352 -10 368 0 q 317 -21 336 -21 q 283 -10 299 -21 q 260 18 267 0 l 28 610 q 24 633 24 619 q 42 676 24 658 q 85 694 60 694 q 120 684 104 694 q 143 656 136 674 l 317 185 l 492 656 q 515 684 499 674 q 549 694 531 694 q 593 676 575 694 q 611 633 611 658 q 606 610 611 624 z "},"w":{"ha":1113,"x_min":24,"x_max":1089,"o":"m 1083 610 l 849 18 q 826 -10 842 0 q 792 -21 811 -21 q 757 -10 772 -21 q 735 18 742 0 l 556 467 l 378 18 q 356 -10 371 0 q 321 -21 340 -21 q 286 -10 301 -21 q 264 18 271 0 l 28 610 q 24 633 24 619 q 42 676 24 658 q 85 694 60 694 q 120 684 104 694 q 143 656 136 674 l 321 183 l 499 656 q 522 684 506 674 q 556 694 538 694 q 591 684 575 694 q 614 656 607 674 l 792 183 l 969 656 q 992 684 976 674 q 1026 694 1007 694 q 1071 676 1053 694 q 1089 633 1089 658 q 1083 610 1089 624 z "},"x":{"ha":653,"x_min":24,"x_max":629,"o":"m 568 -21 q 542 -15 556 -21 q 519 3 529 -10 l 326 261 l 133 3 q 85 -21 115 -21 q 42 -3 60 -21 q 24 40 24 15 q 38 81 24 63 l 246 346 l 38 593 q 24 633 24 611 q 42 676 24 658 q 85 694 60 694 q 133 672 115 694 l 326 429 l 521 672 q 568 694 539 694 q 611 676 593 694 q 629 633 629 658 q 615 593 629 608 l 407 346 l 615 81 q 629 40 629 63 q 611 -3 629 15 q 568 -21 593 -21 z "},"y":{"ha":635,"x_min":24,"x_max":611,"o":"m 606 610 l 374 35 l 253 -260 q 231 -288 246 -278 q 196 -299 215 -299 q 153 -281 171 -299 q 135 -237 135 -262 q 139 -214 135 -225 l 250 58 l 28 610 q 24 633 24 619 q 42 676 24 658 q 85 694 60 694 q 120 684 104 694 q 143 656 136 674 l 317 211 l 492 656 q 514 684 499 674 q 549 694 529 694 q 593 676 575 694 q 611 633 611 658 q 606 610 611 619 z "},"z":{"ha":683,"x_min":24,"x_max":660,"o":"m 597 -21 l 85 -21 q 42 -3 60 -21 q 24 40 24 15 q 39 81 24 63 l 463 571 l 85 571 q 42 589 60 571 q 24 632 24 607 q 42 676 24 658 q 85 694 60 694 l 597 694 q 642 676 624 694 q 660 633 660 658 q 644 592 660 610 l 221 103 l 597 103 q 642 85 624 103 q 660 40 660 67 q 642 -3 660 15 q 597 -21 624 -21 z "},"{":{"ha":521,"x_min":24,"x_max":467,"o":"m 406 -335 l 354 -335 q 253 -310 301 -335 q 175 -242 206 -286 q 138 -144 144 -197 q 149 -42 131 -92 l 174 26 q 176 154 197 90 q 97 254 154 218 l 53 283 q 24 335 24 301 q 53 388 24 367 l 104 419 q 182 517 160 456 q 185 640 204 578 l 135 799 q 128 903 118 851 q 167 994 138 954 q 242 1059 196 1035 q 343 1083 288 1083 l 406 1083 q 449 1065 431 1083 q 467 1021 467 1047 q 449 978 467 996 q 406 960 431 960 l 343 960 q 299 949 319 960 q 267 921 279 939 q 250 881 254 903 q 253 836 246 858 l 303 676 q 317 581 318 629 q 303 488 317 533 q 262 403 289 443 q 197 335 235 364 q 260 262 235 303 q 299 175 286 221 q 309 80 311 129 q 290 -17 307 31 l 265 -83 q 276 -171 249 -131 q 354 -211 304 -211 l 406 -211 q 449 -229 431 -211 q 467 -274 467 -247 q 449 -317 467 -299 q 406 -335 431 -335 z "},"|":{"ha":354,"x_min":115,"x_max":238,"o":"m 176 -335 q 133 -317 151 -335 q 115 -274 115 -299 l 115 1014 q 133 1057 115 1039 q 176 1075 151 1075 q 220 1057 203 1075 q 238 1014 238 1039 l 238 -274 q 220 -317 238 -299 q 176 -335 203 -335 z "},"}":{"ha":521,"x_min":54,"x_max":497,"o":"m 469 283 l 425 254 q 376 210 396 236 q 347 154 357 185 q 336 91 336 124 q 347 26 336 58 l 372 -42 q 385 -144 392 -92 q 346 -242 378 -197 q 268 -310 315 -286 q 167 -335 221 -335 l 115 -335 q 72 -317 90 -335 q 54 -274 54 -299 q 72 -229 54 -247 q 115 -211 90 -211 l 167 -211 q 246 -171 218 -211 q 257 -83 272 -132 l 232 -17 q 213 80 214 31 q 224 175 211 129 q 262 262 236 221 q 325 335 288 303 q 259 403 286 364 q 218 488 232 443 q 203 581 204 533 q 218 676 203 629 l 268 836 q 271 881 275 858 q 254 921 267 903 q 222 949 242 939 q 178 960 203 960 l 115 960 q 72 978 90 960 q 54 1021 54 996 q 72 1065 54 1047 q 115 1083 90 1083 l 178 1083 q 279 1059 233 1083 q 354 994 325 1035 q 393 903 383 954 q 386 799 403 851 l 336 640 q 339 517 317 578 q 417 419 361 456 l 469 388 q 497 335 497 367 q 469 283 497 301 z "},"~":{"ha":772,"x_min":164,"x_max":608,"o":"m 476 224 q 422 235 444 224 q 379 262 399 247 q 343 289 360 276 q 308 301 326 301 q 290 290 296 301 q 276 264 283 278 q 256 238 268 250 q 224 226 244 226 q 183 242 201 226 q 164 281 164 257 q 171 308 164 294 q 220 384 190 353 q 303 415 250 415 q 360 403 335 415 q 407 377 386 392 q 444 351 428 363 q 472 339 460 339 q 488 349 482 339 q 501 370 494 358 q 518 392 508 382 q 547 401 528 401 q 589 386 569 401 q 608 347 608 371 q 606 333 608 340 q 600 318 603 325 q 553 251 582 278 q 476 224 525 224 z "},"Ä":{"ha":1007,"x_min":35,"x_max":1006,"o":"m 963 -15 q 939 -21 951 -21 q 905 -11 921 -21 q 882 17 889 -1 l 772 275 l 268 275 l 158 17 q 125 -17 149 -7 q 78 -15 101 -26 q 44 18 54 -6 q 46 65 35 42 l 171 361 l 464 1047 q 486 1075 471 1065 q 521 1085 501 1085 q 554 1075 539 1085 q 576 1047 569 1065 q 786 556 682 800 q 996 65 890 313 q 996 18 1006 42 q 963 -15 986 -6 m 521 865 l 321 399 l 719 399 l 521 865 m 636 1151 q 578 1176 603 1151 q 554 1233 554 1200 q 578 1292 554 1268 q 636 1315 601 1315 q 694 1292 671 1315 q 718 1233 718 1268 q 694 1176 718 1200 q 636 1151 669 1151 m 400 1151 q 342 1176 367 1151 q 318 1233 318 1200 q 342 1292 318 1268 q 400 1315 365 1315 q 458 1292 435 1315 q 482 1233 482 1268 q 458 1176 482 1200 q 400 1151 433 1151 z "},"Å":{"ha":1007,"x_min":35,"x_max":1006,"o":"m 963 -15 q 939 -21 951 -21 q 905 -11 921 -21 q 882 17 889 -1 l 772 275 l 268 275 l 158 17 q 125 -17 149 -7 q 78 -15 101 -26 q 44 18 54 -6 q 46 65 35 42 l 171 361 l 464 1047 q 486 1075 471 1065 q 521 1085 501 1085 q 554 1075 539 1085 q 576 1047 569 1065 q 786 556 682 800 q 996 65 890 313 q 996 18 1006 42 q 963 -15 986 -6 m 521 865 l 321 399 l 719 399 l 521 865 m 518 1025 q 456 1038 485 1025 q 405 1072 426 1050 q 371 1122 383 1093 q 358 1183 358 1150 q 371 1246 358 1217 q 405 1297 383 1275 q 456 1331 426 1318 q 518 1343 485 1343 q 580 1331 551 1343 q 630 1297 608 1318 q 664 1246 651 1275 q 676 1183 676 1217 q 664 1122 676 1150 q 630 1072 651 1093 q 580 1038 608 1050 q 518 1025 551 1025 m 518 1242 q 477 1224 494 1242 q 460 1183 460 1207 q 477 1143 460 1160 q 518 1126 494 1126 q 558 1143 542 1126 q 575 1183 575 1160 q 558 1224 575 1207 q 518 1242 542 1242 z "},"Ç":{"ha":1133,"x_min":108,"x_max":1072,"o":"m 663 -21 q 447 23 547 -21 q 271 142 346 67 q 152 317 196 217 q 108 533 108 418 q 152 747 108 647 q 271 919 196 846 q 447 1033 346 992 q 663 1075 547 1075 q 874 1034 774 1075 q 1053 914 974 993 q 1072 869 1072 894 q 1053 826 1072 844 q 1010 808 1035 808 q 967 826 985 808 q 826 921 904 889 q 663 953 749 953 q 494 920 572 953 q 357 831 415 888 q 265 699 299 775 q 232 533 232 622 q 266 366 232 444 q 358 229 300 288 q 495 137 417 171 q 663 103 574 103 q 826 135 749 103 q 967 228 904 167 q 1010 247 985 247 q 1053 228 1035 247 q 1072 185 1072 210 q 1053 142 1072 160 q 874 21 974 63 q 663 -21 774 -21 m 617 -221 q 581 -214 599 -221 q 563 -179 563 -207 q 583 -146 563 -153 q 624 -139 603 -139 q 649 -140 636 -139 q 674 -140 661 -140 q 698 -139 685 -140 q 711 -122 711 -137 q 699 -110 711 -111 q 678 -108 686 -108 q 653 -110 665 -108 q 629 -112 642 -112 q 599 -103 611 -112 q 588 -74 588 -93 q 593 -46 588 -62 q 606 -12 599 -29 q 621 22 613 3 q 642 68 629 40 l 642 64 q 672 76 654 76 q 702 65 690 76 q 714 35 714 53 q 705 3 714 24 q 690 -29 696 -18 q 754 -51 726 -32 q 782 -114 782 -69 q 766 -176 782 -154 q 726 -207 750 -197 q 673 -219 703 -217 q 617 -221 643 -221 z "},"É":{"ha":772,"x_min":142,"x_max":744,"o":"m 682 -21 l 204 -21 q 160 -3 178 -21 q 142 40 142 15 l 142 43 l 142 46 l 142 1014 q 160 1057 142 1039 q 204 1075 178 1075 l 682 1075 q 726 1057 708 1075 q 744 1014 744 1039 q 726 970 744 988 q 682 953 708 953 l 265 953 l 265 599 l 617 599 q 660 581 642 599 q 678 538 678 564 q 660 494 678 513 q 617 476 642 476 l 265 476 l 265 103 l 682 103 q 726 85 708 103 q 744 40 744 67 q 726 -3 744 15 q 682 -21 708 -21 m 426 1104 q 469 1122 453 1104 l 594 1247 q 613 1290 613 1265 q 594 1333 613 1315 q 551 1351 576 1351 q 508 1333 526 1351 l 383 1208 q 365 1165 365 1192 q 383 1122 365 1140 q 426 1104 401 1104 z "},"Ñ":{"ha":968,"x_min":142,"x_max":879,"o":"m 818 -21 q 765 8 783 -21 l 264 803 l 264 40 q 247 -3 264 15 q 203 -21 229 -21 q 160 -3 178 -21 q 142 40 142 15 l 142 1014 q 160 1057 142 1039 q 203 1075 178 1075 q 256 1047 238 1075 l 757 253 l 757 1014 q 774 1057 757 1039 q 818 1075 792 1075 q 861 1057 843 1075 q 879 1014 879 1039 l 879 40 q 861 -3 879 15 q 818 -21 843 -21 m 621 1158 q 569 1168 594 1158 q 519 1190 543 1178 q 476 1211 496 1201 q 443 1221 457 1221 q 426 1213 433 1221 q 411 1194 419 1204 q 391 1175 403 1183 q 363 1167 379 1167 q 321 1183 339 1167 q 303 1224 303 1200 q 311 1254 303 1239 q 365 1312 332 1288 q 439 1336 399 1336 q 490 1326 465 1336 q 538 1305 515 1317 q 581 1283 561 1293 q 615 1274 600 1274 q 632 1281 625 1274 q 647 1295 639 1288 q 664 1310 654 1303 q 690 1317 674 1317 q 732 1300 714 1317 q 750 1260 750 1283 q 737 1222 750 1240 q 703 1189 724 1203 q 661 1167 683 1175 q 621 1158 639 1158 z "},"Ö":{"ha":1267,"x_min":108,"x_max":1204,"o":"m 657 -21 q 443 22 543 -21 q 269 140 343 65 q 151 314 194 214 q 108 528 108 414 q 151 740 108 640 q 269 915 194 840 q 443 1032 343 989 q 657 1075 543 1075 q 869 1032 769 1075 q 1044 915 969 989 q 1161 740 1118 840 q 1204 528 1204 640 q 1161 314 1204 414 q 1044 140 1118 214 q 869 22 969 65 q 657 -21 769 -21 m 657 953 q 492 919 569 953 q 356 828 414 886 q 264 693 297 771 q 231 528 231 615 q 264 363 231 440 q 356 226 297 285 q 492 135 414 168 q 657 101 569 101 q 822 135 744 101 q 958 226 900 168 q 1049 363 1015 285 q 1082 528 1082 440 q 1049 693 1082 615 q 958 828 1015 771 q 822 919 900 886 q 657 953 744 953 m 765 1151 q 708 1176 732 1151 q 683 1233 683 1200 q 707 1292 683 1268 q 765 1315 731 1315 q 824 1292 800 1315 q 847 1233 847 1268 q 823 1176 847 1200 q 765 1151 799 1151 m 529 1151 q 472 1176 496 1151 q 447 1233 447 1200 q 471 1292 447 1268 q 529 1315 494 1315 q 588 1292 564 1315 q 611 1233 611 1268 q 587 1176 611 1200 q 529 1151 563 1151 z "},"Ü":{"ha":1076,"x_min":142,"x_max":988,"o":"m 564 -21 q 400 13 476 -21 q 266 103 324 46 q 175 237 208 160 q 142 401 142 314 l 142 1014 q 160 1057 142 1039 q 204 1075 178 1075 q 247 1057 229 1075 q 265 1014 265 1039 l 265 401 q 289 285 265 339 q 353 190 313 231 q 448 126 393 150 q 564 103 503 103 q 681 126 626 103 q 776 190 735 150 q 840 285 817 231 q 864 401 864 340 l 864 1014 q 882 1057 864 1039 q 925 1075 900 1075 q 969 1057 951 1075 q 988 1014 988 1039 l 988 401 q 954 237 988 314 q 863 103 921 160 q 728 13 806 46 q 564 -21 651 -21 m 669 1151 q 612 1176 636 1151 q 588 1233 588 1200 q 611 1292 588 1268 q 669 1315 635 1315 q 728 1292 704 1315 q 751 1233 751 1268 q 727 1176 751 1200 q 669 1151 703 1151 m 433 1151 q 376 1176 400 1151 q 351 1233 351 1200 q 375 1292 351 1268 q 433 1315 399 1315 q 492 1292 468 1315 q 515 1233 515 1268 q 491 1176 515 1200 q 433 1151 467 1151 z "},"á":{"ha":885,"x_min":74,"x_max":789,"o":"m 728 -21 q 683 -3 701 -21 q 665 40 665 15 l 665 67 q 557 2 617 25 q 432 -21 497 -21 q 293 8 358 -21 q 179 85 228 36 q 102 198 131 133 q 74 336 74 263 q 102 475 74 410 q 179 589 131 540 q 293 666 228 638 q 432 694 358 694 q 557 672 497 694 q 665 607 617 649 l 665 633 q 683 676 665 658 q 728 694 701 694 q 771 676 753 694 q 789 633 789 658 l 789 40 q 771 -3 789 15 q 728 -21 753 -21 m 432 571 q 341 552 383 571 q 267 501 299 533 q 216 427 235 469 q 197 336 197 385 q 216 245 197 288 q 267 171 235 203 q 341 121 299 139 q 432 103 383 103 q 523 121 481 103 q 597 171 565 139 q 647 245 629 203 q 665 336 665 288 q 647 427 665 385 q 597 501 629 469 q 523 552 565 533 q 432 571 481 571 m 393 789 q 436 807 419 789 l 561 932 q 579 975 579 950 q 561 1018 579 1000 q 518 1036 543 1036 q 475 1018 493 1036 l 350 893 q 332 850 332 876 q 350 807 332 825 q 393 789 368 789 z "},"à":{"ha":885,"x_min":74,"x_max":789,"o":"m 728 -21 q 683 -3 701 -21 q 665 40 665 15 l 665 67 q 557 2 617 25 q 432 -21 497 -21 q 293 8 358 -21 q 179 85 228 36 q 102 198 131 133 q 74 336 74 263 q 102 475 74 410 q 179 589 131 540 q 293 666 228 638 q 432 694 358 694 q 557 672 497 694 q 665 607 617 649 l 665 633 q 683 676 665 658 q 728 694 701 694 q 771 676 753 694 q 789 633 789 658 l 789 40 q 771 -3 789 15 q 728 -21 753 -21 m 432 571 q 341 552 383 571 q 267 501 299 533 q 216 427 235 469 q 197 336 197 385 q 216 245 197 288 q 267 171 235 203 q 341 121 299 139 q 432 103 383 103 q 523 121 481 103 q 597 171 565 139 q 647 245 629 203 q 665 336 665 288 q 647 427 665 385 q 597 501 629 469 q 523 552 565 533 q 432 571 481 571 m 425 789 q 382 807 399 789 l 257 932 q 239 975 239 950 q 257 1018 239 1000 q 300 1036 275 1036 q 343 1018 325 1036 l 468 893 q 486 850 486 876 q 468 807 486 825 q 425 789 450 789 z "},"â":{"ha":885,"x_min":74,"x_max":789,"o":"m 728 -21 q 683 -3 701 -21 q 665 40 665 15 l 665 67 q 557 2 617 25 q 432 -21 497 -21 q 293 8 358 -21 q 179 85 228 36 q 102 198 131 133 q 74 336 74 263 q 102 475 74 410 q 179 589 131 540 q 293 666 228 638 q 432 694 358 694 q 557 672 497 694 q 665 607 617 649 l 665 633 q 683 676 665 658 q 728 694 701 694 q 771 676 753 694 q 789 633 789 658 l 789 40 q 771 -3 789 15 q 728 -21 753 -21 m 432 571 q 341 552 383 571 q 267 501 299 533 q 216 427 235 469 q 197 336 197 385 q 216 245 197 288 q 267 171 235 203 q 341 121 299 139 q 432 103 383 103 q 523 121 481 103 q 597 171 565 139 q 647 245 629 203 q 665 336 665 288 q 647 427 665 385 q 597 501 629 469 q 523 552 565 533 q 432 571 481 571 m 558 779 q 518 796 535 779 l 428 889 l 338 796 q 297 779 321 779 q 258 796 274 779 q 242 836 242 813 q 258 876 242 860 l 389 1010 q 428 1026 403 1026 q 468 1010 451 1026 l 599 876 q 614 836 614 858 q 598 796 614 813 q 558 779 582 779 z "},"ä":{"ha":885,"x_min":74,"x_max":789,"o":"m 728 -21 q 683 -3 701 -21 q 665 40 665 15 l 665 67 q 557 2 617 25 q 432 -21 497 -21 q 293 8 358 -21 q 179 85 228 36 q 102 198 131 133 q 74 336 74 263 q 102 475 74 410 q 179 589 131 540 q 293 666 228 638 q 432 694 358 694 q 557 672 497 694 q 665 607 617 649 l 665 633 q 683 676 665 658 q 728 694 701 694 q 771 676 753 694 q 789 633 789 658 l 789 40 q 771 -3 789 15 q 728 -21 753 -21 m 432 571 q 341 552 383 571 q 267 501 299 533 q 216 427 235 469 q 197 336 197 385 q 216 245 197 288 q 267 171 235 203 q 341 121 299 139 q 432 103 383 103 q 523 121 481 103 q 597 171 565 139 q 647 245 629 203 q 665 336 665 288 q 647 427 665 385 q 597 501 629 469 q 523 552 565 533 q 432 571 481 571 m 550 831 q 492 855 517 831 q 468 913 468 879 q 492 971 468 947 q 550 994 515 994 q 608 971 585 994 q 632 913 632 947 q 608 855 632 879 q 550 831 583 831 m 314 831 q 256 855 281 831 q 232 913 232 879 q 256 971 232 947 q 314 994 279 994 q 372 971 349 994 q 396 913 396 947 q 372 855 396 879 q 314 831 347 831 z "},"ã":{"ha":885,"x_min":54,"x_max":769,"o":"m 708 -21 q 664 -3 682 -21 q 646 40 646 15 l 646 67 q 538 2 597 25 q 413 -21 478 -21 q 274 8 339 -21 q 160 85 208 36 q 83 198 111 133 q 54 336 54 263 q 83 475 54 410 q 160 589 111 540 q 274 666 208 638 q 413 694 339 694 q 538 672 478 694 q 646 607 597 649 l 646 633 q 664 676 646 658 q 708 694 682 694 q 751 676 733 694 q 769 633 769 658 l 769 40 q 751 -3 769 15 q 708 -21 733 -21 m 413 571 q 322 552 364 571 q 247 501 279 533 q 197 427 215 469 q 178 336 178 385 q 197 245 178 288 q 247 171 215 203 q 322 121 279 139 q 413 103 364 103 q 503 121 461 103 q 578 171 546 139 q 628 245 610 203 q 646 336 646 288 q 628 427 646 385 q 578 501 610 469 q 503 552 546 533 q 413 571 461 571 m 494 813 q 442 822 468 813 q 393 844 417 832 q 350 865 369 856 q 317 875 331 875 q 300 867 307 875 q 285 848 293 858 q 265 829 276 838 q 236 821 253 821 q 194 838 213 821 q 176 878 176 854 q 185 908 176 893 q 239 966 206 942 q 313 990 272 990 q 364 981 339 990 q 412 959 389 971 q 454 938 435 947 q 489 928 474 928 q 506 935 499 928 q 520 949 513 942 q 538 964 528 957 q 564 971 547 971 q 606 954 588 971 q 624 914 624 938 q 610 876 624 894 q 577 843 597 857 q 535 821 557 829 q 494 813 513 813 z "},"å":{"ha":885,"x_min":74,"x_max":789,"o":"m 728 -21 q 683 -3 701 -21 q 665 40 665 15 l 665 67 q 557 2 617 25 q 432 -21 497 -21 q 293 8 358 -21 q 179 85 228 36 q 102 198 131 133 q 74 336 74 263 q 102 475 74 410 q 179 589 131 540 q 293 666 228 638 q 432 694 358 694 q 557 672 497 694 q 665 607 617 649 l 665 633 q 683 676 665 658 q 728 694 701 694 q 771 676 753 694 q 789 633 789 658 l 789 40 q 771 -3 789 15 q 728 -21 753 -21 m 432 571 q 341 552 383 571 q 267 501 299 533 q 216 427 235 469 q 197 336 197 385 q 216 245 197 288 q 267 171 235 203 q 341 121 299 139 q 432 103 383 103 q 523 121 481 103 q 597 171 565 139 q 647 245 629 203 q 665 336 665 288 q 647 427 665 385 q 597 501 629 469 q 523 552 565 533 q 432 571 481 571 m 426 758 q 364 771 393 758 q 313 805 335 783 q 279 855 292 826 q 267 917 267 883 q 279 979 267 950 q 313 1030 292 1008 q 364 1064 335 1051 q 426 1076 393 1076 q 488 1064 460 1076 q 538 1030 517 1051 q 572 979 560 1008 q 585 917 585 950 q 572 855 585 883 q 538 805 560 826 q 488 771 517 783 q 426 758 460 758 m 426 975 q 385 958 403 975 q 368 917 368 940 q 385 876 368 893 q 426 860 403 860 q 467 876 450 860 q 483 917 483 893 q 467 958 483 940 q 426 975 450 975 z "},"ç":{"ha":707,"x_min":74,"x_max":703,"o":"m 640 485 q 617 490 626 485 q 599 501 607 494 q 521 553 558 536 q 432 571 483 571 q 341 552 383 571 q 267 501 299 533 q 216 427 235 469 q 197 336 197 385 q 216 245 197 288 q 267 171 235 203 q 341 121 299 139 q 432 103 383 103 q 521 120 483 103 q 599 172 558 138 q 617 184 607 179 q 640 189 626 189 q 685 171 667 189 q 703 128 703 153 q 697 103 703 114 q 685 85 692 93 q 631 40 661 60 q 568 6 601 19 q 500 -14 535 -7 q 432 -21 465 -21 q 293 8 358 -21 q 179 85 228 36 q 102 198 131 133 q 74 336 74 263 q 102 475 74 410 q 179 589 131 540 q 293 666 228 638 q 432 694 358 694 q 500 688 465 694 q 568 667 535 681 q 631 634 601 654 q 685 589 661 614 q 697 570 692 581 q 703 546 703 560 q 685 503 703 521 q 640 485 667 485 m 383 -221 q 347 -214 365 -221 q 329 -179 329 -207 q 349 -146 329 -153 q 390 -139 369 -139 q 415 -140 403 -139 q 440 -140 428 -140 q 465 -139 451 -140 q 478 -122 478 -137 q 465 -110 478 -111 q 444 -108 453 -108 q 420 -110 432 -108 q 396 -112 408 -112 q 366 -103 378 -112 q 354 -74 354 -93 q 360 -46 354 -62 q 372 -12 365 -29 q 388 22 379 3 q 408 68 396 40 l 408 64 q 439 76 421 76 q 469 65 457 76 q 481 35 481 53 q 472 3 481 24 q 457 -29 463 -18 q 521 -51 493 -32 q 549 -114 549 -69 q 533 -176 549 -154 q 493 -207 517 -197 q 440 -219 469 -217 q 383 -221 410 -221 z "},"é":{"ha":822,"x_min":74,"x_max":789,"o":"m 726 304 l 200 304 q 226 224 206 261 q 277 160 246 188 q 348 118 308 133 q 432 103 388 103 q 480 107 458 103 q 520 120 501 111 q 558 142 539 129 q 599 172 576 156 q 616 184 607 179 q 640 189 625 189 q 685 171 667 189 q 703 128 703 153 q 697 103 703 113 q 685 85 692 93 q 633 40 663 60 q 569 6 603 19 q 499 -14 535 -7 q 432 -21 464 -21 q 293 8 358 -21 q 179 85 228 36 q 102 198 131 133 q 74 336 74 263 q 102 475 74 410 q 179 589 131 540 q 293 666 228 638 q 432 694 358 694 q 565 671 503 694 q 676 603 628 647 q 754 499 725 560 q 788 367 783 439 q 770 322 789 339 q 726 304 751 304 m 432 571 q 301 531 360 571 q 215 428 243 492 l 647 428 q 562 532 621 493 q 432 571 503 571 m 388 789 q 431 807 414 789 l 556 932 q 574 975 574 950 q 556 1018 574 1000 q 513 1036 538 1036 q 469 1018 488 1036 l 344 893 q 326 850 326 876 q 344 807 326 825 q 388 789 363 789 z "},"è":{"ha":822,"x_min":74,"x_max":789,"o":"m 726 304 l 200 304 q 226 224 206 261 q 277 160 246 188 q 348 118 308 133 q 432 103 388 103 q 480 107 458 103 q 520 120 501 111 q 558 142 539 129 q 599 172 576 156 q 616 184 607 179 q 640 189 625 189 q 685 171 667 189 q 703 128 703 153 q 697 103 703 113 q 685 85 692 93 q 633 40 663 60 q 569 6 603 19 q 499 -14 535 -7 q 432 -21 464 -21 q 293 8 358 -21 q 179 85 228 36 q 102 198 131 133 q 74 336 74 263 q 102 475 74 410 q 179 589 131 540 q 293 666 228 638 q 432 694 358 694 q 565 671 503 694 q 676 603 628 647 q 754 499 725 560 q 788 367 783 439 q 770 322 789 339 q 726 304 751 304 m 432 571 q 301 531 360 571 q 215 428 243 492 l 647 428 q 562 532 621 493 q 432 571 503 571 m 421 789 q 378 807 394 789 l 253 932 q 235 975 235 950 q 253 1018 235 1000 q 296 1036 271 1036 q 339 1018 321 1036 l 464 893 q 482 850 482 876 q 464 807 482 825 q 421 789 446 789 z "},"ê":{"ha":822,"x_min":74,"x_max":789,"o":"m 726 304 l 200 304 q 226 224 206 261 q 277 160 246 188 q 348 118 308 133 q 432 103 388 103 q 480 107 458 103 q 520 120 501 111 q 558 142 539 129 q 599 172 576 156 q 616 184 607 179 q 640 189 625 189 q 685 171 667 189 q 703 128 703 153 q 697 103 703 113 q 685 85 692 93 q 633 40 663 60 q 569 6 603 19 q 499 -14 535 -7 q 432 -21 464 -21 q 293 8 358 -21 q 179 85 228 36 q 102 198 131 133 q 74 336 74 263 q 102 475 74 410 q 179 589 131 540 q 293 666 228 638 q 432 694 358 694 q 565 671 503 694 q 676 603 628 647 q 754 499 725 560 q 788 367 783 439 q 770 322 789 339 q 726 304 751 304 m 432 571 q 301 531 360 571 q 215 428 243 492 l 647 428 q 562 532 621 493 q 432 571 503 571 m 558 779 q 518 796 535 779 l 428 889 l 338 796 q 297 779 321 779 q 258 796 274 779 q 242 836 242 813 q 258 876 242 860 l 389 1010 q 428 1026 403 1026 q 468 1010 451 1026 l 599 876 q 614 836 614 858 q 598 796 614 813 q 558 779 582 779 z "},"ë":{"ha":822,"x_min":74,"x_max":789,"o":"m 726 304 l 200 304 q 226 224 206 261 q 277 160 246 188 q 348 118 308 133 q 432 103 388 103 q 480 107 458 103 q 520 120 501 111 q 558 142 539 129 q 599 172 576 156 q 616 184 607 179 q 640 189 625 189 q 685 171 667 189 q 703 128 703 153 q 697 103 703 113 q 685 85 692 93 q 633 40 663 60 q 569 6 603 19 q 499 -14 535 -7 q 432 -21 464 -21 q 293 8 358 -21 q 179 85 228 36 q 102 198 131 133 q 74 336 74 263 q 102 475 74 410 q 179 589 131 540 q 293 666 228 638 q 432 694 358 694 q 565 671 503 694 q 676 603 628 647 q 754 499 725 560 q 788 367 783 439 q 770 322 789 339 q 726 304 751 304 m 432 571 q 301 531 360 571 q 215 428 243 492 l 647 428 q 562 532 621 493 q 432 571 503 571 m 543 831 q 485 855 510 831 q 461 913 461 879 q 485 971 461 947 q 543 994 508 994 q 601 971 578 994 q 625 913 625 947 q 601 855 625 879 q 543 831 576 831 m 307 831 q 249 855 274 831 q 225 913 225 879 q 249 971 225 947 q 307 994 272 994 q 365 971 342 994 q 389 913 389 947 q 365 855 389 879 q 307 831 340 831 z "},"í":{"ha":386,"x_min":133,"x_max":381,"o":"m 194 789 q 238 807 221 789 l 363 932 q 381 975 381 950 q 363 1018 381 1000 q 319 1036 344 1036 q 276 1018 294 1036 l 151 893 q 133 850 133 876 q 151 807 133 825 q 194 789 169 789 m 228 -21 q 183 -3 201 -21 q 165 40 165 15 l 165 633 q 183 676 165 658 q 228 694 201 694 q 271 676 253 694 q 289 633 289 658 l 289 40 q 271 -3 289 15 q 228 -21 253 -21 z "},"ì":{"ha":386,"x_min":21,"x_max":276,"o":"m 207 789 q 164 807 181 789 l 39 932 q 21 975 21 950 q 39 1018 21 1000 q 82 1036 57 1036 q 125 1018 107 1036 l 250 893 q 268 850 268 876 q 250 807 268 825 q 207 789 232 789 m 215 -21 q 171 -3 189 -21 q 153 40 153 15 l 153 633 q 171 676 153 658 q 215 694 189 694 q 258 676 240 694 q 276 633 276 658 l 276 40 q 258 -3 276 15 q 215 -21 240 -21 z "},"î":{"ha":374,"x_min":19,"x_max":392,"o":"m 336 779 q 296 796 313 779 l 206 889 l 115 796 q 75 779 99 779 q 35 796 51 779 q 19 836 19 813 q 36 876 19 860 l 167 1010 q 206 1026 181 1026 q 246 1010 229 1026 l 376 876 q 392 836 392 858 q 376 796 392 813 q 336 779 360 779 m 215 -21 q 171 -3 189 -21 q 153 40 153 15 l 153 633 q 171 676 153 658 q 215 694 189 694 q 258 676 240 694 q 276 633 276 658 l 276 40 q 258 -3 276 15 q 215 -21 240 -21 z "},"ï":{"ha":371,"x_min":0,"x_max":400,"o":"m 318 831 q 260 855 285 831 q 236 913 236 879 q 260 971 236 947 q 318 994 283 994 q 376 971 353 994 q 400 913 400 947 q 376 855 400 879 q 318 831 351 831 m 82 831 q 24 855 49 831 q 0 913 0 879 q 24 971 0 947 q 82 994 47 994 q 140 971 117 994 q 164 913 164 947 q 140 855 164 879 q 82 831 115 831 m 213 -21 q 168 -3 186 -21 q 150 40 150 15 l 150 633 q 168 676 150 658 q 213 694 186 694 q 256 676 238 694 q 274 633 274 658 l 274 40 q 256 -3 274 15 q 213 -21 238 -21 z "},"ñ":{"ha":719,"x_min":142,"x_max":661,"o":"m 263 653 q 403 694 328 694 q 503 674 456 694 q 585 619 550 654 q 641 536 621 583 q 661 436 661 489 l 661 40 q 643 -3 661 15 q 600 -21 625 -21 q 556 -3 574 -21 q 538 40 538 15 l 538 436 q 527 488 538 464 q 498 531 517 513 q 455 560 479 550 q 403 571 431 571 q 350 560 375 571 q 307 531 325 550 q 278 488 289 513 q 268 436 268 464 q 265 424 268 432 l 265 40 q 247 -3 265 15 q 204 -21 229 -21 q 160 -3 178 -21 q 142 40 142 15 l 142 642 q 160 686 142 668 q 204 704 178 704 q 263 653 254 704 m 481 813 q 428 822 454 813 q 379 844 403 832 q 336 865 356 856 q 303 875 317 875 q 286 867 293 875 q 271 848 279 858 q 251 829 263 838 q 222 821 239 821 q 181 838 199 821 q 163 878 163 854 q 171 908 163 893 q 225 966 192 942 q 299 990 258 990 q 350 981 325 990 q 398 959 375 971 q 440 938 421 947 q 475 928 460 928 q 492 935 485 928 q 506 949 499 942 q 524 964 514 957 q 550 971 533 971 q 592 954 574 971 q 610 914 610 938 q 597 876 610 894 q 563 843 583 857 q 521 821 543 829 q 481 813 499 813 z "},"ó":{"ha":833,"x_min":74,"x_max":789,"o":"m 432 -21 q 293 8 358 -21 q 179 85 228 36 q 102 198 131 133 q 74 336 74 263 q 102 475 74 410 q 179 589 131 540 q 293 666 228 638 q 432 694 358 694 q 570 666 506 694 q 683 589 635 638 q 760 475 732 540 q 789 336 789 410 q 760 198 789 263 q 683 85 732 133 q 570 8 635 36 q 432 -21 506 -21 m 432 571 q 341 552 383 571 q 267 501 299 533 q 216 427 235 469 q 197 336 197 385 q 216 245 197 288 q 267 171 235 203 q 341 121 299 139 q 432 103 383 103 q 523 121 481 103 q 597 171 565 139 q 647 245 629 203 q 665 336 665 288 q 647 427 665 385 q 597 501 628 469 q 522 552 565 533 q 432 571 479 571 m 393 789 q 436 807 419 789 l 561 932 q 579 975 579 950 q 561 1018 579 1000 q 518 1036 543 1036 q 475 1018 493 1036 l 350 893 q 332 850 332 876 q 350 807 332 825 q 393 789 368 789 z "},"ò":{"ha":833,"x_min":74,"x_max":789,"o":"m 432 -21 q 293 8 358 -21 q 179 85 228 36 q 102 198 131 133 q 74 336 74 263 q 102 475 74 410 q 179 589 131 540 q 293 666 228 638 q 432 694 358 694 q 570 666 506 694 q 683 589 635 638 q 760 475 732 540 q 789 336 789 410 q 760 198 789 263 q 683 85 732 133 q 570 8 635 36 q 432 -21 506 -21 m 432 571 q 341 552 383 571 q 267 501 299 533 q 216 427 235 469 q 197 336 197 385 q 216 245 197 288 q 267 171 235 203 q 341 121 299 139 q 432 103 383 103 q 523 121 481 103 q 597 171 565 139 q 647 245 629 203 q 665 336 665 288 q 647 427 665 385 q 597 501 628 469 q 522 552 565 533 q 432 571 479 571 m 425 789 q 382 807 399 789 l 257 932 q 239 975 239 950 q 257 1018 239 1000 q 300 1036 275 1036 q 343 1018 325 1036 l 468 893 q 486 850 486 876 q 468 807 486 825 q 425 789 450 789 z "},"ô":{"ha":833,"x_min":74,"x_max":789,"o":"m 432 -21 q 293 8 358 -21 q 179 85 228 36 q 102 198 131 133 q 74 336 74 263 q 102 475 74 410 q 179 589 131 540 q 293 666 228 638 q 432 694 358 694 q 570 666 506 694 q 683 589 635 638 q 760 475 732 540 q 789 336 789 410 q 760 198 789 263 q 683 85 732 133 q 570 8 635 36 q 432 -21 506 -21 m 432 571 q 341 552 383 571 q 267 501 299 533 q 216 427 235 469 q 197 336 197 385 q 216 245 197 288 q 267 171 235 203 q 341 121 299 139 q 432 103 383 103 q 523 121 481 103 q 597 171 565 139 q 647 245 629 203 q 665 336 665 288 q 647 427 665 385 q 597 501 628 469 q 522 552 565 533 q 432 571 479 571 m 558 779 q 518 796 535 779 l 428 889 l 338 796 q 297 779 321 779 q 258 796 274 779 q 242 836 242 813 q 258 876 242 860 l 389 1010 q 428 1026 403 1026 q 468 1010 451 1026 l 599 876 q 614 836 614 858 q 598 796 614 813 q 558 779 582 779 z "},"ö":{"ha":833,"x_min":74,"x_max":789,"o":"m 432 -21 q 293 8 358 -21 q 179 85 228 36 q 102 198 131 133 q 74 336 74 263 q 102 475 74 410 q 179 589 131 540 q 293 666 228 638 q 432 694 358 694 q 570 666 506 694 q 683 589 635 638 q 760 475 732 540 q 789 336 789 410 q 760 198 789 263 q 683 85 732 133 q 570 8 635 36 q 432 -21 506 -21 m 432 571 q 341 552 383 571 q 267 501 299 533 q 216 427 235 469 q 197 336 197 385 q 216 245 197 288 q 267 171 235 203 q 341 121 299 139 q 432 103 383 103 q 523 121 481 103 q 597 171 565 139 q 647 245 629 203 q 665 336 665 288 q 647 427 665 385 q 597 501 628 469 q 522 552 565 533 q 432 571 479 571 m 549 831 q 491 855 515 831 q 467 913 467 879 q 490 971 467 947 q 549 994 514 994 q 607 971 583 994 q 631 913 631 947 q 606 855 631 879 q 549 831 582 831 m 313 831 q 255 855 279 831 q 231 913 231 879 q 254 971 231 947 q 313 994 278 994 q 371 971 347 994 q 394 913 394 947 q 370 855 394 879 q 313 831 346 831 z "},"õ":{"ha":833,"x_min":74,"x_max":789,"o":"m 432 -21 q 293 8 358 -21 q 179 85 228 36 q 102 198 131 133 q 74 336 74 263 q 102 475 74 410 q 179 589 131 540 q 293 666 228 638 q 432 694 358 694 q 570 666 506 694 q 683 589 635 638 q 760 475 732 540 q 789 336 789 410 q 760 198 789 263 q 683 85 732 133 q 570 8 635 36 q 432 -21 506 -21 m 432 571 q 341 552 383 571 q 267 501 299 533 q 216 427 235 469 q 197 336 197 385 q 216 245 197 288 q 267 171 235 203 q 341 121 299 139 q 432 103 383 103 q 523 121 481 103 q 597 171 565 139 q 647 245 629 203 q 665 336 665 288 q 647 427 665 385 q 597 501 628 469 q 522 552 565 533 q 432 571 479 571 m 513 813 q 460 822 486 813 q 411 844 435 832 q 368 865 388 856 q 335 875 349 875 q 318 867 325 875 q 303 848 311 858 q 283 829 294 838 q 254 821 271 821 q 213 838 231 821 q 194 878 194 854 q 203 908 194 893 q 257 966 224 942 q 331 990 290 990 q 382 981 357 990 q 430 959 407 971 q 472 938 453 947 q 507 928 492 928 q 524 935 517 928 q 538 949 531 942 q 556 964 546 957 q 582 971 565 971 q 624 954 606 971 q 642 914 642 938 q 628 876 642 894 q 595 843 615 857 q 553 821 575 829 q 513 813 531 813 z "},"ú":{"ha":722,"x_min":108,"x_max":660,"o":"m 385 -18 q 277 3 328 -18 q 189 63 226 25 q 130 151 151 100 q 108 258 108 201 l 108 626 q 126 671 108 653 q 171 689 144 689 q 214 671 196 689 q 232 626 232 653 l 232 258 q 244 199 232 226 q 276 150 256 171 q 325 117 297 129 q 385 106 353 106 q 443 117 415 106 q 492 150 471 129 q 525 199 513 171 q 538 258 538 226 l 538 626 q 556 671 538 653 q 599 689 574 689 q 642 671 624 689 q 660 626 660 653 l 660 258 q 638 151 660 201 q 579 63 617 100 q 492 3 542 25 q 385 -18 442 -18 m 356 789 q 399 807 382 789 l 524 932 q 542 975 542 950 q 524 1018 542 1000 q 481 1036 506 1036 q 438 1018 456 1036 l 313 893 q 294 850 294 876 q 313 807 294 825 q 356 789 331 789 z "},"ù":{"ha":722,"x_min":108,"x_max":660,"o":"m 385 -18 q 277 3 328 -18 q 189 63 226 25 q 130 151 151 100 q 108 258 108 201 l 108 626 q 126 671 108 653 q 171 689 144 689 q 214 671 196 689 q 232 626 232 653 l 232 258 q 244 199 232 226 q 276 150 256 171 q 325 117 297 129 q 385 106 353 106 q 443 117 415 106 q 492 150 471 129 q 525 199 513 171 q 538 258 538 226 l 538 626 q 556 671 538 653 q 599 689 574 689 q 642 671 624 689 q 660 626 660 653 l 660 258 q 638 151 660 201 q 579 63 617 100 q 492 3 542 25 q 385 -18 442 -18 m 386 789 q 343 807 360 789 l 218 932 q 200 975 200 950 q 218 1018 200 1000 q 261 1036 236 1036 q 304 1018 286 1036 l 429 893 q 447 850 447 876 q 429 807 447 825 q 386 789 411 789 z "},"û":{"ha":722,"x_min":108,"x_max":660,"o":"m 385 -18 q 277 3 328 -18 q 189 63 226 25 q 130 151 151 100 q 108 258 108 201 l 108 626 q 126 671 108 653 q 171 689 144 689 q 214 671 196 689 q 232 626 232 653 l 232 258 q 244 199 232 226 q 276 150 256 171 q 325 117 297 129 q 385 106 353 106 q 443 117 415 106 q 492 150 471 129 q 525 199 513 171 q 538 258 538 226 l 538 626 q 556 671 538 653 q 599 689 574 689 q 642 671 624 689 q 660 626 660 653 l 660 258 q 638 151 660 201 q 579 63 617 100 q 492 3 542 25 q 385 -18 442 -18 m 506 779 q 465 796 482 779 l 375 889 l 285 796 q 244 779 268 779 q 205 796 221 779 q 189 836 189 813 q 206 876 189 860 l 336 1010 q 375 1026 350 1026 q 415 1010 399 1026 l 546 876 q 561 836 561 858 q 545 796 561 813 q 506 779 529 779 z "},"ü":{"ha":722,"x_min":108,"x_max":660,"o":"m 385 -18 q 277 3 328 -18 q 189 63 226 25 q 130 151 151 100 q 108 258 108 201 l 108 626 q 126 671 108 653 q 171 689 144 689 q 214 671 196 689 q 232 626 232 653 l 232 258 q 244 199 232 226 q 276 150 256 171 q 325 117 297 129 q 385 106 353 106 q 443 117 415 106 q 492 150 471 129 q 525 199 513 171 q 538 258 538 226 l 538 626 q 556 671 538 653 q 599 689 574 689 q 642 671 624 689 q 660 626 660 653 l 660 258 q 638 151 660 201 q 579 63 617 100 q 492 3 542 25 q 385 -18 442 -18 m 493 831 q 435 855 460 831 q 411 913 411 879 q 435 971 411 947 q 493 994 458 994 q 551 971 528 994 q 575 913 575 947 q 551 855 575 879 q 493 831 526 831 m 257 831 q 199 855 224 831 q 175 913 175 879 q 199 971 175 947 q 257 994 222 994 q 315 971 292 994 q 339 913 339 947 q 315 855 339 879 q 257 831 290 831 z "},"†":{"ha":460,"x_min":-7,"x_max":467,"o":"m 404 571 l 292 571 l 292 -117 q 274 -161 292 -143 q 229 -179 256 -179 q 186 -161 204 -179 q 168 -117 168 -143 l 168 571 l 54 571 q 11 589 29 571 q -7 632 -7 607 q 11 676 -7 658 q 54 694 29 694 l 168 694 l 168 1035 q 186 1078 168 1060 q 229 1096 204 1096 q 274 1078 256 1096 q 292 1035 292 1060 l 292 694 l 404 694 q 449 676 431 694 q 467 632 467 658 q 449 589 467 607 q 404 571 431 571 z "},"°":{"ha":365,"x_min":40,"x_max":358,"o":"m 200 819 q 138 832 167 819 q 87 866 108 844 q 53 916 65 888 q 40 978 40 944 q 53 1040 40 1011 q 87 1091 65 1069 q 138 1125 108 1113 q 200 1138 167 1138 q 262 1125 233 1138 q 312 1091 290 1113 q 346 1040 333 1069 q 358 978 358 1011 q 346 916 358 944 q 312 866 333 888 q 262 832 290 844 q 200 819 233 819 m 200 1036 q 159 1019 176 1036 q 142 978 142 1001 q 159 938 142 954 q 200 921 176 921 q 240 938 224 921 q 257 978 257 954 q 240 1019 257 1001 q 200 1036 224 1036 z "},"¢":{"ha":707,"x_min":54,"x_max":683,"o":"m 621 485 q 597 490 607 485 q 579 501 588 494 q 526 540 551 525 q 474 564 501 556 l 474 110 q 526 133 501 118 q 579 172 551 149 q 597 184 588 179 q 621 189 607 189 q 665 171 647 189 q 683 128 683 153 q 678 103 683 114 q 665 85 672 93 q 578 19 629 44 q 474 -15 526 -6 l 474 -67 q 456 -111 474 -93 q 413 -129 438 -129 q 368 -111 386 -129 q 350 -67 350 -93 l 350 -15 q 233 27 288 -4 q 140 106 179 58 q 77 212 100 153 q 54 336 54 271 q 77 462 54 403 q 140 567 100 521 q 233 646 179 614 q 350 689 288 678 l 350 746 q 368 790 350 772 q 413 808 386 808 q 456 790 438 808 q 474 746 474 772 l 474 689 q 578 654 526 679 q 665 589 629 629 q 678 570 672 581 q 683 546 683 560 q 665 503 683 521 q 621 485 647 485 m 350 563 q 281 531 313 553 q 227 480 250 510 q 191 413 204 450 q 178 336 178 376 q 191 260 178 296 q 227 194 204 224 q 281 142 250 164 q 350 111 313 121 l 350 563 z "},"£":{"ha":890,"x_min":50,"x_max":806,"o":"m 339 571 q 359 414 353 483 q 360 289 365 344 q 338 188 356 233 q 286 103 321 143 l 744 103 q 788 85 769 103 q 806 40 806 67 q 788 -3 806 15 q 744 -21 769 -21 l 115 -21 q 80 -8 96 -21 q 57 24 64 4 q 58 62 50 43 q 82 92 65 81 q 178 167 143 132 q 228 249 214 201 q 238 369 242 297 q 217 557 233 440 l 214 571 l 115 571 q 72 589 90 571 q 54 632 54 607 q 72 676 54 658 q 115 694 90 694 l 208 694 q 244 856 214 790 q 308 961 274 921 q 425 1052 357 1019 q 563 1085 493 1085 l 744 1085 q 788 1067 769 1085 q 806 1024 806 1049 q 788 979 806 997 q 744 961 769 961 l 563 961 q 485 943 531 961 q 401 881 440 925 q 357 808 378 853 q 332 694 336 764 l 564 694 q 607 676 589 694 q 625 632 625 658 q 607 589 625 607 q 564 571 589 571 l 339 571 z "},"•":{"ha":342,"x_min":63,"x_max":279,"o":"m 279 338 q 247 261 279 293 q 171 229 215 229 q 94 261 126 229 q 63 338 63 293 q 94 414 63 383 q 171 444 125 444 q 247 414 215 444 q 279 338 279 383 z "},"¶":{"ha":757,"x_min":75,"x_max":619,"o":"m 449 40 q 437 12 449 24 q 407 0 425 0 q 378 12 390 0 q 367 40 367 24 l 367 401 q 252 438 306 410 q 159 511 199 467 q 97 612 119 556 q 75 732 75 668 q 101 861 75 800 q 172 967 128 922 q 277 1038 217 1011 q 407 1064 338 1064 l 579 1064 q 608 1052 596 1064 q 619 1024 619 1040 l 619 40 q 608 12 619 24 q 579 0 596 0 q 551 12 563 0 q 539 40 539 24 l 539 982 l 449 982 l 449 440 l 449 40 z "},"ß":{"ha":783,"x_min":115,"x_max":729,"o":"m 372 -19 q 329 -1 347 -19 q 311 42 311 17 q 329 86 311 68 q 372 104 347 104 q 463 122 421 104 q 538 172 506 140 q 588 247 569 204 q 606 338 606 289 q 588 428 606 386 q 538 503 569 471 q 463 553 506 535 q 372 571 421 571 q 329 589 347 571 q 311 632 311 607 q 329 676 311 658 q 372 694 347 694 q 467 733 428 694 q 506 828 506 772 q 467 922 506 883 q 372 961 428 961 q 278 922 317 961 q 239 828 239 883 l 239 40 q 221 -3 239 15 q 178 -21 203 -21 q 133 -3 151 -21 q 115 40 115 15 l 115 828 q 135 928 115 881 q 190 1010 156 975 q 272 1065 225 1044 q 372 1085 319 1085 q 472 1065 425 1085 q 554 1010 519 1044 q 609 928 589 975 q 629 828 629 881 q 609 728 629 775 q 553 646 589 682 q 682 515 635 597 q 729 338 729 433 q 701 199 729 264 q 625 85 674 133 q 511 8 576 36 q 372 -19 446 -19 z "},"®":{"ha":704,"x_min":38,"x_max":667,"o":"m 351 453 q 229 478 286 453 q 130 545 172 503 q 63 645 88 588 q 38 768 38 703 q 63 890 38 832 q 130 990 88 947 q 229 1057 172 1032 q 351 1082 286 1082 q 474 1057 417 1082 q 574 990 532 1032 q 642 890 617 947 q 667 768 667 832 q 642 645 667 703 q 574 545 617 588 q 474 478 532 503 q 351 453 417 453 m 351 1013 q 257 993 301 1013 q 179 940 213 974 q 126 863 146 907 q 107 768 107 818 q 126 672 107 717 q 179 594 146 628 q 257 542 213 561 q 351 522 301 522 q 447 542 403 522 q 525 594 492 561 q 578 672 558 628 q 597 768 597 717 q 578 863 597 818 q 525 940 558 907 q 447 993 492 974 q 351 1013 403 1013 m 393 739 q 416 699 404 719 q 437 661 428 679 q 452 631 446 643 q 458 614 458 618 q 450 592 458 601 q 429 583 442 583 q 404 599 414 583 l 328 736 l 326 736 l 326 614 q 318 592 326 601 q 299 583 310 583 q 278 592 286 583 q 269 614 269 601 l 269 917 q 278 938 269 929 q 299 947 286 947 l 371 947 q 411 938 393 947 q 443 915 429 929 q 465 881 457 900 q 472 842 472 863 q 451 778 472 807 q 393 739 431 750 m 371 888 l 326 888 l 326 794 l 371 794 q 403 808 390 794 q 415 842 415 822 q 403 874 415 860 q 371 888 390 888 z "},"©":{"ha":704,"x_min":38,"x_max":667,"o":"m 351 453 q 229 478 286 453 q 130 545 172 503 q 63 645 88 588 q 38 768 38 703 q 63 890 38 832 q 130 990 88 947 q 229 1057 172 1032 q 351 1082 286 1082 q 474 1057 417 1082 q 574 990 532 1032 q 642 890 617 947 q 667 768 667 832 q 642 645 667 703 q 574 545 617 588 q 474 478 532 503 q 351 453 417 453 m 351 1013 q 257 993 301 1013 q 179 940 213 974 q 126 863 146 907 q 107 768 107 818 q 126 672 107 717 q 179 594 146 628 q 257 542 213 561 q 351 522 301 522 q 447 542 403 522 q 525 594 492 561 q 578 672 558 628 q 597 768 597 717 q 578 863 597 818 q 525 940 558 907 q 447 993 492 974 q 351 1013 403 1013 m 454 836 q 444 839 449 836 q 433 844 439 842 q 424 851 429 847 q 413 860 419 856 q 386 874 401 867 q 349 881 371 881 q 266 847 300 881 q 232 764 232 813 q 266 681 232 715 q 349 647 300 647 q 386 653 371 647 q 413 668 401 660 q 424 676 419 672 q 433 683 429 681 q 444 689 439 686 q 454 692 449 692 q 479 681 469 692 q 489 657 489 671 q 479 633 489 643 q 419 592 457 606 q 349 578 382 578 q 276 592 310 578 q 218 632 243 607 q 178 691 193 657 q 164 764 164 725 q 178 835 164 801 q 218 895 193 869 q 276 935 243 921 q 349 950 310 950 q 419 936 382 950 q 479 894 457 922 q 489 871 489 882 q 479 846 489 856 q 454 836 469 836 z "},"™":{"ha":574,"x_min":22,"x_max":511,"o":"m 485 804 q 465 812 474 804 q 457 831 457 819 l 457 944 l 393 818 q 369 804 386 804 q 346 818 353 804 l 282 944 l 282 831 q 274 812 282 819 q 256 804 267 804 q 236 812 244 804 q 228 831 228 819 l 228 1056 q 236 1074 228 1067 q 256 1082 244 1082 q 279 1068 269 1082 l 369 889 l 461 1068 q 485 1082 468 1082 q 503 1074 496 1082 q 511 1056 511 1067 l 511 831 q 503 812 511 819 q 485 804 496 804 m 186 1032 l 144 1032 l 144 831 q 136 812 144 819 q 117 804 128 804 q 98 812 106 804 q 90 831 90 819 l 90 1032 l 49 1032 q 30 1040 38 1032 q 22 1058 22 1047 q 30 1077 22 1069 q 49 1085 38 1085 l 186 1085 q 205 1077 197 1085 q 213 1058 213 1069 q 205 1040 213 1047 q 186 1032 197 1032 z "},"´":{"ha":294,"x_min":24,"x_max":271,"o":"m 253 1006 l 128 881 q 85 863 111 863 q 42 881 60 863 q 24 924 24 899 q 42 967 24 949 l 167 1092 q 210 1110 185 1110 q 253 1092 235 1110 q 271 1049 271 1074 q 253 1006 271 1022 z "},"¨":{"ha":447,"x_min":24,"x_max":424,"o":"m 342 831 q 284 855 308 831 q 260 913 260 879 q 283 971 260 947 q 342 994 307 994 q 400 971 376 994 q 424 913 424 947 q 399 855 424 879 q 342 831 375 831 m 106 831 q 48 855 72 831 q 24 913 24 879 q 47 971 24 947 q 106 994 71 994 q 164 971 140 994 q 188 913 188 947 q 163 855 188 879 q 106 831 139 831 z "},"≠":{"ha":918,"x_min":54,"x_max":864,"o":"m 803 132 l 453 132 l 358 -97 q 336 -126 351 -117 q 301 -136 321 -136 q 251 -110 269 -136 q 244 -51 232 -83 l 319 132 l 115 132 q 72 150 90 132 q 54 193 54 168 q 72 238 54 219 q 115 256 90 256 l 369 256 l 440 429 l 115 429 q 72 447 90 429 q 54 490 54 465 q 72 535 54 517 q 115 553 90 553 l 490 553 l 575 763 q 608 797 585 786 q 656 796 632 807 q 689 763 679 786 q 689 717 699 740 l 622 553 l 803 553 q 847 535 829 553 q 864 490 864 517 q 847 447 864 465 q 803 429 829 429 l 572 429 l 503 256 l 803 256 q 847 238 829 256 q 864 193 864 219 q 846 150 864 168 q 803 132 828 132 z "},"Æ":{"ha":1517,"x_min":24,"x_max":1463,"o":"m 1401 -21 l 922 -21 q 888 -10 903 -21 q 865 17 872 0 l 756 275 l 251 275 l 142 17 q 119 -10 135 0 q 85 -21 104 -21 q 42 -3 60 -21 q 24 40 24 15 q 29 65 24 54 l 447 1047 q 469 1074 454 1064 q 504 1085 485 1085 l 1346 1085 q 1389 1067 1371 1085 q 1407 1024 1407 1049 q 1389 981 1407 999 q 1346 963 1371 963 l 597 963 l 751 599 l 1335 599 q 1378 581 1360 599 q 1396 538 1396 563 q 1378 494 1396 513 q 1335 476 1360 476 l 804 476 l 963 103 l 1401 103 q 1444 85 1426 103 q 1463 40 1463 67 q 1444 -3 1463 15 q 1401 -21 1426 -21 m 504 865 l 304 399 l 703 399 l 504 865 z "},"Ø":{"ha":1267,"x_min":85,"x_max":1181,"o":"m 633 -21 q 494 -3 558 -21 l 433 -154 q 410 -183 426 -172 q 376 -193 394 -193 q 326 -167 344 -193 q 319 -108 307 -140 l 379 42 q 260 127 314 76 q 167 240 206 178 q 106 376 128 303 q 85 528 85 449 q 128 740 85 640 q 245 915 171 840 q 419 1032 319 989 q 633 1075 519 1075 q 785 1054 711 1075 l 840 1192 q 873 1225 850 1215 q 919 1225 896 1235 q 953 1192 943 1215 q 954 1144 964 1168 l 899 1007 q 1013 921 961 971 q 1103 809 1065 871 q 1160 676 1140 747 q 1181 528 1181 604 q 1138 314 1181 414 q 1020 140 1094 214 q 846 22 946 65 q 633 -21 746 -21 m 853 892 l 540 113 q 633 101 588 101 q 799 135 721 101 q 934 226 876 168 q 1025 363 992 285 q 1058 528 1058 440 q 1002 740 1058 644 q 853 892 946 835 m 633 953 q 468 919 546 953 q 332 828 390 886 q 240 693 274 771 q 207 528 207 615 q 267 309 207 407 q 425 156 328 211 l 739 939 q 688 949 714 946 q 633 953 661 953 z "},"∞":{"ha":1639,"x_min":54,"x_max":1585,"o":"m 1222 -21 q 1090 5 1151 -21 q 978 69 1029 31 q 886 151 926 107 q 819 231 846 194 q 752 151 792 194 q 661 69 713 107 q 549 5 610 31 q 417 -21 488 -21 q 276 8 342 -21 q 160 85 210 36 q 83 201 111 135 q 54 342 54 267 q 83 483 54 417 q 160 598 111 549 q 276 676 210 647 q 417 704 342 704 q 549 678 488 704 q 661 615 610 653 q 752 533 713 576 q 819 453 792 489 q 886 533 846 489 q 978 615 926 576 q 1090 678 1029 653 q 1222 704 1151 704 q 1363 676 1297 704 q 1478 598 1429 647 q 1556 483 1528 549 q 1585 342 1585 417 q 1556 201 1585 267 q 1478 85 1528 135 q 1363 8 1429 36 q 1222 -21 1297 -21 m 1222 581 q 1113 553 1165 581 q 1018 489 1061 526 q 942 410 975 451 q 892 342 910 369 q 942 273 910 314 q 1018 194 975 232 q 1113 130 1061 157 q 1222 103 1165 103 q 1315 122 1272 103 q 1391 173 1358 140 q 1442 249 1424 206 q 1461 342 1461 292 q 1442 435 1461 392 q 1391 510 1424 478 q 1315 562 1358 543 q 1222 581 1272 581 m 417 581 q 324 562 367 581 q 248 510 281 543 q 197 435 215 478 q 178 342 178 392 q 197 249 178 292 q 248 173 215 206 q 324 122 281 140 q 417 103 367 103 q 526 130 474 103 q 621 194 578 157 q 696 273 664 232 q 747 342 728 314 q 696 410 728 369 q 621 489 664 451 q 526 553 578 526 q 417 581 474 581 z "},"±":{"ha":828,"x_min":54,"x_max":774,"o":"m 753 463 q 710 444 735 444 l 475 444 l 475 210 q 457 166 475 183 q 413 149 439 149 q 369 166 388 149 q 351 210 351 183 l 351 444 l 115 444 q 72 463 90 444 q 54 507 54 481 q 72 550 54 532 q 115 568 90 568 l 351 568 l 351 803 q 369 847 351 829 q 413 865 388 865 q 457 847 439 865 q 475 803 475 829 l 475 568 l 710 568 q 753 550 735 568 q 771 507 771 532 q 753 463 771 481 m 713 -21 l 119 -21 q 76 -3 94 -21 q 58 40 58 15 q 76 85 58 67 q 119 103 94 103 l 713 103 q 756 85 738 103 q 774 40 774 67 q 756 -3 774 15 q 713 -21 738 -21 z "},"≤":{"ha":749,"x_min":54,"x_max":664,"o":"m 603 150 q 569 160 586 150 l 100 456 q 72 508 72 474 q 100 560 72 542 l 569 856 q 603 865 583 865 q 646 847 628 865 q 664 804 664 829 q 635 751 664 769 l 249 508 l 635 264 q 664 213 664 246 q 646 168 664 186 q 603 150 628 150 m 603 -21 l 115 -21 q 72 -3 90 -21 q 54 40 54 15 q 72 85 54 67 q 115 103 90 103 l 603 103 q 646 85 628 103 q 664 40 664 67 q 646 -3 664 15 q 603 -21 628 -21 z "},"≥":{"ha":732,"x_min":85,"x_max":678,"o":"m 649 456 l 179 160 q 147 150 163 150 q 103 168 121 150 q 85 213 85 186 q 114 264 85 246 l 500 508 l 114 751 q 85 804 85 769 q 103 847 85 829 q 147 865 121 865 q 179 856 165 865 l 649 560 q 678 508 678 542 q 649 456 678 474 m 608 -21 l 147 -21 q 103 -3 121 -21 q 85 40 85 15 q 103 85 85 67 q 147 103 121 103 l 608 103 q 651 85 633 103 q 669 40 669 67 q 651 -3 669 15 q 608 -21 633 -21 z "},"¥":{"ha":813,"x_min":19,"x_max":829,"o":"m 785 983 l 469 419 l 469 40 q 451 -3 469 15 q 408 -21 433 -21 q 365 -3 383 -21 q 347 40 347 15 l 347 419 l 32 983 q 24 1014 24 997 q 42 1057 24 1039 q 85 1075 60 1075 q 116 1067 101 1075 q 139 1044 131 1058 l 408 563 l 678 1044 q 701 1067 686 1058 q 732 1075 715 1075 q 775 1057 757 1075 q 793 1014 793 1039 q 785 983 793 997 m 768 417 l 81 417 q 38 435 56 417 q 19 478 19 453 q 38 522 19 504 q 81 540 56 540 l 768 540 q 812 522 794 540 q 829 478 829 504 q 812 435 829 453 q 768 417 794 417 m 768 119 l 81 119 q 38 138 56 119 q 19 181 19 156 q 38 225 19 207 q 81 243 56 243 l 768 243 q 812 225 794 243 q 829 181 829 207 q 812 138 829 156 q 768 119 794 119 z "},"µ":{"ha":783,"x_min":115,"x_max":667,"o":"m 546 26 q 474 -8 513 4 q 392 -21 435 -21 q 310 -9 349 -21 q 239 25 271 3 l 239 -271 q 221 -315 239 -297 q 178 -333 203 -333 q 133 -315 151 -333 q 115 -271 115 -297 l 115 256 l 115 624 l 115 633 q 133 676 115 658 q 178 694 151 694 q 221 676 203 694 q 239 633 239 658 l 239 624 l 239 256 q 251 196 239 224 q 283 147 263 168 q 332 115 304 126 q 392 103 360 103 q 450 115 422 103 q 499 147 478 126 q 532 195 519 168 q 544 254 544 222 l 544 624 l 544 633 q 563 676 544 658 q 606 694 581 694 q 649 676 632 694 q 667 633 667 658 l 667 624 l 667 256 l 667 40 q 649 -3 667 15 q 606 -21 632 -21 q 567 -7 583 -21 q 546 26 551 7 z "},"∑":{"ha":1121,"x_min":75,"x_max":1067,"o":"m 1006 -21 l 147 -21 q 112 -10 128 -21 q 89 18 96 0 q 86 55 82 36 q 104 86 90 74 l 588 532 l 104 978 q 89 1046 75 1007 q 112 1074 96 1064 q 147 1085 128 1085 l 1006 1085 q 1049 1067 1031 1085 q 1067 1024 1067 1049 q 1049 979 1067 997 q 1006 961 1031 961 l 304 961 l 721 578 q 740 532 740 558 q 721 486 740 506 l 304 103 l 1006 103 q 1049 85 1031 103 q 1067 40 1067 67 q 1049 -3 1067 15 q 1006 -21 1031 -21 z "},"π":{"ha":957,"x_min":85,"x_max":872,"o":"m 811 579 l 725 579 l 725 203 q 749 142 725 167 q 810 118 774 118 q 853 100 835 118 q 872 57 872 82 q 855 14 872 32 q 811 -4 838 -4 q 730 12 768 -4 q 664 56 692 28 q 619 122 636 85 q 603 203 603 160 l 603 579 l 350 579 l 350 57 q 332 13 350 31 q 289 -4 314 -4 q 245 13 263 -4 q 228 57 228 31 l 228 579 l 146 579 q 103 597 121 579 q 85 640 85 614 q 103 683 85 665 q 146 701 121 701 l 811 701 q 855 683 838 701 q 872 640 872 665 q 855 597 872 614 q 811 579 838 579 z "},"∫":{"ha":599,"x_min":51,"x_max":549,"o":"m 451 965 q 406 967 426 979 q 374 926 386 956 q 361 850 361 897 l 361 51 q 343 -69 361 -17 q 288 -154 325 -121 q 226 -190 260 -178 q 151 -201 192 -201 q 108 -197 129 -201 q 67 -174 82 -194 q 54 -129 51 -154 q 78 -87 58 -103 q 124 -75 99 -72 q 175 -75 156 -79 q 206 -61 194 -71 q 231 -13 225 -46 q 238 51 238 19 l 238 850 q 265 984 238 925 q 344 1074 292 1043 q 429 1096 385 1097 q 514 1071 474 1094 q 542 1034 536 1058 q 535 988 549 1010 q 498 958 522 964 q 451 965 474 951 z "},"Ω":{"ha":1275,"x_min":85,"x_max":1190,"o":"m 1129 -21 l 846 -21 q 807 -8 824 -21 q 786 26 790 6 q 790 67 781 47 q 818 96 799 86 q 921 167 875 124 q 999 264 967 210 q 1050 380 1032 318 q 1068 508 1068 442 q 1034 685 1068 603 q 942 829 1000 768 q 805 926 883 890 q 638 961 726 961 q 471 926 549 961 q 335 829 393 890 q 242 685 276 768 q 208 508 208 603 q 226 380 208 442 q 276 264 244 318 q 354 167 308 210 q 457 96 400 124 q 486 67 476 86 q 490 26 496 47 q 468 -8 485 6 q 431 -21 451 -21 l 147 -21 q 103 -3 121 -21 q 85 40 85 15 q 103 85 85 67 q 147 103 121 103 l 244 103 q 127 287 169 182 q 85 508 85 392 q 128 732 85 626 q 246 915 171 838 q 422 1039 321 993 q 638 1085 522 1085 q 852 1039 751 1085 q 1028 915 953 993 q 1147 732 1103 838 q 1190 508 1190 626 q 1149 287 1190 392 q 1031 103 1107 182 l 1129 103 q 1172 85 1154 103 q 1190 40 1190 67 q 1172 -3 1190 15 q 1129 -21 1154 -21 z "},"æ":{"ha":1328,"x_min":54,"x_max":1275,"o":"m 1211 304 l 685 304 q 711 224 690 261 q 763 160 732 188 q 833 118 794 133 q 917 103 872 103 q 966 107 944 103 q 1006 120 988 111 q 1044 142 1025 129 q 1085 172 1063 156 q 1102 184 1093 179 q 1126 189 1111 189 q 1169 171 1151 189 q 1188 128 1188 153 q 1171 85 1188 104 q 1119 40 1149 60 q 1054 6 1089 19 q 984 -14 1019 -7 q 917 -21 949 -21 q 783 5 850 -21 q 669 82 717 31 l 669 43 q 653 -1 669 18 q 607 -21 636 -21 l 278 -21 q 191 -3 232 -21 q 120 45 150 15 q 72 116 90 75 q 54 203 54 157 q 72 290 54 249 q 120 361 90 331 q 191 410 150 392 q 278 428 232 428 l 542 428 q 455 531 514 492 q 325 571 396 571 q 276 567 297 571 q 237 553 256 563 q 199 531 218 544 q 158 501 181 518 q 140 490 150 494 q 115 485 131 485 q 72 503 90 485 q 54 546 54 521 q 59 570 54 560 q 71 589 64 581 q 124 634 93 614 q 188 667 154 654 q 258 688 222 681 q 325 694 293 694 q 494 653 415 694 q 621 538 572 611 q 749 653 671 611 q 917 694 828 694 q 1051 671 988 694 q 1163 603 1115 647 q 1240 499 1211 560 q 1274 367 1269 439 q 1256 322 1275 339 q 1211 304 1238 304 m 917 571 q 788 531 846 571 q 701 428 729 492 l 1133 428 q 1047 532 1106 493 q 917 571 989 571 m 560 304 l 278 304 q 208 274 238 304 q 178 203 178 244 q 208 132 178 161 q 278 103 238 103 l 560 103 l 560 304 z "},"ø":{"ha":833,"x_min":54,"x_max":779,"o":"m 417 -24 q 381 -22 399 -24 q 347 -17 364 -19 l 314 -97 q 292 -126 307 -117 q 257 -136 276 -136 q 206 -110 225 -136 q 200 -51 188 -83 l 232 28 q 103 157 153 75 q 54 339 54 239 q 83 480 54 414 q 160 595 111 546 q 276 673 210 644 q 417 701 342 701 q 501 692 463 701 l 531 763 q 564 797 540 786 q 611 796 588 807 q 644 763 635 786 q 644 717 654 740 l 615 642 q 735 514 690 593 q 779 339 779 435 q 751 198 779 264 q 673 83 722 132 q 558 5 624 33 q 417 -24 492 -24 m 567 525 l 396 101 q 417 100 403 100 q 510 119 467 100 q 585 170 553 138 q 637 246 618 203 q 656 339 656 289 q 631 444 656 396 q 567 525 607 492 m 417 578 q 324 559 367 578 q 248 508 281 540 q 197 432 215 475 q 178 339 178 389 q 206 227 178 278 q 279 143 233 176 l 454 575 q 435 578 444 578 q 417 578 426 578 z "},"¿":{"ha":825,"x_min":50,"x_max":769,"o":"m 471 957 q 413 933 447 933 q 354 957 378 933 q 331 1014 331 981 q 354 1072 331 1049 q 413 1096 378 1096 q 470 1072 446 1096 q 494 1014 494 1049 q 471 957 494 981 m 660 78 q 538 1 606 26 q 396 -21 471 -24 q 266 10 326 -18 q 160 85 206 39 q 85 191 114 131 q 54 321 57 251 q 99 513 50 425 q 240 651 149 601 q 267 665 256 658 q 290 679 279 672 q 335 716 321 697 q 350 774 350 735 q 368 817 350 799 q 413 835 386 835 q 456 817 438 835 q 474 774 474 799 q 460 694 474 728 q 424 633 447 660 q 369 585 401 607 q 300 543 338 564 q 208 453 240 511 q 178 326 175 394 q 198 242 179 282 q 247 172 217 201 q 317 123 276 142 q 401 103 357 104 q 574 167 503 99 q 647 338 647 238 q 665 381 647 363 q 708 399 683 399 q 752 381 735 399 q 769 338 769 363 q 741 196 769 263 q 660 78 713 129 z "},"¡":{"ha":396,"x_min":115,"x_max":279,"o":"m 256 947 q 198 924 232 924 q 140 947 164 924 q 115 1006 115 969 q 140 1064 115 1040 q 197 1088 164 1088 q 256 1064 232 1088 q 279 1006 279 1040 q 256 947 279 971 m 197 -21 q 154 -3 172 -21 q 136 40 136 15 l 136 765 q 154 808 136 790 q 197 826 172 826 q 242 808 224 826 q 260 765 260 790 l 260 40 q 242 -3 260 15 q 197 -21 224 -21 z "},"¬":{"ha":1078,"x_min":85,"x_max":963,"o":"m 838 338 l 838 611 l 147 611 q 100 631 115 611 q 85 674 85 650 q 100 717 85 697 q 147 736 115 736 l 900 736 q 944 717 925 736 q 963 674 963 699 l 963 338 q 943 290 963 306 q 900 275 924 275 q 857 290 876 275 q 838 338 838 306 z "},"√":{"ha":867,"x_min":54,"x_max":813,"o":"m 644 553 q 581 374 613 463 q 523 213 549 286 q 478 89 497 140 q 454 22 460 38 q 438 -6 450 10 q 403 -21 426 -21 q 369 -8 382 -21 q 351 17 357 6 l 211 322 l 110 322 q 70 338 86 322 q 54 378 54 354 q 70 417 54 401 q 110 433 86 433 l 246 433 q 275 423 260 433 q 297 400 290 413 l 396 188 l 704 1058 q 723 1085 710 1075 q 756 1096 736 1096 q 794 1081 776 1096 q 813 1042 813 1067 q 798 992 813 1036 q 760 881 783 949 q 706 727 736 813 q 644 553 675 642 z "},"ƒ":{"ha":878,"x_min":54,"x_max":824,"o":"m 763 685 l 654 685 q 591 663 618 685 q 557 604 564 640 l 540 515 l 689 515 q 732 498 714 515 q 750 454 750 481 q 732 411 750 429 q 689 393 714 393 l 518 393 l 458 69 q 416 -45 447 7 q 339 -135 385 -97 q 235 -194 293 -172 q 115 -215 178 -215 q 72 -198 90 -215 q 54 -154 54 -181 q 72 -111 54 -129 q 115 -93 90 -93 q 194 -79 157 -93 q 260 -41 231 -65 q 310 17 290 -17 q 338 92 331 51 l 393 393 l 376 393 q 333 411 351 393 q 315 454 315 429 q 333 498 315 481 q 376 515 351 515 l 415 515 l 436 626 q 463 699 443 665 q 513 757 483 733 q 578 794 542 781 q 654 808 614 808 l 763 808 q 806 790 788 808 q 824 747 824 772 q 806 703 824 721 q 763 685 788 685 z "},"∆":{"ha":729,"x_min":47,"x_max":682,"o":"m 618 -21 l 111 -21 q 63 3 78 -21 q 60 57 47 26 l 314 647 q 336 676 322 667 q 365 686 350 686 q 393 676 379 686 q 415 647 407 667 l 669 57 q 667 3 682 26 q 618 -21 651 -21 m 364 485 l 196 90 l 533 90 l 364 485 z "},"«":{"ha":976,"x_min":8,"x_max":926,"o":"m 861 -21 q 828 -11 843 -21 l 358 285 q 331 338 331 303 q 358 389 331 371 l 828 685 q 874 693 850 699 q 913 665 899 688 q 921 619 926 644 q 894 581 915 594 l 507 338 l 894 93 q 921 55 915 79 q 913 8 926 31 q 861 -21 894 -21 m 539 -21 q 507 -11 521 -21 l 38 285 q 8 338 8 303 q 38 389 8 371 l 507 685 q 553 693 528 699 q 592 665 578 688 q 600 619 606 644 q 572 581 594 594 l 186 338 l 572 93 q 600 55 594 79 q 592 8 606 31 q 539 -21 571 -21 z "},"»":{"ha":976,"x_min":50,"x_max":968,"o":"m 940 285 l 471 -11 q 438 -21 456 -21 q 408 -13 422 -21 q 386 8 394 -6 q 378 55 372 31 q 404 93 383 79 l 792 338 l 404 581 q 378 619 383 594 q 386 665 372 644 q 424 693 400 688 q 471 685 449 699 l 940 389 q 968 338 968 372 q 940 285 968 301 m 618 285 l 149 -11 q 117 -21 135 -21 q 64 8 82 -21 q 56 55 50 31 q 83 93 61 79 l 469 338 l 83 581 q 56 619 61 594 q 64 665 50 644 q 102 693 78 688 q 149 685 126 699 l 618 389 q 647 338 647 371 q 618 285 647 303 z "},"…":{"ha":881,"x_min":115,"x_max":765,"o":"m 683 -21 q 626 3 650 -21 q 601 61 601 28 q 626 119 601 96 q 683 142 650 142 q 742 119 718 142 q 765 61 765 96 q 742 3 765 28 q 683 -21 718 -21 m 433 -21 q 376 3 400 -21 q 351 61 351 28 q 376 119 351 96 q 433 142 400 142 q 492 119 468 142 q 515 61 515 96 q 492 3 515 28 q 433 -21 468 -21 m 197 -21 q 140 3 164 -21 q 115 61 115 28 q 140 119 115 96 q 197 142 164 142 q 256 119 232 142 q 279 61 279 96 q 256 3 279 28 q 197 -21 232 -21 z "},"À":{"ha":1007,"x_min":35,"x_max":1006,"o":"m 963 -15 q 939 -21 951 -21 q 905 -11 921 -21 q 882 17 889 -1 l 772 275 l 268 275 l 158 17 q 125 -17 149 -7 q 78 -15 101 -26 q 44 18 54 -6 q 46 65 35 42 l 171 361 l 464 1047 q 486 1075 471 1065 q 521 1085 501 1085 q 554 1075 539 1085 q 576 1047 569 1065 q 786 556 682 800 q 996 65 890 313 q 996 18 1006 42 q 963 -15 986 -6 m 521 865 l 321 399 l 719 399 l 521 865 m 507 1104 q 464 1122 481 1104 l 339 1247 q 321 1290 321 1265 q 339 1333 321 1315 q 382 1351 357 1351 q 425 1333 407 1351 l 550 1208 q 568 1165 568 1192 q 550 1122 568 1140 q 507 1104 532 1104 z "},"Ã":{"ha":1007,"x_min":35,"x_max":1006,"o":"m 963 -15 q 939 -21 951 -21 q 905 -11 921 -21 q 882 17 889 -1 l 772 275 l 268 275 l 158 17 q 125 -17 149 -7 q 78 -15 101 -26 q 44 18 54 -6 q 46 65 35 42 l 171 361 l 464 1047 q 486 1075 471 1065 q 521 1085 501 1085 q 554 1075 539 1085 q 576 1047 569 1065 q 786 556 682 800 q 996 65 890 313 q 996 18 1006 42 q 963 -15 986 -6 m 521 865 l 321 399 l 719 399 l 521 865 m 599 1158 q 547 1168 572 1158 q 497 1190 521 1178 q 454 1211 474 1201 q 421 1221 435 1221 q 404 1213 411 1221 q 389 1194 397 1204 q 369 1175 381 1183 q 340 1167 357 1167 q 299 1183 317 1167 q 281 1224 281 1200 q 289 1254 281 1239 q 343 1312 310 1288 q 417 1336 376 1336 q 468 1326 443 1336 q 516 1305 493 1317 q 558 1283 539 1293 q 593 1274 578 1274 q 610 1281 603 1274 q 624 1295 617 1288 q 642 1310 632 1303 q 668 1317 651 1317 q 710 1300 692 1317 q 728 1260 728 1283 q 715 1222 728 1240 q 681 1189 701 1203 q 639 1167 661 1175 q 599 1158 617 1158 z "},"Õ":{"ha":1267,"x_min":99,"x_max":1194,"o":"m 647 -21 q 433 22 533 -21 q 259 140 333 65 q 142 314 185 214 q 99 528 99 414 q 142 740 99 640 q 259 915 185 840 q 433 1032 333 989 q 647 1075 533 1075 q 860 1032 760 1075 q 1034 915 960 989 q 1151 740 1108 840 q 1194 528 1194 640 q 1151 314 1194 414 q 1034 140 1108 214 q 860 22 960 65 q 647 -21 760 -21 m 647 953 q 482 919 560 953 q 346 828 404 886 q 254 693 288 771 q 221 528 221 615 q 254 363 221 440 q 346 226 288 285 q 482 135 404 168 q 647 101 560 101 q 813 135 735 101 q 948 226 890 168 q 1039 363 1006 285 q 1072 528 1072 440 q 1039 693 1072 615 q 948 828 1006 771 q 813 919 890 886 q 647 953 735 953 m 728 1158 q 676 1168 701 1158 q 626 1190 650 1178 q 583 1211 603 1201 q 550 1221 564 1221 q 533 1213 540 1221 q 518 1194 526 1204 q 498 1175 510 1183 q 469 1167 486 1167 q 428 1183 446 1167 q 410 1224 410 1200 q 418 1254 410 1239 q 472 1312 439 1288 q 546 1336 506 1336 q 597 1326 572 1336 q 645 1305 622 1317 q 688 1283 668 1293 q 722 1274 707 1274 q 739 1281 732 1274 q 753 1295 746 1288 q 771 1310 761 1303 q 797 1317 781 1317 q 839 1300 821 1317 q 857 1260 857 1283 q 844 1222 857 1240 q 810 1189 831 1203 q 768 1167 790 1175 q 728 1158 746 1158 z "},"Œ":{"ha":1203,"x_min":54,"x_max":1147,"o":"m 1086 -21 l 774 -21 l 607 -21 q 392 23 493 -21 q 217 142 292 67 q 98 317 142 217 q 54 532 54 418 q 97 746 54 646 q 215 921 140 846 q 389 1040 289 996 q 603 1085 489 1083 l 682 1085 l 1086 1085 q 1130 1067 1113 1085 q 1147 1024 1147 1049 q 1130 980 1147 997 q 1086 963 1113 963 l 669 963 l 669 594 l 1021 594 q 1064 576 1046 594 q 1082 532 1082 558 q 1064 489 1082 507 q 1021 471 1046 471 l 669 471 l 669 103 l 1086 103 q 1130 85 1113 103 q 1147 42 1147 67 q 1130 -3 1147 15 q 1086 -21 1113 -21 m 546 957 q 399 908 467 946 q 283 813 332 869 q 206 685 233 757 q 178 532 178 613 q 206 379 178 451 q 283 251 233 307 q 399 156 332 194 q 546 107 467 118 l 546 957 z "},"œ":{"ha":1424,"x_min":54,"x_max":1371,"o":"m 1308 304 l 781 304 q 807 224 786 261 q 859 160 828 188 q 929 118 890 133 q 1013 103 968 103 q 1087 115 1057 103 q 1139 142 1117 126 q 1161 158 1151 150 q 1179 172 1171 165 q 1199 183 1189 178 q 1222 189 1210 189 q 1265 171 1247 189 q 1283 128 1283 153 q 1267 85 1283 104 q 1215 39 1244 58 q 1150 6 1185 19 q 1080 -14 1115 -7 q 1013 -21 1044 -21 q 845 21 924 -21 q 717 136 767 63 q 588 19 667 61 q 417 -24 508 -24 q 276 5 342 -24 q 160 83 210 33 q 83 198 111 132 q 54 339 54 264 q 83 480 54 414 q 160 595 111 546 q 276 673 210 644 q 417 701 342 701 q 588 658 508 701 q 718 539 668 614 q 846 653 768 611 q 1013 694 924 694 q 1148 671 1085 694 q 1259 604 1211 647 q 1336 501 1307 561 q 1369 367 1365 440 q 1352 322 1371 339 q 1308 304 1333 304 m 1013 571 q 883 531 942 571 q 797 428 825 492 l 1229 428 q 1143 532 1201 493 q 1013 571 1085 571 m 417 578 q 324 559 367 578 q 248 508 281 540 q 197 432 215 475 q 178 339 178 389 q 197 246 178 289 q 248 170 215 203 q 324 119 281 138 q 417 100 367 100 q 510 119 467 100 q 585 170 553 138 q 637 246 618 203 q 656 339 656 289 q 637 433 656 389 q 586 508 618 476 q 510 559 554 540 q 417 578 467 578 z "},"–":{"ha":657,"x_min":24,"x_max":633,"o":"m 572 275 l 85 275 q 42 293 60 275 q 24 338 24 311 q 42 381 24 363 q 85 399 60 399 l 572 399 q 615 381 597 399 q 633 338 633 363 q 615 293 633 311 q 572 275 597 275 z "},"—":{"ha":1201,"x_min":24,"x_max":1176,"o":"m 1115 275 l 85 275 q 42 293 60 275 q 24 338 24 311 q 42 381 24 363 q 85 399 60 399 l 1115 399 q 1159 381 1142 399 q 1176 338 1176 363 q 1159 293 1176 311 q 1115 275 1142 275 z "},"“":{"ha":410,"x_min":56,"x_max":386,"o":"m 369 999 q 340 964 350 979 q 331 924 331 949 l 331 910 q 361 885 350 901 q 372 847 372 868 q 352 799 372 818 q 304 779 332 779 q 252 802 269 779 q 235 856 235 825 l 235 924 q 254 1006 235 968 q 310 1072 274 1044 q 340 1082 326 1082 q 373 1069 360 1082 q 386 1036 386 1056 q 381 1015 386 1024 q 369 999 376 1006 m 189 999 q 160 964 169 979 q 151 924 151 949 l 151 910 q 182 885 171 901 q 193 847 193 868 q 173 799 193 818 q 125 779 153 779 q 73 802 90 779 q 56 856 56 825 l 56 924 q 75 1006 56 968 q 131 1072 94 1044 q 161 1082 144 1082 q 194 1069 181 1082 q 207 1036 207 1056 q 189 999 207 1014 z "},"”":{"ha":410,"x_min":24,"x_max":354,"o":"m 279 790 q 250 779 265 779 q 217 793 231 779 q 203 826 203 807 q 221 863 203 847 q 250 897 240 882 q 260 939 260 913 l 260 953 q 229 977 240 960 q 218 1015 218 994 q 238 1063 218 1043 q 286 1082 257 1082 q 338 1059 321 1082 q 354 1006 354 1036 l 354 939 q 335 856 354 894 q 279 790 315 818 m 100 790 q 69 779 86 779 q 37 793 50 779 q 24 826 24 807 q 42 863 24 847 q 70 897 61 882 q 79 939 79 913 l 79 953 q 49 977 60 960 q 38 1015 38 994 q 58 1063 38 1043 q 106 1082 78 1082 q 158 1059 140 1082 q 175 1006 175 1036 l 175 939 q 156 856 175 894 q 100 790 136 818 z "},"‘":{"ha":231,"x_min":56,"x_max":207,"o":"m 189 999 q 160 964 169 979 q 151 924 151 949 l 151 910 q 182 885 171 901 q 193 847 193 868 q 173 799 193 818 q 125 779 153 779 q 73 802 90 779 q 56 856 56 825 l 56 924 q 75 1006 56 968 q 131 1072 94 1044 q 161 1082 144 1082 q 194 1069 181 1082 q 207 1036 207 1056 q 189 999 207 1014 z "},"’":{"ha":231,"x_min":24,"x_max":175,"o":"m 100 776 q 69 765 86 765 q 37 779 50 765 q 24 813 24 793 q 42 849 24 833 q 70 883 61 868 q 79 925 79 899 l 79 939 q 49 963 60 946 q 38 1001 38 981 q 58 1049 38 1029 q 106 1068 78 1068 q 158 1045 140 1068 q 175 992 175 1022 l 175 925 q 156 842 175 881 q 100 776 136 804 z "},"÷":{"ha":935,"x_min":24,"x_max":911,"o":"m 481 531 q 423 555 447 531 q 399 613 399 579 q 423 670 399 647 q 481 693 447 693 q 539 670 515 693 q 563 613 563 647 q 539 555 563 579 q 481 531 515 531 m 850 275 l 85 275 q 42 293 60 275 q 24 338 24 311 q 42 381 24 363 q 85 399 60 399 l 850 399 q 893 381 875 399 q 911 338 911 363 q 893 293 911 311 q 850 275 875 275 m 481 -21 q 423 3 447 -21 q 399 61 399 28 q 423 119 399 96 q 481 142 447 142 q 539 119 515 142 q 563 61 563 96 q 539 3 563 28 q 481 -21 515 -21 z "},"◊":{"ha":726,"x_min":54,"x_max":671,"o":"m 403 44 q 363 29 386 29 q 324 44 339 29 l 71 297 q 54 338 54 314 q 71 376 54 361 l 324 629 q 363 646 339 646 q 403 629 386 646 l 656 376 q 671 338 671 361 q 656 297 671 314 l 403 44 m 363 513 l 188 338 l 363 163 l 538 338 l 363 513 z "},"ÿ":{"ha":635,"x_min":40,"x_max":628,"o":"m 622 610 l 390 35 l 269 -260 q 247 -288 263 -278 q 213 -299 232 -299 q 169 -281 188 -299 q 151 -237 151 -262 q 156 -214 151 -225 l 267 58 l 44 610 q 40 633 40 619 q 58 676 40 658 q 101 694 76 694 q 137 684 121 694 q 160 656 153 674 l 333 211 l 508 656 q 531 684 515 674 q 565 694 546 694 q 610 676 592 694 q 628 633 628 658 q 622 610 628 619 m 449 831 q 391 855 415 831 q 367 913 367 879 q 390 971 367 947 q 449 994 414 994 q 507 971 483 994 q 531 913 531 947 q 506 855 531 879 q 449 831 482 831 m 213 831 q 155 855 179 831 q 131 913 131 879 q 154 971 131 947 q 213 994 178 994 q 271 971 247 994 q 294 913 294 947 q 270 855 294 879 q 213 831 246 831 z "},"Ÿ":{"ha":817,"x_min":38,"x_max":807,"o":"m 799 983 l 483 419 l 483 40 q 465 -3 483 15 q 422 -21 447 -21 q 379 -3 397 -21 q 361 40 361 15 l 361 419 l 46 983 q 38 1014 38 997 q 56 1057 38 1039 q 99 1075 74 1075 q 130 1067 115 1075 q 153 1044 144 1058 l 422 563 l 692 1044 q 715 1067 700 1058 q 746 1075 729 1075 q 789 1057 771 1075 q 807 1014 807 1039 q 799 983 807 997 m 540 1151 q 483 1176 507 1151 q 458 1233 458 1200 q 482 1292 458 1268 q 540 1315 506 1315 q 599 1292 575 1315 q 622 1233 622 1268 q 598 1176 622 1200 q 540 1151 574 1151 m 304 1151 q 247 1176 271 1151 q 222 1233 222 1200 q 246 1292 222 1268 q 304 1315 269 1315 q 363 1292 339 1315 q 386 1233 386 1268 q 362 1176 386 1200 q 304 1151 338 1151 z "},"⁄":{"ha":631,"x_min":-15,"x_max":643,"o":"m 113 -299 q 90 -328 106 -318 q 54 -337 74 -337 q 3 -311 22 -337 q -3 -253 -15 -285 l 518 1046 q 551 1080 528 1069 q 599 1081 575 1090 q 633 1047 622 1071 q 632 1000 643 1024 l 113 -299 z "},"€":{"ha":1047,"x_min":54,"x_max":993,"o":"m 932 -21 l 715 -21 q 541 8 624 -21 q 390 86 458 36 q 269 205 321 136 q 190 356 218 274 l 115 356 q 72 374 90 356 q 54 417 54 392 q 72 461 54 443 q 115 479 90 479 l 164 479 q 162 505 163 492 q 161 533 161 518 q 162 560 161 547 q 164 586 163 574 l 115 586 q 72 604 90 586 q 54 649 54 622 q 72 692 54 674 q 115 710 90 710 l 190 710 q 269 860 218 792 q 390 979 321 929 q 541 1058 458 1029 q 715 1086 624 1086 l 932 1086 q 975 1068 957 1086 q 993 1025 993 1050 q 975 981 993 999 q 932 963 957 963 l 715 963 q 590 944 650 963 q 478 892 529 925 q 388 812 428 858 q 322 710 347 765 l 843 710 q 886 692 868 710 q 904 649 904 674 q 886 604 904 622 q 843 586 868 586 l 288 586 q 285 560 286 574 q 285 533 285 547 q 285 505 285 518 q 288 479 286 492 l 843 479 q 886 461 868 479 q 904 417 904 443 q 886 374 904 392 q 843 356 868 356 l 322 356 q 388 253 347 300 q 478 174 428 207 q 590 122 529 140 q 715 103 650 103 l 932 103 q 975 85 957 103 q 993 40 993 67 q 975 -3 993 15 q 932 -21 957 -21 z "},"‹":{"ha":701,"x_min":61,"x_max":658,"o":"m 592 -21 q 560 -11 574 -21 l 90 285 q 61 338 61 303 q 90 389 61 371 l 560 685 q 606 693 581 699 q 644 665 631 688 q 653 619 658 644 q 625 581 647 594 l 239 338 l 625 93 q 653 55 647 79 q 644 8 658 31 q 592 -21 624 -21 z "},"›":{"ha":701,"x_min":50,"x_max":647,"o":"m 618 285 l 149 -11 q 117 -21 135 -21 q 64 8 82 -21 q 56 55 50 31 q 83 93 61 79 l 469 338 l 83 581 q 56 619 61 594 q 64 665 50 644 q 102 693 78 688 q 149 685 126 699 l 618 389 q 647 338 647 371 q 618 285 647 303 z "},"‡":{"ha":460,"x_min":-7,"x_max":467,"o":"m 404 275 l 292 275 l 292 -117 q 274 -161 292 -143 q 229 -179 256 -179 q 186 -161 204 -179 q 168 -117 168 -143 l 168 275 l 54 275 q 11 293 29 275 q -7 338 -7 311 q 11 381 -7 363 q 54 399 29 399 l 168 399 l 168 571 l 54 571 q 11 589 29 571 q -7 632 -7 607 q 11 676 -7 658 q 54 694 29 694 l 168 694 l 168 1035 q 186 1078 168 1060 q 229 1096 204 1096 q 274 1078 256 1096 q 292 1035 292 1060 l 292 694 l 404 694 q 449 676 431 694 q 467 632 467 658 q 449 589 467 607 q 404 571 431 571 l 292 571 l 292 399 l 404 399 q 449 381 431 399 q 467 338 467 363 q 449 293 467 311 q 404 275 431 275 z "},"·":{"ha":236,"x_min":93,"x_max":310,"o":"m 310 501 q 278 425 310 457 q 201 393 246 393 q 125 425 157 393 q 93 501 93 457 q 124 578 93 547 q 201 608 156 608 q 278 578 246 608 q 310 501 310 547 z "},"‚":{"ha":231,"x_min":10,"x_max":189,"o":"m 108 -175 q 69 -187 89 -187 q 27 -170 44 -187 q 10 -128 10 -153 q 16 -100 10 -111 q 32 -81 22 -89 q 58 -49 51 -62 q 65 -15 65 -36 l 65 -10 q 35 19 46 1 q 24 61 24 38 q 48 119 24 96 q 106 142 72 142 q 169 114 149 142 q 189 51 189 86 l 189 -15 q 167 -104 189 -62 q 108 -175 146 -146 z "},"„":{"ha":410,"x_min":10,"x_max":382,"o":"m 301 -178 q 264 -192 283 -192 q 220 -174 238 -192 q 203 -131 203 -157 q 209 -104 203 -115 q 225 -83 215 -93 q 252 -53 244 -65 q 260 -18 260 -40 l 260 -14 q 218 57 218 10 q 242 116 218 93 q 300 139 265 139 q 362 111 342 139 q 382 49 382 83 l 382 -18 q 361 -108 382 -67 q 301 -178 340 -149 m 108 -178 q 69 -192 90 -192 q 27 -174 44 -192 q 10 -131 10 -157 q 16 -104 10 -115 q 32 -83 22 -93 q 58 -53 51 -65 q 65 -18 65 -40 l 65 -14 q 35 16 46 -3 q 24 57 24 35 q 48 116 24 93 q 106 139 72 139 q 169 111 149 139 q 189 49 189 83 l 189 -18 q 167 -108 189 -67 q 108 -178 146 -149 z "},"‰":{"ha":1138,"x_min":24,"x_max":1138,"o":"m 215 713 q 140 728 175 713 q 80 769 106 743 q 39 829 54 794 q 24 904 24 864 q 39 978 24 943 q 80 1040 54 1014 q 140 1081 106 1065 q 215 1096 175 1096 q 290 1081 254 1096 q 351 1040 325 1065 q 392 978 376 1014 q 407 904 407 943 q 392 829 407 864 q 351 769 376 794 q 290 728 325 743 q 215 713 254 713 m 946 -21 q 871 -6 906 -21 q 810 35 836 10 q 769 96 785 61 q 754 171 754 131 q 769 245 754 210 q 810 306 785 281 q 871 347 836 332 q 946 363 906 363 q 1020 347 985 363 q 1081 306 1056 332 q 1122 245 1107 281 q 1138 171 1138 210 q 1122 96 1138 131 q 1081 35 1107 61 q 1020 -6 1056 10 q 946 -21 985 -21 m 622 1000 l 228 18 q 205 -10 221 0 q 169 -21 189 -21 q 126 -3 144 -21 q 108 40 108 15 q 113 64 108 53 l 507 1046 q 529 1074 514 1064 q 564 1085 544 1085 q 608 1067 590 1085 q 626 1024 626 1049 q 622 1000 626 1010 m 550 -21 q 475 -6 510 -21 q 415 35 440 10 q 374 96 389 61 q 358 171 358 131 q 374 245 358 210 q 415 306 389 281 q 475 347 440 332 q 550 363 510 363 q 624 347 589 363 q 685 306 660 332 q 726 245 711 281 q 742 171 742 210 q 726 96 742 131 q 685 35 711 61 q 624 -6 660 10 q 550 -21 589 -21 m 215 981 q 161 958 183 981 q 139 904 139 936 q 161 850 139 872 q 215 828 183 828 q 269 850 247 828 q 292 904 292 872 q 269 958 292 936 q 215 981 247 981 m 946 247 q 892 225 914 247 q 869 171 869 203 q 892 117 869 139 q 946 94 914 94 q 1000 117 978 94 q 1022 171 1022 139 q 1000 225 1022 203 q 946 247 978 247 m 550 247 q 496 225 518 247 q 474 171 474 203 q 496 117 474 139 q 550 94 518 94 q 604 117 582 94 q 626 171 626 139 q 604 225 626 203 q 550 247 582 247 z "},"Â":{"ha":1007,"x_min":35,"x_max":1006,"o":"m 963 -15 q 939 -21 951 -21 q 905 -11 921 -21 q 882 17 889 -1 l 772 275 l 268 275 l 158 17 q 125 -17 149 -7 q 78 -15 101 -26 q 44 18 54 -6 q 46 65 35 42 l 171 361 l 464 1047 q 486 1075 471 1065 q 521 1085 501 1085 q 554 1075 539 1085 q 576 1047 569 1065 q 786 556 682 800 q 996 65 890 313 q 996 18 1006 42 q 963 -15 986 -6 m 521 865 l 321 399 l 719 399 l 521 865 m 649 1135 q 608 1151 625 1135 l 518 1244 l 428 1151 q 388 1135 411 1135 q 348 1151 364 1135 q 332 1192 332 1168 q 349 1232 332 1215 l 479 1365 q 518 1382 493 1382 q 558 1365 542 1382 l 689 1232 q 704 1192 704 1214 q 688 1151 704 1168 q 649 1135 672 1135 z "},"Ê":{"ha":772,"x_min":142,"x_max":744,"o":"m 682 -21 l 204 -21 q 160 -3 178 -21 q 142 40 142 15 l 142 43 l 142 46 l 142 1014 q 160 1057 142 1039 q 204 1075 178 1075 l 682 1075 q 726 1057 708 1075 q 744 1014 744 1039 q 726 970 744 988 q 682 953 708 953 l 265 953 l 265 599 l 617 599 q 660 581 642 599 q 678 538 678 564 q 660 494 678 513 q 617 476 642 476 l 265 476 l 265 103 l 682 103 q 726 85 708 103 q 744 40 744 67 q 726 -3 744 15 q 682 -21 708 -21 m 588 1135 q 547 1151 564 1135 l 457 1244 l 367 1151 q 326 1135 350 1135 q 287 1151 303 1135 q 271 1192 271 1168 q 288 1232 271 1215 l 418 1365 q 457 1382 432 1382 q 497 1365 481 1382 l 628 1232 q 643 1192 643 1214 q 627 1151 643 1168 q 588 1135 611 1135 z "},"Á":{"ha":1007,"x_min":35,"x_max":1006,"o":"m 963 -15 q 939 -21 951 -21 q 905 -11 921 -21 q 882 17 889 -1 l 772 275 l 268 275 l 158 17 q 125 -17 149 -7 q 78 -15 101 -26 q 44 18 54 -6 q 46 65 35 42 l 171 361 l 464 1047 q 486 1075 471 1065 q 521 1085 501 1085 q 554 1075 539 1085 q 576 1047 569 1065 q 786 556 682 800 q 996 65 890 313 q 996 18 1006 42 q 963 -15 986 -6 m 521 865 l 321 399 l 719 399 l 521 865 m 501 1104 q 544 1122 528 1104 l 669 1247 q 688 1290 688 1265 q 669 1333 688 1315 q 626 1351 651 1351 q 583 1333 601 1351 l 458 1208 q 440 1165 440 1192 q 458 1122 440 1140 q 501 1104 476 1104 z "},"Ë":{"ha":772,"x_min":142,"x_max":744,"o":"m 682 -21 l 204 -21 q 160 -3 178 -21 q 142 40 142 15 l 142 43 l 142 46 l 142 1014 q 160 1057 142 1039 q 204 1075 178 1075 l 682 1075 q 726 1057 708 1075 q 744 1014 744 1039 q 726 970 744 988 q 682 953 708 953 l 265 953 l 265 599 l 617 599 q 660 581 642 599 q 678 538 678 564 q 660 494 678 513 q 617 476 642 476 l 265 476 l 265 103 l 682 103 q 726 85 708 103 q 744 40 744 67 q 726 -3 744 15 q 682 -21 708 -21 m 588 1151 q 530 1176 554 1151 q 506 1233 506 1200 q 529 1292 506 1268 q 588 1315 553 1315 q 646 1292 622 1315 q 669 1233 669 1268 q 645 1176 669 1200 q 588 1151 621 1151 m 351 1151 q 294 1176 318 1151 q 269 1233 269 1200 q 293 1292 269 1268 q 351 1315 317 1315 q 410 1292 386 1315 q 433 1233 433 1268 q 409 1176 433 1200 q 351 1151 385 1151 z "},"È":{"ha":772,"x_min":142,"x_max":744,"o":"m 682 -21 l 204 -21 q 160 -3 178 -21 q 142 40 142 15 l 142 43 l 142 46 l 142 1014 q 160 1057 142 1039 q 204 1075 178 1075 l 682 1075 q 726 1057 708 1075 q 744 1014 744 1039 q 726 970 744 988 q 682 953 708 953 l 265 953 l 265 599 l 617 599 q 660 581 642 599 q 678 538 678 564 q 660 494 678 513 q 617 476 642 476 l 265 476 l 265 103 l 682 103 q 726 85 708 103 q 744 40 744 67 q 726 -3 744 15 q 682 -21 708 -21 m 458 1104 q 415 1122 432 1104 l 290 1247 q 272 1290 272 1265 q 290 1333 272 1315 q 333 1351 308 1351 q 376 1333 358 1351 l 501 1208 q 519 1165 519 1192 q 501 1122 519 1140 q 458 1104 483 1104 z "},"Í":{"ha":342,"x_min":114,"x_max":361,"o":"m 204 -21 q 160 -3 178 -21 q 142 40 142 15 l 142 1014 q 160 1057 142 1039 q 204 1075 178 1075 q 247 1057 229 1075 q 265 1014 265 1039 l 265 40 q 247 -3 265 15 q 204 -21 229 -21 m 175 1104 q 218 1122 201 1104 l 343 1247 q 361 1290 361 1265 q 343 1333 361 1315 q 300 1351 325 1351 q 257 1333 275 1351 l 132 1208 q 114 1165 114 1192 q 132 1122 114 1140 q 175 1104 150 1104 z "},"Î":{"ha":329,"x_min":-7,"x_max":365,"o":"m 190 -21 q 146 -3 164 -21 q 128 40 128 15 l 128 1014 q 146 1057 128 1039 q 190 1075 164 1075 q 233 1057 215 1075 q 251 1014 251 1039 l 251 40 q 233 -3 251 15 q 190 -21 215 -21 m 310 1135 q 269 1151 286 1135 l 179 1244 l 89 1151 q 49 1135 72 1135 q 9 1151 25 1135 q -7 1192 -7 1168 q 10 1232 -7 1215 l 140 1365 q 179 1382 154 1382 q 219 1365 203 1382 l 350 1232 q 365 1192 365 1214 q 349 1151 365 1168 q 310 1135 333 1135 z "},"Ï":{"ha":326,"x_min":-22,"x_max":378,"o":"m 189 -21 q 144 -3 163 -21 q 126 40 126 15 l 126 1014 q 144 1057 126 1039 q 189 1075 163 1075 q 232 1057 214 1075 q 250 1014 250 1039 l 250 40 q 232 -3 250 15 q 189 -21 214 -21 m 296 1151 q 238 1176 263 1151 q 214 1233 214 1200 q 238 1292 214 1268 q 296 1315 261 1315 q 354 1292 331 1315 q 378 1233 378 1268 q 353 1176 378 1200 q 296 1151 329 1151 m 60 1151 q 2 1176 26 1151 q -22 1233 -22 1200 q 1 1292 -22 1268 q 60 1315 25 1315 q 118 1292 94 1315 q 142 1233 142 1268 q 117 1176 142 1200 q 60 1151 93 1151 z "},"Ì":{"ha":342,"x_min":-6,"x_max":251,"o":"m 190 -21 q 146 -3 164 -21 q 128 40 128 15 l 128 1014 q 146 1057 128 1039 q 190 1075 164 1075 q 233 1057 215 1075 q 251 1014 251 1039 l 251 40 q 233 -3 251 15 q 190 -21 215 -21 m 181 1104 q 138 1122 154 1104 l 13 1247 q -6 1290 -6 1265 q 13 1333 -6 1315 q 56 1351 31 1351 q 99 1333 81 1351 l 224 1208 q 242 1165 242 1192 q 224 1122 242 1140 q 181 1104 206 1104 z "},"Ó":{"ha":1267,"x_min":99,"x_max":1194,"o":"m 632 1104 q 675 1122 658 1104 l 800 1247 q 818 1290 818 1265 q 800 1333 818 1315 q 757 1351 782 1351 q 714 1333 732 1351 l 589 1208 q 571 1165 571 1192 q 589 1122 571 1140 q 632 1104 607 1104 m 647 -21 q 433 22 533 -21 q 259 140 333 65 q 142 314 185 214 q 99 528 99 414 q 142 740 99 640 q 259 915 185 840 q 433 1032 333 989 q 647 1075 533 1075 q 860 1032 760 1075 q 1034 915 960 989 q 1151 740 1108 840 q 1194 528 1194 640 q 1151 314 1194 414 q 1034 140 1108 214 q 860 22 960 65 q 647 -21 760 -21 m 647 953 q 482 919 560 953 q 346 828 404 886 q 254 693 288 771 q 221 528 221 615 q 254 363 221 440 q 346 226 288 285 q 482 135 404 168 q 647 101 560 101 q 813 135 735 101 q 948 226 890 168 q 1039 363 1006 285 q 1072 528 1072 440 q 1039 693 1072 615 q 948 828 1006 771 q 813 919 890 886 q 647 953 735 953 z "},"Ô":{"ha":1267,"x_min":99,"x_max":1194,"o":"m 778 1135 q 738 1151 754 1135 l 647 1244 l 557 1151 q 517 1135 540 1135 q 477 1151 493 1135 q 461 1192 461 1168 q 478 1232 461 1215 l 608 1365 q 647 1382 622 1382 q 688 1365 671 1382 l 818 1232 q 833 1192 833 1214 q 817 1151 833 1168 q 778 1135 801 1135 m 647 -21 q 433 22 533 -21 q 259 140 333 65 q 142 314 185 214 q 99 528 99 414 q 142 740 99 640 q 259 915 185 840 q 433 1032 333 989 q 647 1075 533 1075 q 860 1032 760 1075 q 1034 915 960 989 q 1151 740 1108 840 q 1194 528 1194 640 q 1151 314 1194 414 q 1034 140 1108 214 q 860 22 960 65 q 647 -21 760 -21 m 647 953 q 482 919 560 953 q 346 828 404 886 q 254 693 288 771 q 221 528 221 615 q 254 363 221 440 q 346 226 288 285 q 482 135 404 168 q 647 101 560 101 q 813 135 735 101 q 948 226 890 168 q 1039 363 1006 285 q 1072 528 1072 440 q 1039 693 1072 615 q 948 828 1006 771 q 813 919 890 886 q 647 953 735 953 z "},"Ò":{"ha":1267,"x_min":99,"x_max":1194,"o":"m 643 1104 q 600 1122 617 1104 l 475 1247 q 457 1290 457 1265 q 475 1333 457 1315 q 518 1351 493 1351 q 561 1333 543 1351 l 686 1208 q 704 1165 704 1192 q 686 1122 704 1140 q 643 1104 668 1104 m 647 -21 q 433 22 533 -21 q 259 140 333 65 q 142 314 185 214 q 99 528 99 414 q 142 740 99 640 q 259 915 185 840 q 433 1032 333 989 q 647 1075 533 1075 q 860 1032 760 1075 q 1034 915 960 989 q 1151 740 1108 840 q 1194 528 1194 640 q 1151 314 1194 414 q 1034 140 1108 214 q 860 22 960 65 q 647 -21 760 -21 m 647 953 q 482 919 560 953 q 346 828 404 886 q 254 693 288 771 q 221 528 221 615 q 254 363 221 440 q 346 226 288 285 q 482 135 404 168 q 647 101 560 101 q 813 135 735 101 q 948 226 890 168 q 1039 363 1006 285 q 1072 528 1072 440 q 1039 693 1072 615 q 948 828 1006 771 q 813 919 890 886 q 647 953 735 953 z "},"Ú":{"ha":1076,"x_min":142,"x_max":988,"o":"m 564 -21 q 400 13 476 -21 q 266 103 324 46 q 175 237 208 160 q 142 401 142 314 l 142 1014 q 160 1057 142 1039 q 204 1075 178 1075 q 247 1057 229 1075 q 265 1014 265 1039 l 265 401 q 289 285 265 339 q 353 190 313 231 q 448 126 393 150 q 564 103 503 103 q 681 126 626 103 q 776 190 735 150 q 840 285 817 231 q 864 401 864 340 l 864 1014 q 882 1057 864 1039 q 925 1075 900 1075 q 969 1057 951 1075 q 988 1014 988 1039 l 988 401 q 954 237 988 314 q 863 103 921 160 q 728 13 806 46 q 564 -21 651 -21 m 510 1104 q 553 1122 536 1104 l 678 1247 q 696 1290 696 1265 q 678 1333 696 1315 q 635 1351 660 1351 q 592 1333 610 1351 l 467 1208 q 449 1165 449 1192 q 467 1122 449 1140 q 510 1104 485 1104 z "},"Û":{"ha":1076,"x_min":142,"x_max":988,"o":"m 564 -21 q 400 13 476 -21 q 266 103 324 46 q 175 237 208 160 q 142 401 142 314 l 142 1014 q 160 1057 142 1039 q 204 1075 178 1075 q 247 1057 229 1075 q 265 1014 265 1039 l 265 401 q 289 285 265 339 q 353 190 313 231 q 448 126 393 150 q 564 103 503 103 q 681 126 626 103 q 776 190 735 150 q 840 285 817 231 q 864 401 864 340 l 864 1014 q 882 1057 864 1039 q 925 1075 900 1075 q 969 1057 951 1075 q 988 1014 988 1039 l 988 401 q 954 237 988 314 q 863 103 921 160 q 728 13 806 46 q 564 -21 651 -21 m 682 1135 q 642 1151 658 1135 l 551 1244 l 461 1151 q 421 1135 444 1135 q 381 1151 397 1135 q 365 1192 365 1168 q 382 1232 365 1215 l 513 1365 q 551 1382 526 1382 q 592 1365 575 1382 l 722 1232 q 738 1192 738 1214 q 722 1151 738 1168 q 682 1135 706 1135 z "},"Ù":{"ha":1076,"x_min":142,"x_max":988,"o":"m 564 -21 q 400 13 476 -21 q 266 103 324 46 q 175 237 208 160 q 142 401 142 314 l 142 1014 q 160 1057 142 1039 q 204 1075 178 1075 q 247 1057 229 1075 q 265 1014 265 1039 l 265 401 q 289 285 265 339 q 353 190 313 231 q 448 126 393 150 q 564 103 503 103 q 681 126 626 103 q 776 190 735 150 q 840 285 817 231 q 864 401 864 340 l 864 1014 q 882 1057 864 1039 q 925 1075 900 1075 q 969 1057 951 1075 q 988 1014 988 1039 l 988 401 q 954 237 988 314 q 863 103 921 160 q 728 13 806 46 q 564 -21 651 -21 m 585 1104 q 542 1122 558 1104 l 417 1247 q 399 1290 399 1265 q 417 1333 399 1315 q 460 1351 435 1351 q 503 1333 485 1351 l 628 1208 q 646 1165 646 1192 q 628 1122 646 1140 q 585 1104 610 1104 z "},"ı":{"ha":399,"x_min":138,"x_max":261,"o":"m 200 -21 q 156 -3 174 -21 q 138 40 138 15 l 138 633 q 156 676 138 658 q 200 694 174 694 q 243 676 225 694 q 261 633 261 658 l 261 40 q 243 -3 261 15 q 200 -21 225 -21 z "},"ˆ":{"ha":419,"x_min":24,"x_max":396,"o":"m 340 876 q 300 893 317 876 l 210 986 l 119 893 q 79 876 103 876 q 40 893 56 876 q 24 933 24 910 q 40 974 24 957 l 171 1107 q 210 1124 185 1124 q 250 1107 233 1124 l 381 974 q 396 933 396 956 q 380 893 396 910 q 340 876 364 876 z "},"˜":{"ha":772,"x_min":163,"x_max":610,"o":"m 481 881 q 428 890 454 881 q 379 912 403 900 q 336 933 356 924 q 303 943 317 943 q 286 935 293 943 q 271 916 279 926 q 251 897 263 906 q 222 889 239 889 q 181 906 199 889 q 163 946 163 922 q 171 976 163 961 q 225 1034 192 1010 q 299 1058 258 1058 q 350 1049 325 1058 q 398 1027 375 1039 q 440 1006 421 1015 q 475 996 460 996 q 492 1003 485 996 q 506 1017 499 1010 q 524 1032 514 1025 q 550 1039 533 1039 q 592 1022 574 1039 q 610 982 610 1006 q 597 944 610 963 q 563 911 583 925 q 521 889 543 897 q 481 881 499 881 z "},"˚":{"ha":365,"x_min":24,"x_max":342,"o":"m 183 819 q 121 832 150 819 q 70 866 92 844 q 36 916 49 888 q 24 978 24 944 q 36 1040 24 1011 q 70 1091 49 1069 q 121 1125 92 1113 q 183 1138 150 1138 q 245 1125 217 1138 q 295 1091 274 1113 q 329 1040 317 1069 q 342 978 342 1011 q 329 916 342 944 q 295 866 317 888 q 245 832 274 844 q 183 819 217 819 m 183 1036 q 142 1019 160 1036 q 125 978 125 1001 q 142 938 125 954 q 183 921 160 921 q 224 938 207 921 q 240 978 240 954 q 224 1019 240 1001 q 183 1036 207 1036 z "},"¸":{"ha":1538,"x_min":607,"x_max":826,"o":"m 661 -221 q 625 -214 643 -221 q 607 -179 607 -207 q 627 -146 607 -153 q 668 -139 647 -139 q 693 -140 681 -139 q 718 -140 706 -140 q 742 -139 729 -140 q 756 -122 756 -137 q 743 -110 756 -111 q 722 -108 731 -108 q 698 -110 710 -108 q 674 -112 686 -112 q 644 -103 656 -112 q 632 -74 632 -93 q 638 -46 632 -62 q 650 -12 643 -29 q 665 22 657 3 q 686 68 674 40 l 686 64 q 717 76 699 76 q 747 65 735 76 q 758 35 758 53 q 749 3 758 24 q 735 -29 740 -18 q 799 -51 771 -32 q 826 -114 826 -69 q 810 -176 826 -154 q 771 -207 794 -197 q 717 -219 747 -217 q 661 -221 688 -221 z "},"˝":{"ha":504,"x_min":40,"x_max":497,"o":"m 269 1033 l 144 908 q 101 890 128 890 q 58 908 76 890 q 40 951 40 926 q 58 994 40 976 l 183 1119 q 226 1138 201 1138 q 269 1119 251 1138 q 288 1076 288 1101 q 269 1033 288 1050 m 479 1033 l 354 908 q 311 890 338 890 q 268 908 286 890 q 250 951 250 926 q 268 994 250 976 l 393 1119 q 436 1138 411 1138 q 479 1119 461 1138 q 497 1076 497 1101 q 479 1033 497 1050 z "},"ˇ":{"ha":419,"x_min":24,"x_max":396,"o":"m 210 863 q 171 879 185 863 l 40 1013 q 24 1053 24 1029 q 40 1093 24 1076 q 79 1110 56 1110 q 119 1093 103 1110 l 210 1000 l 300 1093 q 340 1110 317 1110 q 380 1093 364 1110 q 396 1053 396 1076 q 381 1013 396 1031 l 250 879 q 210 863 233 863 z "}}}
